<?xml version="1.0" encoding="utf-8"?>
<!-- Generator: Adobe Illustrator 25.0.1, SVG Export Plug-In . SVG Version: 6.00 Build 0)  -->
<svg version="1.1" id="Camada_1" xmlns="http://www.w3.org/2000/svg" xmlns:xlink="http://www.w3.org/1999/xlink" x="0px" y="0px"
	 viewBox="0 0 342.13 216.51" style="enable-background:new 0 0 342.13 216.51;" xml:space="preserve">
<style type="text/css">
	.st0{fill:#FFFFFF;}
	.st1{fill:#005C8B;}
	.st2{fill:#666666;}
	.st3{fill:#006695;}
	.st4{fill:#5AD37C;}
</style>
<g>
	<circle class="st0" cx="92.86" cy="110.9" r="60.92"/>
	<circle class="st0" cx="253.75" cy="111.67" r="60.92"/>
</g>
<g id="BACKGROUND">
</g>
<g id="INFO">
	<g>
		<path class="st1" d="M253.23,175.42c-35.58,0-64.52-28.95-64.52-64.52c0-35.58,28.94-64.52,64.52-64.52s64.52,28.95,64.52,64.52
			C317.76,146.47,288.81,175.42,253.23,175.42z M253.23,54.37c-31.17,0-56.52,25.36-56.52,56.52c0,31.17,25.36,56.52,56.52,56.52
			s56.52-25.36,56.52-56.52C309.76,79.73,284.4,54.37,253.23,54.37z"/>
		<g>
			<g>
				<g>
					<path class="st2" d="M241.95,82.8c-0.23,0.16-0.45,0.3-0.67,0.41c-0.23,0.12-0.48,0.21-0.74,0.28
						c-0.27,0.08-0.56,0.13-0.85,0.16c-0.33,0.04-0.66,0.06-0.97,0.06c-0.6,0-1.17-0.11-1.69-0.33c-0.53-0.22-0.98-0.51-1.34-0.89
						c-0.39-0.4-0.69-0.85-0.89-1.37c-0.21-0.53-0.32-1.11-0.32-1.74c0-0.65,0.1-1.23,0.3-1.74c0.21-0.53,0.51-0.99,0.89-1.37
						c0.37-0.37,0.83-0.67,1.38-0.89c0.51-0.19,1.09-0.3,1.74-0.32h0.08c0.89,0,1.88,0.2,2.99,0.61v2.15h-0.68
						c-0.14,0-0.23-0.07-0.27-0.21c-0.02-0.11-0.06-0.41-0.11-0.91c-0.58-0.19-1.24-0.29-2-0.29c-0.41,0-0.78,0.07-1.12,0.21
						s-0.63,0.34-0.86,0.6c-0.24,0.26-0.42,0.58-0.55,0.93c-0.13,0.37-0.2,0.78-0.2,1.23c0,0.5,0.07,0.94,0.21,1.31
						c0.14,0.39,0.33,0.71,0.57,0.96c0.25,0.26,0.54,0.46,0.88,0.6c0.34,0.14,0.71,0.21,1.11,0.21c0.33,0,0.63-0.03,0.92-0.09
						c0.26-0.06,0.51-0.15,0.75-0.27v-1.53h-1.05c-0.1,0-0.18-0.03-0.25-0.09c-0.05-0.05-0.08-0.12-0.08-0.2v-0.89h2.8v3.41H241.95z
						"/>
					<path class="st2" d="M246.29,77.71c0.3,0.11,0.57,0.29,0.82,0.54c0.23,0.23,0.4,0.51,0.54,0.85c0.13,0.35,0.2,0.73,0.2,1.15
						c0,0.09-0.01,0.19-0.02,0.28c-0.02,0.09-0.03,0.14-0.05,0.16c-0.02,0.04-0.05,0.07-0.11,0.09c-0.03,0.02-0.09,0.02-0.16,0.02
						h-3.7c0.05,0.62,0.21,1.07,0.5,1.36s0.67,0.43,1.14,0.43c0.24,0,0.44-0.03,0.6-0.08c0.17-0.05,0.32-0.12,0.44-0.19
						c0.05-0.03,0.11-0.06,0.17-0.09s0.11-0.06,0.17-0.09c0.09-0.05,0.18-0.08,0.27-0.08c0.06,0,0.12,0.01,0.16,0.03
						c0.04,0.02,0.07,0.05,0.11,0.09l0.42,0.53c-0.18,0.2-0.36,0.36-0.54,0.48c-0.21,0.13-0.42,0.23-0.62,0.3
						c-0.2,0.06-0.42,0.11-0.67,0.15c-0.2,0.03-0.41,0.05-0.65,0.05c-0.43,0-0.81-0.07-1.16-0.2c-0.34-0.13-0.65-0.34-0.93-0.62
						c-0.26-0.26-0.48-0.6-0.63-1c-0.15-0.39-0.22-0.85-0.22-1.39c0-0.39,0.07-0.77,0.2-1.14c0.12-0.35,0.32-0.67,0.57-0.95
						c0.24-0.26,0.54-0.47,0.9-0.63c0.36-0.16,0.76-0.23,1.21-0.23C245.63,77.53,245.98,77.59,246.29,77.71z M244.29,78.92
						c-0.23,0.23-0.39,0.57-0.46,1h2.71c0-0.16-0.03-0.34-0.08-0.53c-0.05-0.15-0.12-0.29-0.23-0.43c-0.1-0.13-0.23-0.22-0.4-0.29
						c-0.18-0.08-0.37-0.12-0.56-0.12C244.86,78.56,244.53,78.68,244.29,78.92z"/>
					<path class="st2" d="M252.56,81.72c0,0.28-0.05,0.55-0.16,0.81c-0.11,0.24-0.26,0.45-0.46,0.63c-0.21,0.19-0.46,0.32-0.75,0.41
						c-0.28,0.1-0.62,0.15-1.03,0.15c-0.35,0-0.7-0.03-1.03-0.09s-0.63-0.14-0.87-0.23v-1.69h0.68c0.14,0,0.23,0.07,0.27,0.22
						c0.02,0.09,0.04,0.32,0.08,0.69c0.21,0.06,0.53,0.09,0.95,0.09c0.16,0,0.31-0.02,0.44-0.06c0.13-0.05,0.23-0.1,0.3-0.16
						c0.09-0.08,0.15-0.15,0.18-0.22c0.03-0.09,0.05-0.18,0.05-0.28c0-0.14-0.04-0.25-0.12-0.34c-0.07-0.08-0.18-0.16-0.34-0.23
						c-0.15-0.07-0.3-0.13-0.47-0.18l-0.55-0.17c-0.13-0.04-0.3-0.11-0.54-0.22c-0.19-0.08-0.35-0.19-0.48-0.32
						c-0.14-0.12-0.25-0.28-0.33-0.47c-0.09-0.2-0.13-0.42-0.13-0.68c0-0.25,0.05-0.48,0.14-0.7c0.09-0.22,0.24-0.41,0.43-0.58
						c0.19-0.17,0.43-0.3,0.71-0.4c0.3-0.1,0.63-0.15,0.97-0.15c0.3,0,0.56,0.02,0.78,0.06c0.23,0.04,0.55,0.13,0.97,0.25h-0.01
						v1.69h-0.67c-0.14,0-0.23-0.07-0.27-0.22c-0.02-0.1-0.05-0.32-0.08-0.65c-0.18-0.05-0.41-0.08-0.7-0.08
						c-0.28,0-0.5,0.06-0.67,0.17c-0.16,0.12-0.25,0.28-0.25,0.48c0,0.12,0.04,0.23,0.13,0.33c0.06,0.07,0.17,0.14,0.33,0.22
						c0.18,0.09,0.33,0.15,0.47,0.19c0.06,0.02,0.24,0.07,0.54,0.16c0.15,0.05,0.33,0.12,0.55,0.22c0.19,0.08,0.34,0.19,0.47,0.3
						c0.14,0.12,0.25,0.26,0.33,0.43C252.52,81.28,252.56,81.49,252.56,81.72z"/>
					<path class="st2" d="M254.18,83.27c-0.28-0.3-0.42-0.7-0.42-1.21v-3.34h-0.61c-0.06,0-0.13-0.03-0.2-0.08
						c-0.06-0.05-0.09-0.12-0.09-0.22v-0.58l0.97-0.15l0.3-1.64c0.01-0.07,0.04-0.13,0.11-0.17c0.06-0.05,0.14-0.07,0.22-0.07h0.75
						v1.89h1.58v1.03h-1.58v3.25c0,0.18,0.05,0.32,0.14,0.43c0.09,0.1,0.22,0.15,0.37,0.15c0.11,0,0.18-0.01,0.22-0.02l0.15-0.07
						l0.13-0.07c0.02-0.02,0.05-0.02,0.09-0.02c0.06,0,0.1,0.01,0.12,0.02l0.08,0.09l0.43,0.7c-0.2,0.16-0.44,0.3-0.72,0.4
						c-0.27,0.09-0.55,0.14-0.84,0.14C254.86,83.72,254.46,83.57,254.18,83.27z"/>
					<path class="st2" d="M262.96,82.92v0.69h-1.38c-0.15,0-0.26-0.02-0.33-0.06c-0.08-0.03-0.14-0.12-0.18-0.26l-0.13-0.42
						c-0.16,0.15-0.3,0.27-0.44,0.36c-0.11,0.08-0.26,0.16-0.46,0.26c-0.14,0.06-0.3,0.11-0.49,0.15c-0.2,0.04-0.39,0.06-0.58,0.06
						c-0.26,0-0.49-0.04-0.7-0.11c-0.23-0.08-0.41-0.18-0.55-0.3c-0.16-0.15-0.28-0.32-0.36-0.51c-0.09-0.21-0.13-0.44-0.13-0.7
						c0-0.23,0.06-0.46,0.17-0.68c0.12-0.23,0.32-0.42,0.6-0.6c0.3-0.19,0.66-0.33,1.1-0.44c0.46-0.12,1.03-0.18,1.72-0.18v-0.35
						c0-0.39-0.09-0.69-0.26-0.9c-0.16-0.2-0.41-0.29-0.74-0.29c-0.25,0-0.44,0.03-0.58,0.08c-0.18,0.07-0.32,0.13-0.41,0.19
						l-0.32,0.17c-0.09,0.05-0.19,0.08-0.32,0.08c-0.1,0-0.19-0.02-0.26-0.07c-0.05-0.03-0.1-0.09-0.16-0.19l-0.27-0.46
						c0.7-0.64,1.53-0.96,2.49-0.96c0.35,0,0.67,0.06,0.95,0.17c0.27,0.12,0.5,0.28,0.69,0.48c0.21,0.24,0.36,0.49,0.44,0.74
						c0.09,0.28,0.14,0.59,0.14,0.93v2.65l0.32,0.06l0.13,0.02C262.87,82.61,262.96,82.73,262.96,82.92z M260.85,75.58
						c0.07-0.07,0.11-0.19,0.11-0.35h0.88c0,0.21-0.03,0.41-0.09,0.6c-0.05,0.17-0.14,0.32-0.25,0.46
						c-0.09,0.12-0.22,0.21-0.37,0.29c-0.14,0.07-0.3,0.1-0.49,0.1c-0.12,0-0.25-0.03-0.39-0.08c-0.11-0.04-0.22-0.09-0.34-0.16
						l-0.29-0.16c-0.09-0.05-0.18-0.07-0.26-0.07c-0.11,0-0.2,0.04-0.27,0.11c-0.06,0.06-0.09,0.17-0.09,0.34h-0.9
						c0-0.2,0.03-0.4,0.09-0.58c0.05-0.16,0.14-0.31,0.26-0.46c0.1-0.13,0.23-0.23,0.39-0.3c0.14-0.07,0.3-0.1,0.47-0.1
						c0.13,0,0.26,0.03,0.4,0.08c0.11,0.04,0.22,0.09,0.34,0.16l0.29,0.16c0.09,0.05,0.18,0.07,0.26,0.07
						C260.7,75.68,260.79,75.65,260.85,75.58z M259.77,81.14c-0.29,0.06-0.52,0.13-0.69,0.21s-0.29,0.17-0.36,0.28
						c-0.07,0.1-0.1,0.22-0.1,0.36c0,0.26,0.07,0.45,0.22,0.55c0.16,0.11,0.35,0.16,0.58,0.16c0.15,0,0.28-0.01,0.41-0.04
						c0.13-0.02,0.25-0.07,0.36-0.13c0.14-0.08,0.25-0.14,0.32-0.2c0.11-0.09,0.21-0.18,0.32-0.28v-1
						C260.39,81.06,260.04,81.09,259.77,81.14z"/>
					<path class="st2" d="M267.53,77.76c0.37,0.15,0.69,0.35,0.93,0.61c0.25,0.26,0.44,0.58,0.58,0.97
						c0.14,0.38,0.21,0.81,0.21,1.27c0,0.47-0.07,0.9-0.21,1.29c-0.15,0.4-0.34,0.72-0.58,0.98c-0.26,0.27-0.57,0.48-0.93,0.62
						s-0.76,0.21-1.21,0.21c-0.45,0-0.86-0.07-1.23-0.21c-0.37-0.14-0.68-0.35-0.93-0.62c-0.27-0.28-0.48-0.61-0.61-0.98
						c-0.14-0.39-0.21-0.82-0.21-1.29s0.07-0.89,0.21-1.27c0.13-0.36,0.33-0.68,0.61-0.97c0.25-0.26,0.56-0.46,0.93-0.61
						c0.38-0.15,0.79-0.22,1.23-0.22C266.74,77.53,267.15,77.61,267.53,77.76z M267.41,82.09c0.24-0.35,0.36-0.84,0.36-1.47
						s-0.12-1.12-0.36-1.47c-0.23-0.34-0.6-0.51-1.1-0.51s-0.87,0.17-1.12,0.51s-0.37,0.84-0.37,1.48c0,0.63,0.13,1.12,0.37,1.46
						s0.62,0.5,1.12,0.5C266.82,82.59,267.18,82.43,267.41,82.09z"/>
					<path class="st1" d="M228.78,94.59c0,0.42-0.06,0.84-0.19,1.25c-0.11,0.37-0.28,0.71-0.51,0.99c-0.21,0.27-0.48,0.48-0.81,0.65
						c-0.3,0.16-0.66,0.23-1.08,0.23c-0.34,0-0.63-0.05-0.85-0.15c-0.26-0.12-0.47-0.26-0.64-0.43v1.3
						c0.08,0.02,0.15,0.03,0.21,0.04s0.11,0.02,0.15,0.03c0.13,0.02,0.18,0.02,0.18,0.02l0.07,0.01c0.19,0.05,0.29,0.17,0.29,0.37
						v0.68h-3.21V98.9c0-0.2,0.1-0.33,0.29-0.37l0.07-0.01l0.18-0.02l0.35-0.07V92.8l-0.35-0.06c-0.04-0.01-0.07-0.02-0.1-0.02
						c-0.03-0.01-0.05-0.01-0.08-0.01l-0.07-0.01c-0.19-0.05-0.29-0.17-0.29-0.36v-0.69h1.76c0.09,0,0.18,0.02,0.25,0.07
						c0.06,0.04,0.11,0.11,0.13,0.2l0.12,0.55c0.23-0.26,0.51-0.49,0.83-0.67c0.31-0.17,0.68-0.26,1.1-0.26
						c0.34,0,0.64,0.07,0.9,0.2c0.27,0.14,0.51,0.34,0.7,0.6c0.19,0.25,0.35,0.57,0.46,0.96C228.73,93.69,228.78,94.13,228.78,94.59
						z M227.29,94.61c0-0.37-0.03-0.67-0.08-0.9s-0.14-0.43-0.25-0.58c-0.11-0.16-0.24-0.27-0.39-0.34s-0.32-0.1-0.5-0.1
						c-0.31,0-0.57,0.06-0.77,0.19c-0.22,0.13-0.42,0.31-0.6,0.54v2.69c0.16,0.19,0.33,0.33,0.54,0.42
						c0.18,0.08,0.39,0.12,0.62,0.12s0.43-0.04,0.6-0.12c0.16-0.07,0.3-0.19,0.44-0.37c0.13-0.18,0.23-0.39,0.29-0.63
						C227.26,95.28,227.29,94.98,227.29,94.61z"/>
					<path class="st1" d="M233.9,91.74l-0.19,1.09c-0.01,0.07-0.03,0.12-0.07,0.14c-0.05,0.03-0.1,0.05-0.16,0.05
						c-0.05,0-0.13-0.01-0.23-0.04c-0.14-0.03-0.28-0.05-0.41-0.05c-0.3,0-0.56,0.08-0.77,0.25c-0.2,0.15-0.37,0.39-0.54,0.74v2.57
						l0.58,0.11c0.19,0.05,0.29,0.17,0.29,0.36v0.69h-3.2v-0.69c0-0.19,0.1-0.32,0.29-0.36l0.58-0.11v-3.68l-0.58-0.1
						c-0.19-0.05-0.29-0.17-0.29-0.36v-0.69h1.73c0.15,0,0.25,0.03,0.3,0.08s0.09,0.15,0.12,0.28l0.09,0.72
						c0.21-0.38,0.46-0.67,0.75-0.88c0.3-0.21,0.62-0.32,0.97-0.32C233.47,91.54,233.72,91.61,233.9,91.74z"/>
					<path class="st1" d="M238.44,91.78c0.37,0.15,0.69,0.35,0.93,0.61c0.25,0.26,0.44,0.58,0.58,0.97
						c0.14,0.38,0.21,0.81,0.21,1.27c0,0.47-0.07,0.9-0.21,1.29c-0.15,0.4-0.34,0.72-0.58,0.98c-0.26,0.27-0.57,0.48-0.93,0.62
						c-0.36,0.14-0.76,0.21-1.21,0.21c-0.45,0-0.86-0.07-1.23-0.21s-0.68-0.35-0.93-0.62c-0.27-0.28-0.48-0.61-0.61-0.98
						c-0.14-0.39-0.21-0.82-0.21-1.29s0.07-0.89,0.21-1.27c0.13-0.36,0.33-0.68,0.61-0.97c0.25-0.26,0.56-0.46,0.93-0.61
						c0.38-0.15,0.79-0.22,1.23-0.22C237.65,91.56,238.05,91.63,238.44,91.78z M238.32,96.11c0.24-0.35,0.36-0.84,0.36-1.47
						s-0.12-1.12-0.36-1.47c-0.23-0.34-0.6-0.51-1.1-0.51s-0.87,0.17-1.12,0.51s-0.37,0.84-0.37,1.48c0,0.63,0.13,1.12,0.37,1.46
						c0.24,0.34,0.62,0.5,1.12,0.5C237.72,96.62,238.09,96.45,238.32,96.11z"/>
					<path class="st1" d="M244.9,95.74c0,0.28-0.05,0.55-0.16,0.81c-0.11,0.24-0.26,0.45-0.46,0.63c-0.21,0.19-0.46,0.32-0.75,0.41
						c-0.28,0.1-0.62,0.15-1.03,0.15c-0.35,0-0.7-0.03-1.03-0.09s-0.63-0.14-0.87-0.23v-1.69h0.68c0.14,0,0.23,0.07,0.27,0.22
						c0.02,0.09,0.04,0.32,0.08,0.69c0.21,0.06,0.53,0.09,0.95,0.09c0.16,0,0.31-0.02,0.44-0.06c0.13-0.05,0.23-0.1,0.3-0.16
						c0.09-0.08,0.15-0.15,0.18-0.22c0.03-0.09,0.05-0.18,0.05-0.28c0-0.14-0.04-0.25-0.12-0.34c-0.07-0.08-0.18-0.16-0.34-0.23
						c-0.15-0.07-0.3-0.13-0.47-0.18l-0.55-0.17c-0.13-0.04-0.3-0.11-0.54-0.22c-0.19-0.08-0.35-0.19-0.48-0.32
						c-0.14-0.12-0.25-0.28-0.33-0.47c-0.09-0.2-0.13-0.42-0.13-0.68c0-0.25,0.05-0.48,0.14-0.7c0.09-0.22,0.24-0.41,0.43-0.58
						c0.19-0.17,0.43-0.3,0.71-0.4c0.3-0.1,0.63-0.15,0.97-0.15c0.3,0,0.56,0.02,0.78,0.06c0.23,0.04,0.55,0.13,0.97,0.25h-0.01
						v1.69h-0.67c-0.14,0-0.23-0.07-0.27-0.22c-0.02-0.1-0.05-0.32-0.08-0.65c-0.18-0.05-0.41-0.08-0.7-0.08
						c-0.28,0-0.5,0.06-0.67,0.17c-0.16,0.12-0.25,0.28-0.25,0.48c0,0.12,0.04,0.23,0.13,0.33c0.06,0.07,0.17,0.14,0.33,0.22
						c0.18,0.09,0.33,0.15,0.47,0.19c0.06,0.02,0.24,0.07,0.54,0.16c0.15,0.05,0.33,0.12,0.55,0.22c0.19,0.08,0.34,0.19,0.47,0.3
						c0.14,0.12,0.25,0.26,0.33,0.43C244.86,95.31,244.9,95.51,244.9,95.74z"/>
					<path class="st1" d="M251.61,94.59c0,0.42-0.06,0.84-0.19,1.25c-0.11,0.37-0.28,0.71-0.51,0.99c-0.21,0.27-0.48,0.48-0.81,0.65
						c-0.3,0.16-0.66,0.23-1.08,0.23c-0.34,0-0.63-0.05-0.85-0.15c-0.26-0.12-0.47-0.26-0.64-0.43v1.3c0.08,0.02,0.15,0.03,0.2,0.04
						s0.11,0.02,0.15,0.03c0.12,0.02,0.18,0.02,0.17,0.02l0.07,0.01c0.19,0.05,0.29,0.17,0.29,0.37v0.68h-3.21V98.9
						c0-0.2,0.1-0.33,0.29-0.37l0.07-0.01l0.18-0.02l0.35-0.07V92.8l-0.35-0.06c-0.04-0.01-0.07-0.02-0.1-0.02
						c-0.03-0.01-0.05-0.01-0.08-0.01l-0.07-0.01c-0.2-0.05-0.29-0.17-0.29-0.36v-0.69h1.76c0.09,0,0.18,0.02,0.25,0.07
						c0.06,0.04,0.1,0.11,0.13,0.2l0.12,0.55c0.23-0.26,0.51-0.49,0.83-0.67c0.31-0.17,0.68-0.26,1.1-0.26c0.34,0,0.64,0.07,0.9,0.2
						c0.27,0.14,0.51,0.34,0.7,0.6c0.19,0.25,0.35,0.57,0.46,0.96C251.55,93.69,251.61,94.13,251.61,94.59z M250.11,94.61
						c0-0.37-0.03-0.67-0.08-0.9s-0.14-0.43-0.25-0.58c-0.11-0.16-0.24-0.27-0.39-0.34s-0.32-0.1-0.5-0.1
						c-0.31,0-0.57,0.06-0.77,0.19c-0.22,0.13-0.42,0.31-0.6,0.54v2.69c0.16,0.19,0.33,0.33,0.54,0.42
						c0.18,0.08,0.39,0.12,0.62,0.12s0.43-0.04,0.6-0.12c0.16-0.07,0.3-0.19,0.44-0.37c0.13-0.18,0.23-0.39,0.29-0.63
						C250.08,95.28,250.11,94.98,250.11,94.61z"/>
					<path class="st1" d="M255.89,91.73c0.3,0.11,0.57,0.29,0.82,0.54c0.23,0.23,0.4,0.51,0.54,0.85c0.13,0.35,0.2,0.73,0.2,1.15
						c0,0.09-0.01,0.19-0.02,0.28c-0.02,0.09-0.03,0.14-0.05,0.16c-0.02,0.04-0.05,0.07-0.11,0.09c-0.03,0.02-0.09,0.02-0.16,0.02
						h-3.7c0.05,0.62,0.21,1.07,0.5,1.36s0.67,0.43,1.14,0.43c0.24,0,0.44-0.03,0.6-0.08c0.17-0.05,0.32-0.12,0.44-0.19
						c0.05-0.03,0.11-0.06,0.17-0.09s0.11-0.06,0.17-0.09c0.09-0.05,0.18-0.08,0.27-0.08c0.06,0,0.12,0.01,0.16,0.03
						s0.07,0.05,0.11,0.09l0.42,0.53c-0.18,0.2-0.36,0.36-0.54,0.48c-0.21,0.13-0.42,0.23-0.62,0.3c-0.2,0.06-0.42,0.11-0.67,0.15
						c-0.2,0.03-0.41,0.05-0.65,0.05c-0.43,0-0.81-0.07-1.16-0.2c-0.34-0.13-0.65-0.34-0.93-0.62c-0.26-0.26-0.48-0.6-0.63-1
						c-0.15-0.39-0.22-0.85-0.22-1.39c0-0.39,0.07-0.77,0.2-1.14c0.12-0.35,0.32-0.67,0.57-0.95c0.24-0.26,0.54-0.47,0.9-0.63
						c0.36-0.16,0.76-0.23,1.21-0.23C255.23,91.56,255.58,91.61,255.89,91.73z M253.9,92.95c-0.23,0.23-0.39,0.57-0.46,1h2.71
						c0-0.16-0.03-0.34-0.08-0.53c-0.05-0.15-0.12-0.29-0.23-0.43c-0.1-0.13-0.23-0.22-0.4-0.29c-0.18-0.08-0.37-0.12-0.56-0.12
						C254.46,92.58,254.14,92.71,253.9,92.95z"/>
					<path class="st1" d="M262.33,97.22c-0.16,0.1-0.35,0.2-0.58,0.3c-0.17,0.06-0.38,0.11-0.62,0.15c-0.19,0.03-0.4,0.05-0.64,0.05
						c-0.38,0-0.73-0.07-1.04-0.2c-0.33-0.14-0.61-0.34-0.85-0.61c-0.26-0.28-0.45-0.6-0.58-0.97c-0.14-0.39-0.21-0.83-0.21-1.32
						c0-0.44,0.06-0.85,0.19-1.22s0.32-0.7,0.56-0.98c0.24-0.27,0.55-0.49,0.91-0.64c0.37-0.16,0.79-0.23,1.25-0.23
						c0.5,0,1.13,0.14,1.89,0.43l-0.01,1.85h-0.67c-0.14,0-0.23-0.07-0.27-0.22l-0.09-0.84c-0.29-0.08-0.54-0.12-0.77-0.12
						c-0.26,0-0.48,0.05-0.67,0.14c-0.2,0.09-0.35,0.22-0.47,0.39c-0.14,0.2-0.24,0.41-0.29,0.63c-0.06,0.27-0.09,0.54-0.09,0.82
						c0,0.32,0.04,0.6,0.11,0.85c0.07,0.26,0.17,0.47,0.29,0.63c0.13,0.16,0.29,0.29,0.47,0.39c0.19,0.09,0.4,0.13,0.62,0.13
						c0.24,0,0.43-0.03,0.56-0.08c0.17-0.07,0.29-0.13,0.36-0.19c0.04-0.03,0.08-0.06,0.12-0.09s0.09-0.06,0.13-0.1
						c0.06-0.05,0.14-0.08,0.23-0.08c0.12,0,0.21,0.04,0.27,0.13l0.41,0.53C262.66,96.95,262.49,97.11,262.33,97.22z"/>
					<path class="st1" d="M264.45,97.29c-0.28-0.3-0.42-0.7-0.42-1.21v-3.34h-0.61c-0.06,0-0.13-0.03-0.2-0.08
						c-0.06-0.05-0.09-0.12-0.09-0.22v-0.58l0.97-0.15l0.3-1.64c0.01-0.07,0.04-0.13,0.11-0.17c0.06-0.05,0.14-0.07,0.22-0.07h0.75
						v1.89h1.58v1.03h-1.58V96c0,0.18,0.05,0.32,0.14,0.43c0.09,0.1,0.22,0.15,0.37,0.15c0.11,0,0.18-0.01,0.22-0.02l0.15-0.07
						l0.13-0.07c0.02-0.02,0.05-0.02,0.09-0.02c0.06,0,0.1,0.01,0.12,0.02l0.08,0.09l0.43,0.7c-0.2,0.16-0.44,0.3-0.72,0.4
						c-0.27,0.09-0.55,0.14-0.84,0.14C265.13,97.74,264.73,97.59,264.45,97.29z"/>
					<path class="st1" d="M270.78,96.95v0.69h-3.21v-0.69c0-0.19,0.1-0.32,0.29-0.36l0.07-0.01l0.18-0.04l0.35-0.06V92.8l-0.35-0.06
						c-0.04-0.01-0.07-0.02-0.1-0.02c-0.03-0.01-0.05-0.01-0.08-0.01l-0.07-0.01c-0.2-0.05-0.29-0.17-0.29-0.36v-0.69h2.33v4.84
						l0.35,0.06c0.04,0.01,0.07,0.02,0.1,0.02s0.05,0.01,0.08,0.01l0.07,0.01C270.68,96.64,270.78,96.76,270.78,96.95z
						 M270.03,90.25c-0.05,0.11-0.11,0.21-0.2,0.29c-0.09,0.09-0.19,0.16-0.29,0.2c-0.12,0.05-0.24,0.07-0.36,0.07
						c-0.13,0-0.25-0.02-0.36-0.07c-0.09-0.04-0.19-0.1-0.28-0.2c-0.09-0.09-0.15-0.18-0.2-0.29s-0.07-0.23-0.07-0.35
						c0-0.13,0.02-0.25,0.07-0.36c0.04-0.1,0.11-0.2,0.2-0.29c0.08-0.09,0.18-0.15,0.28-0.19c0.14-0.05,0.26-0.08,0.36-0.08
						c0.1,0,0.22,0.03,0.36,0.08c0.12,0.05,0.21,0.11,0.29,0.19c0.09,0.09,0.16,0.19,0.2,0.29c0.05,0.13,0.08,0.25,0.08,0.36
						S270.09,90.12,270.03,90.25z"/>
					<path class="st1" d="M277.98,92.34c0,0.19-0.1,0.32-0.29,0.36c-0.03,0-0.08,0.01-0.14,0.02c-0.06,0.02-0.2,0.04-0.41,0.08
						l-1.93,4.84h-1.31l-1.93-4.84c-0.4-0.08-0.58-0.11-0.55-0.1c-0.2-0.05-0.29-0.17-0.29-0.36v-0.69h2.92v0.69
						c0,0.19-0.1,0.32-0.29,0.36l-0.33,0.06l0.85,2.36c0.04,0.11,0.09,0.29,0.16,0.55c0.05,0.21,0.1,0.39,0.13,0.54
						c0.05-0.26,0.09-0.44,0.12-0.54c0.05-0.19,0.11-0.37,0.18-0.55l0.86-2.35c-0.15-0.02-0.24-0.04-0.29-0.05
						c-0.04-0.01-0.08-0.02-0.1-0.02c-0.19-0.05-0.29-0.17-0.29-0.36v-0.69h2.92v0.69H277.98z"/>
					<path class="st1" d="M284.03,96.94v0.69h-1.38c-0.15,0-0.26-0.02-0.33-0.06c-0.08-0.03-0.14-0.12-0.18-0.26l-0.13-0.42
						c-0.16,0.15-0.3,0.27-0.44,0.36c-0.11,0.08-0.26,0.16-0.46,0.26c-0.14,0.06-0.3,0.11-0.49,0.15c-0.2,0.04-0.39,0.06-0.58,0.06
						c-0.26,0-0.49-0.04-0.7-0.11c-0.23-0.08-0.41-0.18-0.55-0.3c-0.16-0.15-0.28-0.32-0.36-0.51c-0.09-0.21-0.13-0.44-0.13-0.7
						c0-0.23,0.06-0.46,0.17-0.68c0.12-0.23,0.32-0.42,0.6-0.6c0.3-0.19,0.66-0.33,1.1-0.44c0.46-0.12,1.03-0.18,1.72-0.18v-0.35
						c0-0.39-0.09-0.69-0.26-0.9c-0.16-0.2-0.41-0.29-0.74-0.29c-0.25,0-0.44,0.03-0.58,0.08c-0.18,0.07-0.32,0.13-0.41,0.19
						l-0.32,0.17c-0.09,0.05-0.19,0.08-0.32,0.08c-0.1,0-0.19-0.02-0.26-0.07c-0.05-0.03-0.1-0.09-0.16-0.19l-0.27-0.46
						c0.7-0.64,1.53-0.96,2.49-0.96c0.35,0,0.67,0.06,0.95,0.17c0.27,0.12,0.5,0.28,0.69,0.48c0.21,0.24,0.36,0.49,0.44,0.74
						c0.09,0.28,0.14,0.59,0.14,0.93v2.65l0.32,0.06l0.13,0.02C283.93,96.63,284.03,96.75,284.03,96.94z M280.84,95.17
						c-0.29,0.06-0.52,0.13-0.69,0.21s-0.29,0.17-0.36,0.28c-0.07,0.1-0.1,0.22-0.1,0.36c0,0.26,0.07,0.45,0.22,0.55
						c0.16,0.11,0.35,0.16,0.58,0.16c0.15,0,0.28-0.01,0.41-0.04c0.13-0.02,0.25-0.07,0.36-0.13c0.14-0.08,0.25-0.14,0.32-0.2
						c0.11-0.09,0.21-0.18,0.32-0.28v-1C281.46,95.09,281.11,95.11,280.84,95.17z"/>
					<path class="st2" d="M232.97,111.64c-0.09,0-0.16-0.02-0.23-0.07c-0.06-0.04-0.11-0.1-0.13-0.2l-0.12-0.55
						c-0.23,0.27-0.51,0.49-0.83,0.67c-0.31,0.17-0.68,0.26-1.11,0.26c-0.33,0-0.63-0.07-0.89-0.2c-0.27-0.14-0.51-0.34-0.7-0.6
						c-0.2-0.25-0.35-0.57-0.46-0.96c-0.11-0.4-0.16-0.83-0.16-1.31c0-0.44,0.06-0.86,0.18-1.24c0.11-0.36,0.28-0.69,0.53-0.99
						c0.21-0.26,0.48-0.48,0.81-0.65c0.31-0.16,0.67-0.25,1.06-0.25c0.33,0,0.62,0.05,0.86,0.16c0.26,0.12,0.47,0.26,0.63,0.42v-2
						l-0.34-0.06c-0.04-0.01-0.07-0.02-0.1-0.02c-0.03-0.01-0.05-0.01-0.08-0.01l-0.07-0.01c-0.19-0.05-0.29-0.17-0.29-0.36v-0.69
						h2.33v7.51l0.3,0.05l0.15,0.04l0.07,0.01c0.19,0.05,0.29,0.17,0.29,0.36v0.69L232.97,111.64L232.97,111.64z M231.88,106.78
						c-0.21-0.08-0.42-0.13-0.63-0.13c-0.2,0-0.4,0.04-0.58,0.13c-0.17,0.08-0.32,0.2-0.46,0.37c-0.12,0.16-0.21,0.37-0.28,0.63
						c-0.06,0.23-0.09,0.53-0.09,0.9s0.03,0.67,0.08,0.9s0.14,0.43,0.25,0.58c0.11,0.16,0.23,0.28,0.37,0.34
						c0.15,0.07,0.32,0.11,0.51,0.11c0.31,0,0.57-0.06,0.77-0.19c0.22-0.13,0.42-0.31,0.6-0.54v-2.69
						C232.26,107.01,232.08,106.87,231.88,106.78z"/>
					<path class="st2" d="M239.23,105.8c0.37,0.15,0.69,0.35,0.93,0.61c0.25,0.26,0.44,0.58,0.58,0.97
						c0.14,0.38,0.21,0.81,0.21,1.27c0,0.47-0.07,0.9-0.21,1.29c-0.15,0.4-0.34,0.72-0.58,0.98c-0.26,0.27-0.57,0.48-0.93,0.62
						c-0.36,0.14-0.76,0.21-1.21,0.21c-0.45,0-0.86-0.07-1.23-0.21s-0.68-0.35-0.93-0.62c-0.27-0.28-0.48-0.61-0.61-0.98
						c-0.14-0.39-0.21-0.82-0.21-1.29s0.07-0.89,0.21-1.27c0.13-0.36,0.33-0.68,0.61-0.97c0.25-0.26,0.56-0.46,0.93-0.61
						c0.38-0.15,0.79-0.22,1.23-0.22C238.44,105.58,238.85,105.65,239.23,105.8z M239.11,110.14c0.24-0.35,0.36-0.84,0.36-1.47
						s-0.12-1.12-0.36-1.47c-0.23-0.34-0.6-0.51-1.1-0.51s-0.87,0.17-1.12,0.51s-0.37,0.84-0.37,1.48c0,0.63,0.13,1.12,0.37,1.46
						c0.24,0.34,0.62,0.5,1.12,0.5S238.88,110.47,239.11,110.14z"/>
					<path class="st2" d="M245.69,109.76c0,0.28-0.05,0.55-0.16,0.81c-0.11,0.24-0.26,0.45-0.46,0.63
						c-0.21,0.19-0.46,0.32-0.75,0.41c-0.28,0.1-0.62,0.15-1.03,0.15c-0.35,0-0.7-0.03-1.03-0.09s-0.63-0.14-0.87-0.23v-1.69h0.68
						c0.14,0,0.23,0.07,0.27,0.22c0.02,0.09,0.04,0.32,0.08,0.69c0.21,0.06,0.53,0.09,0.95,0.09c0.16,0,0.31-0.02,0.44-0.06
						c0.13-0.05,0.23-0.1,0.3-0.16c0.09-0.08,0.15-0.15,0.18-0.22c0.03-0.09,0.05-0.18,0.05-0.28c0-0.14-0.04-0.25-0.12-0.34
						c-0.07-0.08-0.18-0.16-0.34-0.23c-0.15-0.07-0.3-0.13-0.47-0.18l-0.55-0.17c-0.13-0.04-0.3-0.11-0.54-0.22
						c-0.19-0.08-0.35-0.19-0.48-0.32c-0.14-0.12-0.25-0.28-0.33-0.47c-0.09-0.2-0.13-0.42-0.13-0.68c0-0.25,0.05-0.48,0.14-0.7
						c0.09-0.22,0.24-0.41,0.43-0.58c0.19-0.17,0.43-0.3,0.71-0.4c0.3-0.1,0.63-0.15,0.97-0.15c0.3,0,0.56,0.02,0.78,0.06
						c0.23,0.04,0.55,0.13,0.97,0.25h-0.01v1.69h-0.67c-0.14,0-0.23-0.07-0.27-0.22c-0.02-0.1-0.05-0.32-0.08-0.65
						c-0.18-0.05-0.41-0.08-0.7-0.08c-0.28,0-0.5,0.06-0.67,0.17c-0.16,0.12-0.25,0.28-0.25,0.48c0,0.12,0.04,0.23,0.13,0.33
						c0.06,0.07,0.17,0.14,0.33,0.22c0.18,0.09,0.33,0.15,0.47,0.19c0.06,0.02,0.24,0.07,0.54,0.16c0.15,0.05,0.33,0.12,0.55,0.22
						c0.19,0.08,0.34,0.19,0.47,0.3c0.14,0.12,0.25,0.26,0.33,0.43C245.65,109.33,245.69,109.54,245.69,109.76z"/>
					<path class="st2" d="M253.48,105.77l-0.19,1.09c-0.01,0.07-0.03,0.12-0.07,0.14c-0.05,0.03-0.1,0.05-0.16,0.05
						c-0.05,0-0.13-0.01-0.23-0.04c-0.14-0.03-0.28-0.05-0.41-0.05c-0.3,0-0.56,0.08-0.77,0.25c-0.2,0.15-0.37,0.39-0.54,0.74v2.57
						l0.58,0.11c0.19,0.05,0.29,0.17,0.29,0.36v0.69h-3.2v-0.69c0-0.19,0.1-0.32,0.29-0.36l0.58-0.11v-3.68l-0.58-0.1
						c-0.19-0.05-0.29-0.17-0.29-0.36v-0.69h1.73c0.15,0,0.25,0.03,0.3,0.08s0.09,0.15,0.12,0.28l0.09,0.72
						c0.21-0.38,0.46-0.67,0.75-0.88c0.3-0.21,0.62-0.32,0.97-0.32C253.04,105.57,253.29,105.63,253.48,105.77z"/>
					<path class="st2" d="M257.06,110.98v0.69h-3.21v-0.69c0-0.19,0.1-0.32,0.29-0.36l0.07-0.01l0.18-0.04l0.35-0.06v-3.68
						l-0.35-0.06c-0.04-0.01-0.07-0.02-0.1-0.02c-0.03-0.01-0.05-0.01-0.08-0.01l-0.07-0.01c-0.2-0.05-0.29-0.17-0.29-0.36v-0.69
						h2.33v4.84l0.35,0.06c0.04,0.01,0.07,0.02,0.1,0.02s0.05,0.01,0.08,0.01l0.07,0.01C256.96,110.66,257.06,110.78,257.06,110.98z
						 M256.31,104.27c-0.05,0.11-0.11,0.21-0.2,0.29c-0.09,0.09-0.19,0.16-0.29,0.2c-0.12,0.05-0.24,0.07-0.36,0.07
						c-0.13,0-0.25-0.02-0.36-0.07c-0.09-0.04-0.19-0.1-0.28-0.2c-0.09-0.09-0.15-0.18-0.2-0.29s-0.07-0.23-0.07-0.35
						c0-0.13,0.02-0.25,0.07-0.36c0.04-0.1,0.11-0.2,0.2-0.29c0.08-0.09,0.18-0.15,0.28-0.19c0.14-0.05,0.26-0.08,0.36-0.08
						s0.22,0.03,0.36,0.08c0.12,0.05,0.21,0.11,0.29,0.19c0.09,0.09,0.16,0.19,0.2,0.29c0.05,0.13,0.08,0.25,0.08,0.36
						S256.37,104.15,256.31,104.27z"/>
					<path class="st2" d="M261.81,109.76c0,0.28-0.05,0.55-0.16,0.81c-0.11,0.24-0.26,0.45-0.46,0.63
						c-0.21,0.19-0.46,0.32-0.75,0.41c-0.28,0.1-0.62,0.15-1.03,0.15c-0.35,0-0.7-0.03-1.03-0.09s-0.63-0.14-0.87-0.23v-1.69h0.68
						c0.14,0,0.23,0.07,0.27,0.22c0.02,0.09,0.04,0.32,0.08,0.69c0.21,0.06,0.53,0.09,0.95,0.09c0.16,0,0.31-0.02,0.44-0.06
						c0.13-0.05,0.23-0.1,0.3-0.16c0.09-0.08,0.15-0.15,0.18-0.22c0.03-0.09,0.05-0.18,0.05-0.28c0-0.14-0.04-0.25-0.12-0.34
						c-0.07-0.08-0.18-0.16-0.34-0.23c-0.15-0.07-0.3-0.13-0.47-0.18l-0.55-0.17c-0.13-0.04-0.3-0.11-0.54-0.22
						c-0.19-0.08-0.35-0.19-0.48-0.32c-0.14-0.12-0.25-0.28-0.33-0.47c-0.09-0.2-0.13-0.42-0.13-0.68c0-0.25,0.05-0.48,0.14-0.7
						c0.09-0.22,0.24-0.41,0.43-0.58s0.43-0.3,0.71-0.4c0.3-0.1,0.63-0.15,0.97-0.15c0.3,0,0.56,0.02,0.78,0.06
						c0.23,0.04,0.55,0.13,0.97,0.25h-0.01v1.69h-0.67c-0.14,0-0.23-0.07-0.27-0.22c-0.02-0.1-0.05-0.32-0.08-0.65
						c-0.18-0.05-0.41-0.08-0.7-0.08c-0.28,0-0.5,0.06-0.67,0.17c-0.16,0.12-0.25,0.28-0.25,0.48c0,0.12,0.04,0.23,0.13,0.33
						c0.06,0.07,0.17,0.14,0.33,0.22c0.18,0.09,0.33,0.15,0.47,0.19c0.06,0.02,0.24,0.07,0.54,0.16c0.15,0.05,0.33,0.12,0.55,0.22
						c0.19,0.08,0.34,0.19,0.47,0.3c0.14,0.12,0.25,0.26,0.33,0.43C261.76,109.33,261.81,109.54,261.81,109.76z"/>
					<path class="st2" d="M266.67,111.25c-0.16,0.1-0.35,0.2-0.58,0.3c-0.17,0.06-0.38,0.11-0.62,0.15
						c-0.19,0.03-0.4,0.05-0.64,0.05c-0.38,0-0.73-0.07-1.04-0.2c-0.33-0.14-0.61-0.34-0.85-0.61c-0.26-0.28-0.45-0.6-0.58-0.97
						c-0.14-0.39-0.21-0.83-0.21-1.32c0-0.44,0.06-0.85,0.19-1.22s0.32-0.7,0.56-0.98c0.24-0.27,0.55-0.49,0.91-0.64
						c0.37-0.16,0.79-0.23,1.25-0.23c0.5,0,1.13,0.14,1.89,0.43l-0.01,1.85h-0.67c-0.14,0-0.23-0.07-0.27-0.22l-0.09-0.84
						c-0.29-0.08-0.54-0.12-0.77-0.12c-0.26,0-0.48,0.05-0.67,0.14c-0.2,0.09-0.35,0.22-0.47,0.39c-0.14,0.2-0.24,0.41-0.29,0.63
						c-0.06,0.27-0.09,0.54-0.09,0.82c0,0.32,0.04,0.6,0.11,0.85c0.07,0.26,0.17,0.47,0.29,0.63c0.13,0.16,0.29,0.29,0.47,0.39
						c0.19,0.09,0.4,0.13,0.62,0.13c0.24,0,0.43-0.03,0.56-0.08c0.17-0.07,0.29-0.13,0.36-0.19c0.04-0.03,0.08-0.06,0.12-0.09
						s0.09-0.06,0.13-0.1c0.06-0.05,0.14-0.08,0.23-0.08c0.12,0,0.21,0.04,0.27,0.13l0.41,0.53
						C266.99,110.98,266.82,111.14,266.67,111.25z"/>
					<path class="st2" d="M271.69,105.8c0.37,0.15,0.69,0.35,0.93,0.61c0.25,0.26,0.44,0.58,0.58,0.97
						c0.14,0.38,0.21,0.81,0.21,1.27c0,0.47-0.07,0.9-0.21,1.29c-0.15,0.4-0.34,0.72-0.58,0.98c-0.26,0.27-0.57,0.48-0.93,0.62
						s-0.76,0.21-1.21,0.21c-0.45,0-0.86-0.07-1.23-0.21c-0.37-0.14-0.68-0.35-0.93-0.62c-0.27-0.28-0.48-0.61-0.61-0.98
						c-0.14-0.39-0.21-0.82-0.21-1.29s0.07-0.89,0.21-1.27c0.13-0.36,0.33-0.68,0.61-0.97c0.25-0.26,0.56-0.46,0.93-0.61
						c0.38-0.15,0.79-0.22,1.23-0.22C270.9,105.58,271.31,105.65,271.69,105.8z M271.57,110.14c0.24-0.35,0.36-0.84,0.36-1.47
						s-0.12-1.12-0.36-1.47c-0.23-0.34-0.6-0.51-1.1-0.51s-0.87,0.17-1.12,0.51s-0.37,0.84-0.37,1.48c0,0.63,0.13,1.12,0.37,1.46
						s0.62,0.5,1.12,0.5S271.34,110.47,271.57,110.14z"/>
					<path class="st2" d="M278.15,109.76c0,0.28-0.05,0.55-0.16,0.81c-0.11,0.24-0.26,0.45-0.46,0.63
						c-0.21,0.19-0.46,0.32-0.75,0.41c-0.28,0.1-0.62,0.15-1.03,0.15c-0.35,0-0.7-0.03-1.03-0.09s-0.63-0.14-0.87-0.23v-1.69h0.68
						c0.14,0,0.23,0.07,0.27,0.22c0.02,0.09,0.04,0.32,0.08,0.69c0.21,0.06,0.53,0.09,0.95,0.09c0.16,0,0.31-0.02,0.44-0.06
						c0.13-0.05,0.23-0.1,0.3-0.16c0.09-0.08,0.15-0.15,0.18-0.22c0.03-0.09,0.05-0.18,0.05-0.28c0-0.14-0.04-0.25-0.12-0.34
						c-0.07-0.08-0.18-0.16-0.34-0.23c-0.15-0.07-0.3-0.13-0.47-0.18l-0.55-0.17c-0.13-0.04-0.3-0.11-0.54-0.22
						c-0.19-0.08-0.35-0.19-0.48-0.32c-0.14-0.12-0.25-0.28-0.33-0.47c-0.09-0.2-0.13-0.42-0.13-0.68c0-0.25,0.05-0.48,0.14-0.7
						c0.09-0.22,0.24-0.41,0.43-0.58s0.43-0.3,0.71-0.4c0.3-0.1,0.63-0.15,0.97-0.15c0.3,0,0.56,0.02,0.78,0.06
						c0.23,0.04,0.55,0.13,0.97,0.25h-0.01v1.69h-0.67c-0.14,0-0.23-0.07-0.27-0.22c-0.02-0.1-0.05-0.32-0.08-0.65
						c-0.18-0.05-0.41-0.08-0.7-0.08c-0.28,0-0.5,0.06-0.67,0.17c-0.16,0.12-0.25,0.28-0.25,0.48c0,0.12,0.04,0.23,0.13,0.33
						c0.06,0.07,0.17,0.14,0.33,0.22c0.18,0.09,0.33,0.15,0.47,0.19c0.06,0.02,0.24,0.07,0.54,0.16c0.15,0.05,0.33,0.12,0.55,0.22
						c0.19,0.08,0.34,0.19,0.47,0.3c0.14,0.12,0.25,0.26,0.33,0.43C278.11,109.33,278.15,109.54,278.15,109.76z"/>
				</g>
			</g>
			<g>
				<g>
					<path class="st2" d="M222.53,127.09c-0.1-0.02-0.2-0.03-0.32-0.03c-0.29,0-0.54,0.08-0.74,0.24c-0.2,0.16-0.35,0.4-0.43,0.71
						v2.9h-0.46v-4.23h0.46l0.01,0.67c0.25-0.5,0.64-0.75,1.19-0.75c0.13,0,0.23,0.02,0.31,0.05L222.53,127.09z"/>
					<path class="st2" d="M224.83,131c-0.36,0-0.68-0.09-0.97-0.27c-0.29-0.18-0.52-0.42-0.68-0.74c-0.16-0.32-0.24-0.67-0.24-1.06
						v-0.17c0-0.41,0.08-0.77,0.24-1.1s0.38-0.58,0.66-0.77s0.59-0.28,0.91-0.28c0.51,0,0.92,0.17,1.22,0.53s0.45,0.83,0.45,1.44
						v0.26h-3.02v0.09c0,0.48,0.14,0.88,0.41,1.2c0.28,0.32,0.62,0.48,1.04,0.48c0.25,0,0.47-0.05,0.66-0.14s0.37-0.24,0.52-0.44
						l0.29,0.22C225.98,130.75,225.49,131,224.83,131z M224.75,127.01c-0.35,0-0.65,0.13-0.89,0.39s-0.39,0.6-0.44,1.04h2.54v-0.05
						c-0.01-0.41-0.13-0.74-0.35-0.99S225.1,127.01,224.75,127.01z"/>
					<path class="st2" d="M227.14,128.77c0-0.66,0.15-1.18,0.44-1.57s0.69-0.58,1.19-0.58c0.57,0,1.01,0.23,1.3,0.68v-2.37h0.46v6
						h-0.44l-0.02-0.56c-0.3,0.43-0.74,0.64-1.32,0.64c-0.49,0-0.88-0.2-1.18-0.59c-0.3-0.39-0.45-0.92-0.45-1.59v-0.06H227.14z
						 M227.61,128.85c0,0.54,0.11,0.96,0.32,1.28c0.22,0.31,0.52,0.47,0.91,0.47c0.58,0,0.98-0.25,1.23-0.76v-1.98
						c-0.24-0.55-0.65-0.82-1.22-0.82c-0.39,0-0.7,0.15-0.92,0.46S227.61,128.25,227.61,128.85z"/>
					<path class="st2" d="M234.49,130.38c-0.28,0.41-0.73,0.61-1.35,0.61c-0.45,0-0.79-0.13-1.03-0.39s-0.35-0.65-0.36-1.16v-2.75
						h0.46v2.69c0,0.8,0.33,1.21,0.98,1.21c0.68,0,1.11-0.28,1.29-0.84v-3.06h0.47v4.23h-0.45L234.49,130.38z"/>
					<path class="st2" d="M237.73,130.6c0.33,0,0.6-0.09,0.82-0.28c0.22-0.18,0.34-0.42,0.36-0.71h0.45
						c-0.01,0.26-0.09,0.49-0.24,0.71s-0.35,0.38-0.59,0.5s-0.51,0.18-0.79,0.18c-0.55,0-0.99-0.19-1.32-0.58s-0.49-0.9-0.49-1.55
						v-0.14c0-0.42,0.07-0.79,0.22-1.11s0.36-0.57,0.63-0.74s0.59-0.26,0.96-0.26c0.46,0,0.85,0.14,1.15,0.41s0.46,0.64,0.48,1.09
						h-0.45c-0.02-0.33-0.14-0.6-0.36-0.8c-0.22-0.2-0.49-0.3-0.82-0.3c-0.42,0-0.75,0.15-0.98,0.46c-0.23,0.3-0.35,0.73-0.35,1.28
						v0.14c0,0.54,0.12,0.96,0.35,1.26C236.98,130.45,237.31,130.6,237.73,130.6z M237.86,130.95l-0.05,0.25
						c0.43,0.05,0.64,0.28,0.64,0.67c0,0.24-0.1,0.43-0.31,0.57c-0.21,0.14-0.49,0.21-0.84,0.21l-0.03-0.3
						c0.23,0,0.42-0.04,0.57-0.13c0.15-0.08,0.22-0.2,0.22-0.34c0-0.15-0.06-0.25-0.17-0.31s-0.29-0.1-0.52-0.12l0.11-0.5
						L237.86,130.95L237.86,130.95z"/>
					<path class="st2" d="M242.96,130.92c-0.05-0.13-0.08-0.33-0.09-0.59c-0.16,0.21-0.37,0.38-0.63,0.49s-0.52,0.17-0.81,0.17
						c-0.41,0-0.73-0.11-0.99-0.34c-0.25-0.23-0.38-0.51-0.38-0.86c0-0.41,0.17-0.74,0.51-0.98c0.34-0.24,0.82-0.36,1.43-0.36h0.85
						v-0.48c0-0.3-0.09-0.54-0.28-0.71s-0.46-0.26-0.81-0.26c-0.33,0-0.59,0.08-0.81,0.25c-0.21,0.17-0.32,0.37-0.32,0.6h-0.47
						c0-0.34,0.16-0.63,0.47-0.87s0.7-0.37,1.15-0.37c0.47,0,0.84,0.12,1.12,0.35c0.27,0.24,0.41,0.56,0.42,0.99v2
						c0,0.41,0.04,0.71,0.13,0.92v0.05H242.96z M241.49,130.58c0.31,0,0.59-0.08,0.84-0.23s0.43-0.35,0.54-0.61v-0.93h-0.84
						c-0.47,0-0.83,0.09-1.09,0.26s-0.39,0.39-0.39,0.68c0,0.24,0.09,0.43,0.26,0.59S241.21,130.58,241.49,130.58z M243.27,125.09
						c0,0.25-0.07,0.45-0.22,0.6s-0.33,0.23-0.54,0.23c-0.2,0-0.39-0.07-0.58-0.21s-0.36-0.21-0.51-0.21
						c-0.12,0-0.22,0.04-0.31,0.12s-0.12,0.19-0.12,0.34l-0.35-0.01c0-0.24,0.07-0.44,0.21-0.59c0.14-0.16,0.33-0.23,0.55-0.23
						c0.13,0,0.23,0.02,0.32,0.07c0.09,0.04,0.17,0.09,0.25,0.15s0.16,0.1,0.24,0.15c0.08,0.04,0.17,0.07,0.28,0.07
						c0.12,0,0.22-0.04,0.31-0.13c0.08-0.09,0.13-0.2,0.13-0.35L243.27,125.09z"/>
					<path class="st2" d="M244.32,128.74c0-0.41,0.08-0.77,0.24-1.1s0.38-0.58,0.67-0.76s0.61-0.27,0.98-0.27
						c0.56,0,1.02,0.2,1.37,0.59c0.35,0.39,0.52,0.92,0.52,1.57v0.1c0,0.41-0.08,0.78-0.24,1.1c-0.16,0.33-0.38,0.58-0.67,0.76
						s-0.61,0.27-0.98,0.27c-0.56,0-1.01-0.2-1.37-0.59c-0.35-0.39-0.53-0.92-0.53-1.57L244.32,128.74L244.32,128.74z
						 M244.79,128.87c0,0.5,0.13,0.92,0.39,1.24s0.61,0.49,1.03,0.49s0.76-0.16,1.03-0.49s0.39-0.75,0.39-1.28v-0.09
						c0-0.32-0.06-0.62-0.18-0.89c-0.12-0.27-0.29-0.48-0.5-0.62c-0.22-0.15-0.46-0.22-0.74-0.22c-0.42,0-0.76,0.16-1.02,0.49
						c-0.26,0.33-0.39,0.75-0.39,1.28L244.79,128.87L244.79,128.87z"/>
					<path class="st2" d="M250.81,128.77c0-0.66,0.15-1.18,0.44-1.57s0.69-0.58,1.19-0.58c0.57,0,1.01,0.23,1.3,0.68v-2.37h0.46v6
						h-0.44l-0.02-0.56c-0.3,0.43-0.74,0.64-1.32,0.64c-0.49,0-0.88-0.2-1.18-0.59c-0.3-0.39-0.45-0.92-0.45-1.59v-0.06H250.81z
						 M251.29,128.85c0,0.54,0.11,0.96,0.32,1.28c0.22,0.31,0.52,0.47,0.91,0.47c0.58,0,0.98-0.25,1.23-0.76v-1.98
						c-0.24-0.55-0.65-0.82-1.22-0.82c-0.39,0-0.7,0.15-0.92,0.46S251.29,128.25,251.29,128.85z"/>
					<path class="st2" d="M255.19,128.74c0-0.41,0.08-0.77,0.24-1.1s0.38-0.58,0.67-0.76c0.29-0.18,0.61-0.27,0.98-0.27
						c0.56,0,1.02,0.2,1.37,0.59s0.52,0.92,0.52,1.57v0.1c0,0.41-0.08,0.78-0.24,1.1c-0.16,0.33-0.38,0.58-0.67,0.76
						s-0.61,0.27-0.98,0.27c-0.56,0-1.01-0.2-1.37-0.59c-0.35-0.39-0.53-0.92-0.53-1.57v-0.1H255.19z M255.66,128.87
						c0,0.5,0.13,0.92,0.39,1.24s0.61,0.49,1.03,0.49s0.76-0.16,1.03-0.49s0.39-0.75,0.39-1.28v-0.09c0-0.32-0.06-0.62-0.18-0.89
						c-0.12-0.27-0.29-0.48-0.5-0.62c-0.22-0.15-0.46-0.22-0.74-0.22c-0.42,0-0.76,0.16-1.02,0.49c-0.26,0.33-0.39,0.75-0.39,1.28
						v0.09H255.66z"/>
					<path class="st2" d="M262.46,129.85c0-0.23-0.09-0.42-0.28-0.56s-0.47-0.25-0.84-0.33s-0.67-0.17-0.87-0.27
						s-0.36-0.23-0.46-0.38c-0.1-0.15-0.15-0.33-0.15-0.54c0-0.33,0.14-0.61,0.42-0.83s0.64-0.33,1.07-0.33
						c0.47,0,0.85,0.12,1.13,0.35s0.43,0.54,0.43,0.91h-0.47c0-0.25-0.1-0.45-0.31-0.62s-0.47-0.25-0.78-0.25s-0.55,0.07-0.74,0.21
						s-0.28,0.31-0.28,0.53c0,0.21,0.08,0.37,0.23,0.49c0.16,0.12,0.44,0.22,0.85,0.32s0.72,0.2,0.92,0.31
						c0.21,0.11,0.36,0.24,0.46,0.39s0.15,0.34,0.15,0.56c0,0.36-0.14,0.64-0.43,0.86c-0.29,0.21-0.66,0.32-1.13,0.32
						c-0.49,0-0.89-0.12-1.2-0.36s-0.46-0.54-0.46-0.9h0.47c0.02,0.27,0.13,0.49,0.35,0.64c0.21,0.15,0.49,0.23,0.84,0.23
						c0.33,0,0.59-0.07,0.79-0.21C262.36,130.24,262.46,130.06,262.46,129.85z"/>
					<path class="st2" d="M267.88,127.09c-0.1-0.02-0.2-0.03-0.32-0.03c-0.29,0-0.54,0.08-0.74,0.24c-0.2,0.16-0.35,0.4-0.43,0.71
						v2.9h-0.46v-4.23h0.46l0.01,0.67c0.25-0.5,0.64-0.75,1.19-0.75c0.13,0,0.23,0.02,0.31,0.05L267.88,127.09z"/>
					<path class="st2" d="M268.59,125.47c0-0.09,0.03-0.16,0.09-0.22s0.14-0.09,0.23-0.09c0.1,0,0.18,0.03,0.24,0.09
						s0.09,0.14,0.09,0.22s-0.03,0.16-0.09,0.22s-0.14,0.09-0.24,0.09c-0.1,0-0.18-0.03-0.23-0.09
						C268.62,125.63,268.59,125.56,268.59,125.47z M269.14,130.92h-0.47v-4.23h0.47V130.92z"/>
					<path class="st2" d="M272.94,129.85c0-0.23-0.09-0.42-0.28-0.56s-0.47-0.25-0.84-0.33s-0.67-0.17-0.87-0.27
						s-0.36-0.23-0.46-0.38c-0.1-0.15-0.15-0.33-0.15-0.54c0-0.33,0.14-0.61,0.42-0.83s0.64-0.33,1.07-0.33
						c0.47,0,0.85,0.12,1.13,0.35s0.43,0.54,0.43,0.91h-0.47c0-0.25-0.1-0.45-0.31-0.62s-0.47-0.25-0.78-0.25s-0.55,0.07-0.74,0.21
						s-0.28,0.31-0.28,0.53c0,0.21,0.08,0.37,0.23,0.49c0.16,0.12,0.44,0.22,0.85,0.32s0.72,0.2,0.92,0.31
						c0.21,0.11,0.36,0.24,0.46,0.39s0.15,0.34,0.15,0.56c0,0.36-0.14,0.64-0.43,0.86c-0.29,0.21-0.66,0.32-1.13,0.32
						c-0.49,0-0.89-0.12-1.2-0.36s-0.46-0.54-0.46-0.9h0.47c0.02,0.27,0.13,0.49,0.35,0.64c0.21,0.15,0.49,0.23,0.84,0.23
						c0.33,0,0.59-0.07,0.79-0.21C272.84,130.24,272.94,130.06,272.94,129.85z"/>
					<path class="st2" d="M276.02,130.6c0.33,0,0.6-0.09,0.82-0.28c0.22-0.18,0.34-0.42,0.36-0.71h0.45
						c-0.01,0.26-0.09,0.49-0.24,0.71s-0.35,0.38-0.59,0.5s-0.51,0.18-0.79,0.18c-0.55,0-0.99-0.19-1.32-0.58s-0.49-0.9-0.49-1.55
						v-0.14c0-0.42,0.07-0.79,0.22-1.11s0.36-0.57,0.63-0.74c0.27-0.17,0.59-0.26,0.96-0.26c0.46,0,0.85,0.14,1.15,0.41
						s0.46,0.64,0.48,1.09h-0.45c-0.02-0.33-0.14-0.6-0.36-0.8c-0.22-0.2-0.49-0.3-0.82-0.3c-0.42,0-0.75,0.15-0.98,0.46
						c-0.23,0.3-0.35,0.73-0.35,1.28v0.14c0,0.54,0.12,0.96,0.35,1.26C275.27,130.45,275.6,130.6,276.02,130.6z"/>
					<path class="st2" d="M278.32,128.74c0-0.41,0.08-0.77,0.24-1.1s0.38-0.58,0.67-0.76s0.61-0.27,0.98-0.27
						c0.56,0,1.02,0.2,1.37,0.59s0.52,0.92,0.52,1.57v0.1c0,0.41-0.08,0.78-0.24,1.1c-0.16,0.33-0.38,0.58-0.67,0.76
						s-0.61,0.27-0.98,0.27c-0.56,0-1.01-0.2-1.37-0.59c-0.35-0.39-0.53-0.92-0.53-1.57v-0.1H278.32z M278.79,128.87
						c0,0.5,0.13,0.92,0.39,1.24s0.61,0.49,1.03,0.49s0.76-0.16,1.03-0.49s0.39-0.75,0.39-1.28v-0.09c0-0.32-0.06-0.62-0.18-0.89
						c-0.12-0.27-0.29-0.48-0.5-0.62c-0.22-0.15-0.46-0.22-0.74-0.22c-0.42,0-0.76,0.16-1.02,0.49c-0.26,0.33-0.39,0.75-0.39,1.28
						v0.09H278.79z"/>
					<path class="st2" d="M285.59,129.85c0-0.23-0.09-0.42-0.28-0.56s-0.47-0.25-0.84-0.33s-0.67-0.17-0.87-0.27
						s-0.36-0.23-0.46-0.38c-0.1-0.15-0.15-0.33-0.15-0.54c0-0.33,0.14-0.61,0.42-0.83s0.64-0.33,1.07-0.33
						c0.47,0,0.85,0.12,1.13,0.35s0.43,0.54,0.43,0.91h-0.47c0-0.25-0.1-0.45-0.31-0.62s-0.47-0.25-0.78-0.25s-0.55,0.07-0.74,0.21
						s-0.28,0.31-0.28,0.53c0,0.21,0.08,0.37,0.23,0.49c0.16,0.12,0.44,0.22,0.85,0.32s0.72,0.2,0.92,0.31
						c0.21,0.11,0.36,0.24,0.46,0.39s0.15,0.34,0.15,0.56c0,0.36-0.14,0.64-0.43,0.86c-0.29,0.21-0.66,0.32-1.13,0.32
						c-0.49,0-0.89-0.12-1.2-0.36s-0.46-0.54-0.46-0.9h0.47c0.02,0.27,0.13,0.49,0.35,0.64c0.21,0.15,0.49,0.23,0.84,0.23
						c0.33,0,0.59-0.07,0.79-0.21C285.49,130.24,285.59,130.06,285.59,129.85z"/>
					<path class="st3" d="M239.95,136.83v0.31h1.21v0.79H240v2.9l0.27,0.04c0.03,0.01,0.06,0.01,0.09,0.02s0.05,0.01,0.08,0.01
						l0.07,0.01c0.15,0.04,0.22,0.13,0.22,0.28v0.53h-2.53v-0.53c0-0.15,0.07-0.24,0.22-0.28c0.02,0,0.04,0,0.06-0.01l0.13-0.03
						l0.26-0.04v-2.89l-0.4-0.06c-0.1-0.02-0.17-0.05-0.22-0.09s-0.07-0.11-0.07-0.19v-0.45h0.68v-0.34c0-0.28,0.04-0.51,0.12-0.71
						c0.09-0.23,0.2-0.41,0.34-0.54c0.16-0.14,0.34-0.25,0.54-0.33c0.21-0.08,0.45-0.12,0.72-0.12c0.22,0,0.41,0.03,0.59,0.08
						l-0.02,0.56c-0.01,0.09-0.05,0.14-0.13,0.16c-0.1,0.02-0.18,0.04-0.26,0.04c-0.14,0-0.26,0.01-0.35,0.04
						c-0.1,0.02-0.18,0.08-0.26,0.15c-0.07,0.07-0.13,0.17-0.16,0.28C239.97,136.55,239.95,136.69,239.95,136.83z"/>
					<path class="st3" d="M246.85,141.19v0.53h-1.36c-0.14,0-0.23-0.07-0.28-0.21l-0.08-0.37c-0.1,0.1-0.2,0.19-0.3,0.27
						c-0.09,0.07-0.2,0.14-0.32,0.2c-0.12,0.05-0.25,0.1-0.38,0.14c-0.15,0.03-0.29,0.04-0.42,0.04c-0.25,0-0.47-0.04-0.67-0.13
						c-0.17-0.07-0.34-0.2-0.49-0.37c-0.12-0.14-0.22-0.32-0.3-0.55c-0.07-0.23-0.1-0.46-0.1-0.71v-2.04l-0.46-0.08
						c-0.15-0.04-0.22-0.13-0.22-0.28v-0.53h1.79v2.93c0,0.28,0.07,0.49,0.2,0.66c0.13,0.15,0.32,0.23,0.58,0.23
						c0.18,0,0.36-0.04,0.54-0.13c0.16-0.08,0.32-0.2,0.48-0.35v-2.45c-0.17-0.03-0.28-0.05-0.33-0.06s-0.09-0.02-0.12-0.02
						c-0.15-0.04-0.22-0.13-0.22-0.28v-0.53h1.79v3.73l0.45,0.08C246.77,140.94,246.85,141.04,246.85,141.19z"/>
					<path class="st3" d="M248.14,141.45c-0.22-0.23-0.32-0.54-0.32-0.94v-2.57h-0.47c-0.05,0-0.1-0.02-0.15-0.06
						c-0.05-0.04-0.07-0.09-0.07-0.17v-0.45l0.75-0.12l0.23-1.26c0.01-0.05,0.03-0.1,0.08-0.13c0.05-0.04,0.11-0.05,0.17-0.05h0.58
						v1.46h1.21v0.79h-1.21v2.5c0,0.14,0.04,0.25,0.11,0.33s0.17,0.12,0.29,0.12c0.08,0,0.14-0.01,0.17-0.02l0.12-0.05l0.1-0.05
						c0.02-0.01,0.04-0.02,0.07-0.02c0.05,0,0.08,0.01,0.09,0.02l0.06,0.07l0.33,0.54c-0.16,0.13-0.34,0.23-0.56,0.31
						c-0.2,0.07-0.42,0.11-0.65,0.11C248.67,141.79,248.36,141.68,248.14,141.45z"/>
					<path class="st3" d="M255.88,141.19v0.53h-1.36c-0.14,0-0.23-0.07-0.28-0.21l-0.08-0.37c-0.1,0.1-0.2,0.19-0.3,0.27
						c-0.09,0.07-0.2,0.14-0.32,0.2c-0.12,0.05-0.25,0.1-0.38,0.14c-0.15,0.03-0.29,0.04-0.42,0.04c-0.25,0-0.47-0.04-0.67-0.13
						c-0.17-0.07-0.34-0.2-0.49-0.37c-0.12-0.14-0.22-0.32-0.3-0.55c-0.07-0.23-0.1-0.46-0.1-0.71v-2.04l-0.46-0.08
						c-0.15-0.04-0.22-0.13-0.22-0.28v-0.53h1.79v2.93c0,0.28,0.07,0.49,0.2,0.66c0.13,0.15,0.32,0.23,0.58,0.23
						c0.18,0,0.36-0.04,0.54-0.13c0.16-0.08,0.32-0.2,0.48-0.35v-2.45c-0.17-0.03-0.28-0.05-0.33-0.06s-0.09-0.02-0.12-0.02
						c-0.15-0.04-0.22-0.13-0.22-0.28v-0.53h1.79v3.73l0.45,0.08C255.81,140.94,255.88,141.04,255.88,141.19z"/>
					<path class="st3" d="M259.85,137.17l-0.14,0.84c-0.01,0.05-0.02,0.09-0.05,0.11c-0.04,0.02-0.08,0.04-0.13,0.04
						c-0.04,0-0.1-0.01-0.18-0.03c-0.11-0.02-0.21-0.04-0.32-0.04c-0.23,0-0.43,0.06-0.59,0.19c-0.15,0.11-0.29,0.3-0.41,0.57v1.98
						l0.45,0.08c0.15,0.04,0.22,0.13,0.22,0.28v0.53h-2.47v-0.53c0-0.15,0.08-0.24,0.22-0.28l0.45-0.08V138l-0.45-0.08
						c-0.15-0.04-0.22-0.13-0.22-0.28v-0.53h1.33c0.11,0,0.19,0.02,0.23,0.06s0.07,0.11,0.09,0.22l0.07,0.56
						c0.16-0.29,0.35-0.52,0.58-0.67c0.23-0.16,0.48-0.24,0.75-0.24C259.52,137.02,259.71,137.07,259.85,137.17z"/>
					<path class="st3" d="M263.34,137.2c0.29,0.11,0.53,0.27,0.72,0.47s0.34,0.45,0.45,0.75c0.11,0.29,0.16,0.62,0.16,0.98
						s-0.05,0.69-0.16,0.99c-0.11,0.31-0.26,0.56-0.45,0.76c-0.2,0.21-0.44,0.37-0.72,0.48s-0.59,0.16-0.94,0.16
						s-0.66-0.05-0.95-0.16c-0.28-0.11-0.52-0.27-0.72-0.48c-0.21-0.22-0.37-0.47-0.47-0.76c-0.11-0.3-0.16-0.63-0.16-0.99
						s0.05-0.69,0.16-0.98c0.1-0.28,0.26-0.53,0.47-0.75c0.19-0.2,0.43-0.35,0.72-0.47c0.29-0.11,0.61-0.17,0.95-0.17
						C262.74,137.03,263.05,137.09,263.34,137.2z M263.25,140.54c0.19-0.27,0.28-0.65,0.28-1.13c0-0.49-0.09-0.86-0.28-1.13
						c-0.18-0.26-0.46-0.4-0.85-0.4s-0.67,0.13-0.86,0.4c-0.19,0.26-0.29,0.65-0.29,1.14s0.1,0.86,0.29,1.13
						c0.19,0.26,0.47,0.39,0.86,0.39C262.79,140.93,263.07,140.8,263.25,140.54z"/>
					<path class="st3" d="M268.32,140.25c0,0.22-0.04,0.42-0.13,0.62c-0.08,0.19-0.2,0.35-0.35,0.49c-0.16,0.14-0.35,0.25-0.58,0.32
						c-0.22,0.08-0.48,0.12-0.79,0.12c-0.27,0-0.54-0.02-0.8-0.07s-0.48-0.11-0.67-0.18v-1.31h0.52c0.11,0,0.18,0.06,0.21,0.17
						c0.01,0.07,0.03,0.24,0.06,0.53c0.16,0.05,0.41,0.07,0.73,0.07c0.13,0,0.24-0.01,0.34-0.04c0.1-0.04,0.18-0.08,0.23-0.13
						c0.07-0.06,0.12-0.12,0.13-0.17c0.02-0.07,0.04-0.14,0.04-0.22c0-0.11-0.03-0.2-0.09-0.26c-0.05-0.06-0.14-0.12-0.26-0.18
						c-0.11-0.05-0.23-0.1-0.36-0.13l-0.42-0.14c-0.1-0.03-0.23-0.09-0.41-0.17c-0.14-0.07-0.27-0.15-0.37-0.24
						c-0.11-0.1-0.19-0.22-0.25-0.36c-0.07-0.15-0.1-0.32-0.1-0.52c0-0.19,0.04-0.37,0.11-0.54s0.18-0.32,0.33-0.45
						c0.15-0.13,0.33-0.23,0.55-0.31c0.23-0.08,0.48-0.12,0.75-0.12c0.23,0,0.43,0.02,0.6,0.05s0.42,0.1,0.75,0.19h-0.01v1.31h-0.51
						c-0.11,0-0.18-0.06-0.21-0.17c-0.02-0.08-0.04-0.25-0.06-0.5c-0.14-0.04-0.32-0.06-0.54-0.06s-0.39,0.04-0.51,0.13
						s-0.19,0.21-0.19,0.37c0,0.09,0.03,0.17,0.1,0.25c0.05,0.05,0.13,0.11,0.25,0.17c0.14,0.07,0.26,0.11,0.36,0.14
						c0.05,0.01,0.19,0.05,0.41,0.13c0.11,0.04,0.25,0.09,0.42,0.17c0.14,0.07,0.26,0.14,0.36,0.23c0.11,0.09,0.19,0.2,0.25,0.33
						C268.29,139.92,268.32,140.08,268.32,140.25z"/>
				</g>
			</g>
		</g>
	</g>
	<path class="st4" d="M92.86,175.42c-35.58,0-64.52-28.95-64.52-64.52c0-35.58,28.95-64.52,64.52-64.52
		c35.58,0,64.52,28.95,64.52,64.52C157.39,146.47,128.44,175.42,92.86,175.42z M92.86,54.37c-31.17,0-56.52,25.36-56.52,56.52
		c0,31.17,25.36,56.52,56.52,56.52c31.17,0,56.52-25.36,56.52-56.52C149.39,79.73,124.03,54.37,92.86,54.37z"/>
	<g>
		<g>
			<path class="st2" d="M81.58,81.76c-0.23,0.16-0.45,0.3-0.67,0.41c-0.23,0.12-0.48,0.21-0.74,0.28c-0.27,0.08-0.56,0.13-0.85,0.16
				c-0.33,0.04-0.66,0.06-0.97,0.06c-0.6,0-1.17-0.11-1.69-0.33c-0.53-0.22-0.98-0.51-1.34-0.89c-0.39-0.4-0.69-0.85-0.89-1.37
				c-0.21-0.53-0.32-1.11-0.32-1.74c0-0.65,0.1-1.23,0.3-1.74c0.21-0.53,0.51-0.99,0.89-1.37c0.37-0.37,0.83-0.67,1.38-0.89
				c0.51-0.19,1.09-0.3,1.74-0.32h0.08c0.89,0,1.88,0.2,2.99,0.61v2.15h-0.68c-0.14,0-0.23-0.07-0.27-0.21
				c-0.02-0.11-0.06-0.41-0.11-0.91c-0.58-0.19-1.24-0.29-2-0.29c-0.41,0-0.78,0.07-1.12,0.21c-0.34,0.14-0.63,0.34-0.86,0.6
				c-0.24,0.26-0.42,0.58-0.55,0.93c-0.13,0.37-0.2,0.78-0.2,1.23c0,0.5,0.07,0.94,0.21,1.31c0.14,0.39,0.33,0.71,0.57,0.96
				c0.25,0.26,0.54,0.46,0.88,0.6s0.71,0.21,1.11,0.21c0.33,0,0.63-0.03,0.92-0.09c0.26-0.06,0.51-0.15,0.75-0.27v-1.53H79.1
				c-0.1,0-0.18-0.03-0.25-0.09c-0.05-0.05-0.08-0.12-0.08-0.2v-0.89h2.8v3.41H81.58z"/>
			<path class="st2" d="M85.92,76.67c0.3,0.11,0.57,0.29,0.82,0.54c0.23,0.23,0.4,0.51,0.54,0.85c0.13,0.35,0.2,0.73,0.2,1.15
				c0,0.09-0.01,0.19-0.02,0.28c-0.02,0.09-0.03,0.14-0.05,0.16c-0.02,0.04-0.05,0.07-0.11,0.09c-0.03,0.02-0.09,0.02-0.16,0.02
				h-3.7c0.05,0.62,0.21,1.07,0.5,1.36s0.67,0.43,1.14,0.43c0.24,0,0.44-0.03,0.6-0.08c0.17-0.05,0.32-0.12,0.44-0.19
				c0.05-0.03,0.11-0.06,0.17-0.09s0.11-0.06,0.17-0.09c0.09-0.05,0.18-0.08,0.27-0.08c0.06,0,0.12,0.01,0.16,0.03
				s0.07,0.05,0.11,0.09l0.42,0.53c-0.18,0.2-0.36,0.36-0.54,0.48c-0.21,0.13-0.42,0.23-0.62,0.3c-0.2,0.06-0.42,0.11-0.67,0.15
				c-0.2,0.03-0.41,0.05-0.65,0.05c-0.43,0-0.81-0.07-1.16-0.2c-0.34-0.13-0.65-0.34-0.93-0.62c-0.26-0.26-0.48-0.6-0.63-1
				C82.07,80.44,82,79.98,82,79.44c0-0.39,0.07-0.77,0.2-1.14c0.12-0.35,0.32-0.67,0.57-0.95c0.24-0.26,0.54-0.47,0.9-0.63
				c0.36-0.16,0.76-0.23,1.21-0.23C85.26,76.49,85.6,76.55,85.92,76.67z M83.92,77.88c-0.23,0.23-0.39,0.57-0.46,1h2.71
				c0-0.16-0.03-0.34-0.08-0.53c-0.05-0.15-0.12-0.29-0.23-0.43c-0.1-0.13-0.23-0.22-0.4-0.29c-0.18-0.08-0.37-0.12-0.56-0.12
				C84.49,77.52,84.16,77.64,83.92,77.88z"/>
			<path class="st2" d="M92.19,80.67c0,0.28-0.05,0.55-0.16,0.81c-0.11,0.24-0.26,0.45-0.46,0.63c-0.21,0.19-0.46,0.32-0.75,0.41
				c-0.28,0.1-0.62,0.15-1.03,0.15c-0.35,0-0.7-0.03-1.03-0.09s-0.63-0.14-0.87-0.23v-1.69h0.68c0.14,0,0.23,0.07,0.27,0.22
				c0.02,0.09,0.04,0.32,0.08,0.69c0.21,0.06,0.53,0.09,0.95,0.09c0.16,0,0.31-0.02,0.44-0.06c0.13-0.05,0.23-0.1,0.3-0.16
				c0.09-0.08,0.15-0.15,0.18-0.22c0.03-0.09,0.05-0.18,0.05-0.28c0-0.14-0.04-0.25-0.12-0.34c-0.07-0.08-0.18-0.16-0.34-0.23
				c-0.15-0.07-0.3-0.13-0.47-0.18l-0.55-0.17c-0.13-0.04-0.3-0.11-0.54-0.22c-0.19-0.08-0.35-0.19-0.48-0.32
				c-0.14-0.12-0.25-0.28-0.33-0.47c-0.09-0.2-0.13-0.42-0.13-0.68c0-0.25,0.05-0.48,0.14-0.7c0.09-0.22,0.24-0.41,0.43-0.58
				s0.43-0.3,0.71-0.4c0.3-0.1,0.63-0.15,0.97-0.15c0.3,0,0.56,0.02,0.78,0.06c0.23,0.04,0.55,0.13,0.97,0.25h-0.01v1.69H91.2
				c-0.14,0-0.23-0.07-0.27-0.22c-0.02-0.1-0.05-0.32-0.08-0.65c-0.18-0.05-0.41-0.08-0.7-0.08c-0.28,0-0.5,0.06-0.67,0.17
				c-0.16,0.12-0.25,0.28-0.25,0.48c0,0.12,0.04,0.23,0.13,0.33c0.06,0.07,0.17,0.14,0.33,0.22c0.18,0.09,0.33,0.15,0.47,0.19
				c0.06,0.02,0.24,0.07,0.54,0.16c0.15,0.05,0.33,0.12,0.55,0.22c0.19,0.08,0.34,0.19,0.47,0.3c0.14,0.12,0.25,0.26,0.33,0.43
				C92.15,80.24,92.19,80.45,92.19,80.67z"/>
			<path class="st2" d="M93.8,82.23c-0.28-0.3-0.42-0.7-0.42-1.21v-3.34h-0.61c-0.06,0-0.13-0.03-0.2-0.08
				c-0.06-0.05-0.09-0.12-0.09-0.22V76.8l0.97-0.15l0.3-1.64c0.01-0.07,0.04-0.13,0.11-0.17c0.06-0.05,0.14-0.07,0.22-0.07h0.75
				v1.89h1.58v1.03h-1.58v3.25c0,0.18,0.05,0.32,0.14,0.43c0.09,0.1,0.22,0.15,0.37,0.15c0.11,0,0.18-0.01,0.22-0.02l0.15-0.07
				l0.13-0.07c0.02-0.02,0.05-0.02,0.09-0.02c0.06,0,0.1,0.01,0.12,0.02l0.08,0.09l0.43,0.7c-0.2,0.16-0.44,0.3-0.72,0.4
				c-0.27,0.09-0.55,0.14-0.84,0.14C94.49,82.67,94.08,82.52,93.8,82.23z"/>
			<path class="st2" d="M102.59,81.88v0.69h-1.38c-0.15,0-0.26-0.02-0.33-0.06c-0.08-0.03-0.14-0.12-0.18-0.26l-0.13-0.42
				c-0.16,0.15-0.3,0.27-0.44,0.36c-0.11,0.08-0.26,0.16-0.46,0.26c-0.14,0.06-0.3,0.11-0.49,0.15c-0.2,0.04-0.39,0.06-0.58,0.06
				c-0.26,0-0.49-0.04-0.7-0.11c-0.23-0.08-0.41-0.18-0.55-0.3c-0.16-0.15-0.28-0.32-0.36-0.51c-0.09-0.21-0.13-0.44-0.13-0.7
				c0-0.23,0.06-0.46,0.17-0.68c0.12-0.23,0.32-0.42,0.6-0.6c0.3-0.19,0.66-0.33,1.1-0.44c0.46-0.12,1.03-0.18,1.72-0.18v-0.35
				c0-0.39-0.09-0.69-0.26-0.9c-0.16-0.2-0.41-0.29-0.74-0.29c-0.25,0-0.44,0.03-0.58,0.08c-0.18,0.07-0.32,0.13-0.41,0.19
				l-0.32,0.17c-0.09,0.05-0.19,0.08-0.32,0.08c-0.1,0-0.19-0.02-0.26-0.07c-0.05-0.03-0.1-0.09-0.16-0.19l-0.27-0.46
				c0.7-0.64,1.53-0.96,2.49-0.96c0.35,0,0.67,0.06,0.95,0.17c0.27,0.12,0.5,0.28,0.69,0.48c0.21,0.24,0.36,0.49,0.44,0.74
				c0.09,0.28,0.14,0.59,0.14,0.93v2.65l0.32,0.06l0.13,0.02C102.49,81.56,102.59,81.68,102.59,81.88z M100.48,74.54
				c0.07-0.07,0.11-0.19,0.11-0.35h0.88c0,0.21-0.03,0.41-0.09,0.6c-0.05,0.17-0.14,0.32-0.25,0.46c-0.09,0.12-0.22,0.21-0.37,0.29
				c-0.14,0.07-0.3,0.1-0.49,0.1c-0.12,0-0.25-0.03-0.39-0.08c-0.11-0.04-0.22-0.09-0.34-0.16l-0.29-0.16
				c-0.09-0.05-0.18-0.07-0.26-0.07c-0.11,0-0.2,0.04-0.27,0.11c-0.06,0.06-0.09,0.17-0.09,0.34h-0.9c0-0.2,0.03-0.4,0.09-0.58
				c0.05-0.16,0.14-0.31,0.26-0.46c0.1-0.13,0.23-0.23,0.39-0.3c0.14-0.07,0.3-0.1,0.47-0.1c0.13,0,0.26,0.03,0.4,0.08
				c0.11,0.04,0.22,0.09,0.34,0.16l0.29,0.16c0.09,0.05,0.18,0.07,0.26,0.07C100.32,74.63,100.41,74.6,100.48,74.54z M99.4,80.1
				c-0.29,0.06-0.52,0.13-0.69,0.21c-0.17,0.08-0.29,0.17-0.36,0.28c-0.07,0.1-0.1,0.22-0.1,0.36c0,0.26,0.07,0.45,0.22,0.55
				c0.16,0.11,0.35,0.16,0.58,0.16c0.15,0,0.28-0.01,0.41-0.04c0.13-0.02,0.25-0.07,0.36-0.13c0.14-0.08,0.25-0.14,0.32-0.2
				c0.11-0.09,0.21-0.18,0.32-0.28v-1C100.02,80.02,99.67,80.05,99.4,80.1z"/>
			<path class="st2" d="M107.16,76.71c0.37,0.15,0.69,0.35,0.93,0.61c0.25,0.26,0.44,0.58,0.58,0.97c0.14,0.38,0.21,0.81,0.21,1.27
				c0,0.47-0.07,0.9-0.21,1.29c-0.15,0.4-0.34,0.72-0.58,0.98c-0.26,0.27-0.57,0.48-0.93,0.62s-0.76,0.21-1.21,0.21
				s-0.86-0.07-1.23-0.21s-0.68-0.35-0.93-0.62c-0.27-0.28-0.48-0.61-0.61-0.98c-0.14-0.39-0.21-0.82-0.21-1.29s0.07-0.89,0.21-1.27
				c0.13-0.36,0.33-0.68,0.61-0.97c0.25-0.26,0.56-0.46,0.93-0.61c0.38-0.15,0.79-0.22,1.23-0.22
				C106.37,76.49,106.78,76.57,107.16,76.71z M107.04,81.05c0.24-0.35,0.36-0.84,0.36-1.47s-0.12-1.12-0.36-1.47
				c-0.23-0.34-0.6-0.51-1.1-0.51s-0.87,0.17-1.12,0.51s-0.37,0.84-0.37,1.48c0,0.63,0.13,1.12,0.37,1.46
				c0.24,0.34,0.62,0.5,1.12,0.5S106.81,81.38,107.04,81.05z"/>
			<path class="st4" d="M73.11,96.18c-0.16,0.1-0.35,0.2-0.58,0.3c-0.17,0.06-0.38,0.11-0.62,0.15c-0.19,0.03-0.4,0.05-0.64,0.05
				c-0.38,0-0.73-0.07-1.04-0.2c-0.33-0.14-0.61-0.34-0.85-0.61c-0.26-0.28-0.45-0.6-0.58-0.97c-0.14-0.39-0.21-0.83-0.21-1.32
				c0-0.44,0.06-0.85,0.19-1.22c0.13-0.37,0.32-0.7,0.56-0.98c0.24-0.27,0.55-0.49,0.91-0.64c0.37-0.16,0.79-0.23,1.25-0.23
				c0.5,0,1.13,0.14,1.89,0.43l-0.01,1.85H72.7c-0.14,0-0.23-0.07-0.27-0.22l-0.09-0.84c-0.29-0.08-0.54-0.12-0.77-0.12
				c-0.26,0-0.48,0.05-0.67,0.14c-0.2,0.09-0.35,0.22-0.47,0.39c-0.14,0.2-0.24,0.41-0.29,0.63c-0.06,0.27-0.09,0.54-0.09,0.82
				c0,0.32,0.04,0.6,0.11,0.85c0.07,0.26,0.17,0.47,0.29,0.63c0.13,0.16,0.29,0.29,0.47,0.39c0.19,0.09,0.4,0.13,0.62,0.13
				c0.24,0,0.43-0.03,0.56-0.08c0.17-0.07,0.29-0.13,0.36-0.19c0.04-0.03,0.08-0.06,0.12-0.09s0.09-0.06,0.13-0.1
				c0.06-0.05,0.14-0.08,0.23-0.08c0.12,0,0.21,0.04,0.27,0.13l0.41,0.53C73.44,95.91,73.26,96.07,73.11,96.18z"/>
			<path class="st4" d="M78.13,90.74c0.37,0.15,0.69,0.35,0.93,0.61c0.25,0.26,0.44,0.58,0.58,0.97c0.14,0.38,0.21,0.81,0.21,1.27
				c0,0.47-0.07,0.9-0.21,1.29c-0.15,0.4-0.34,0.72-0.58,0.98c-0.26,0.27-0.57,0.48-0.93,0.62s-0.76,0.21-1.21,0.21
				s-0.86-0.07-1.23-0.21s-0.68-0.35-0.93-0.62c-0.27-0.28-0.48-0.61-0.61-0.98c-0.14-0.39-0.21-0.82-0.21-1.29s0.07-0.89,0.21-1.27
				c0.13-0.36,0.33-0.68,0.61-0.97c0.25-0.26,0.56-0.46,0.93-0.61c0.38-0.15,0.79-0.22,1.23-0.22
				C77.35,90.51,77.75,90.59,78.13,90.74z M78.02,95.07c0.24-0.35,0.36-0.84,0.36-1.47s-0.12-1.12-0.36-1.47
				c-0.23-0.34-0.6-0.51-1.1-0.51s-0.87,0.17-1.12,0.51s-0.37,0.84-0.37,1.48c0,0.63,0.13,1.12,0.37,1.46
				c0.24,0.34,0.62,0.5,1.12,0.5S77.78,95.41,78.02,95.07z"/>
			<path class="st4" d="M84.98,90.7l-0.19,1.09c-0.01,0.07-0.03,0.12-0.07,0.14c-0.05,0.03-0.1,0.05-0.16,0.05
				c-0.05,0-0.13-0.01-0.23-0.04c-0.14-0.03-0.28-0.05-0.41-0.05c-0.3,0-0.56,0.08-0.77,0.25c-0.2,0.15-0.37,0.39-0.54,0.74v2.57
				l0.58,0.11c0.19,0.05,0.29,0.17,0.29,0.36v0.69h-3.2v-0.69c0-0.19,0.1-0.32,0.29-0.36l0.58-0.11v-3.68l-0.58-0.1
				c-0.19-0.05-0.29-0.17-0.29-0.36v-0.69h1.73c0.15,0,0.25,0.03,0.3,0.08s0.09,0.15,0.12,0.28l0.09,0.72
				c0.21-0.38,0.46-0.67,0.75-0.88c0.3-0.21,0.62-0.32,0.97-0.32C84.55,90.5,84.79,90.57,84.98,90.7z"/>
			<path class="st4" d="M90.08,90.7l-0.19,1.09c-0.01,0.07-0.03,0.12-0.07,0.14c-0.05,0.03-0.1,0.05-0.16,0.05
				c-0.05,0-0.13-0.01-0.23-0.04c-0.14-0.03-0.28-0.05-0.41-0.05c-0.3,0-0.56,0.08-0.77,0.25c-0.2,0.15-0.37,0.39-0.54,0.74v2.57
				l0.58,0.11c0.19,0.05,0.29,0.17,0.29,0.36v0.69h-3.2v-0.69c0-0.19,0.1-0.32,0.29-0.36l0.58-0.11v-3.68l-0.58-0.1
				c-0.19-0.05-0.29-0.17-0.29-0.36v-0.69h1.73c0.15,0,0.25,0.03,0.3,0.08s0.09,0.15,0.12,0.28l0.09,0.72
				c0.21-0.38,0.46-0.67,0.75-0.88c0.3-0.21,0.62-0.32,0.97-0.32C89.64,90.5,89.89,90.57,90.08,90.7z"/>
			<path class="st4" d="M94.34,90.69c0.3,0.11,0.57,0.29,0.82,0.54c0.23,0.23,0.4,0.51,0.54,0.85c0.13,0.35,0.2,0.73,0.2,1.15
				c0,0.09-0.01,0.19-0.02,0.28c-0.02,0.09-0.03,0.14-0.05,0.16c-0.02,0.04-0.05,0.07-0.11,0.09c-0.03,0.02-0.09,0.02-0.16,0.02
				h-3.7c0.05,0.62,0.21,1.07,0.5,1.36s0.67,0.43,1.14,0.43c0.24,0,0.44-0.03,0.6-0.08c0.17-0.05,0.32-0.12,0.44-0.19
				c0.05-0.03,0.11-0.06,0.17-0.09s0.11-0.06,0.17-0.09c0.09-0.05,0.18-0.08,0.27-0.08c0.06,0,0.12,0.01,0.16,0.03
				s0.07,0.05,0.11,0.09l0.42,0.53c-0.18,0.2-0.36,0.36-0.54,0.48c-0.21,0.13-0.42,0.23-0.62,0.3c-0.2,0.06-0.42,0.11-0.67,0.15
				c-0.2,0.03-0.41,0.05-0.65,0.05c-0.43,0-0.81-0.07-1.16-0.2c-0.34-0.13-0.65-0.34-0.93-0.62c-0.26-0.26-0.48-0.6-0.63-1
				c-0.15-0.39-0.22-0.85-0.22-1.39c0-0.39,0.07-0.77,0.2-1.14c0.12-0.35,0.32-0.67,0.57-0.95c0.24-0.26,0.54-0.47,0.9-0.63
				c0.36-0.16,0.76-0.23,1.21-0.23C93.68,90.51,94.03,90.57,94.34,90.69z M92.34,91.9c-0.23,0.23-0.39,0.57-0.46,1h2.71
				c0-0.16-0.03-0.34-0.08-0.53c-0.05-0.15-0.12-0.29-0.23-0.43c-0.1-0.13-0.23-0.22-0.4-0.29c-0.18-0.08-0.37-0.12-0.56-0.12
				C92.91,91.54,92.58,91.66,92.34,91.9z"/>
			<path class="st4" d="M97.53,96.25c-0.28-0.3-0.42-0.7-0.42-1.21V91.7H96.5c-0.06,0-0.13-0.03-0.2-0.08
				c-0.06-0.05-0.09-0.12-0.09-0.22v-0.58l0.97-0.15l0.3-1.64c0.01-0.07,0.04-0.13,0.11-0.17c0.06-0.05,0.14-0.07,0.22-0.07h0.75
				v1.89h1.58v1.03h-1.58v3.25c0,0.18,0.05,0.32,0.14,0.43c0.09,0.1,0.22,0.15,0.37,0.15c0.11,0,0.18-0.01,0.22-0.02l0.15-0.07
				l0.13-0.07c0.02-0.02,0.05-0.02,0.09-0.02c0.06,0,0.1,0.01,0.12,0.02l0.08,0.09l0.43,0.7c-0.2,0.16-0.44,0.3-0.72,0.4
				c-0.27,0.09-0.55,0.14-0.84,0.14C98.21,96.7,97.81,96.55,97.53,96.25z"/>
			<path class="st4" d="M103.86,95.91v0.69h-3.21v-0.69c0-0.19,0.1-0.32,0.29-0.36l0.07-0.01l0.18-0.04l0.35-0.06v-3.68l-0.35-0.06
				c-0.04-0.01-0.07-0.02-0.1-0.02c-0.03-0.01-0.05-0.01-0.08-0.01l-0.07-0.01c-0.2-0.05-0.29-0.17-0.29-0.36v-0.69h2.33v4.84
				l0.35,0.06c0.04,0.01,0.07,0.02,0.1,0.02s0.05,0.01,0.08,0.01l0.07,0.01C103.77,95.6,103.86,95.72,103.86,95.91z M103.12,89.21
				c-0.05,0.11-0.11,0.21-0.2,0.29c-0.09,0.09-0.19,0.16-0.29,0.2c-0.12,0.05-0.24,0.07-0.36,0.07c-0.13,0-0.25-0.02-0.36-0.07
				c-0.09-0.04-0.19-0.1-0.28-0.2c-0.09-0.09-0.15-0.18-0.2-0.29s-0.07-0.23-0.07-0.35c0-0.13,0.02-0.25,0.07-0.36
				c0.04-0.1,0.11-0.2,0.2-0.29c0.08-0.09,0.18-0.15,0.28-0.19c0.14-0.05,0.26-0.08,0.36-0.08s0.22,0.03,0.36,0.08
				c0.12,0.05,0.21,0.11,0.29,0.19c0.09,0.09,0.16,0.19,0.2,0.29c0.05,0.13,0.08,0.25,0.08,0.36S103.17,89.08,103.12,89.21z"/>
			<path class="st4" d="M111.06,91.3c0,0.19-0.1,0.32-0.29,0.36c-0.03,0-0.08,0.01-0.14,0.02c-0.06,0.02-0.2,0.04-0.41,0.08
				l-1.93,4.84h-1.31l-1.93-4.84c-0.4-0.08-0.58-0.11-0.55-0.1c-0.2-0.05-0.29-0.17-0.29-0.36v-0.69h2.92v0.69
				c0,0.19-0.1,0.32-0.29,0.36l-0.33,0.06l0.85,2.36c0.04,0.11,0.09,0.29,0.16,0.55c0.05,0.21,0.1,0.39,0.13,0.54
				c0.05-0.26,0.09-0.44,0.12-0.54c0.05-0.19,0.11-0.37,0.18-0.55l0.86-2.35c-0.15-0.02-0.24-0.04-0.29-0.05
				c-0.04-0.01-0.08-0.02-0.1-0.02c-0.19-0.05-0.29-0.17-0.29-0.36v-0.69h2.92v0.69H111.06z"/>
			<path class="st4" d="M117.11,95.9v0.69h-1.38c-0.15,0-0.26-0.02-0.33-0.06c-0.08-0.03-0.14-0.12-0.18-0.26l-0.13-0.42
				c-0.16,0.15-0.3,0.27-0.44,0.36c-0.11,0.08-0.26,0.16-0.46,0.26c-0.14,0.06-0.3,0.11-0.49,0.15c-0.2,0.04-0.39,0.06-0.58,0.06
				c-0.26,0-0.49-0.04-0.7-0.11c-0.23-0.08-0.41-0.18-0.55-0.3c-0.16-0.15-0.28-0.32-0.36-0.51c-0.09-0.21-0.13-0.44-0.13-0.7
				c0-0.23,0.06-0.46,0.17-0.68c0.12-0.23,0.32-0.42,0.6-0.6c0.3-0.19,0.66-0.33,1.1-0.44c0.46-0.12,1.03-0.18,1.72-0.18v-0.35
				c0-0.39-0.09-0.69-0.26-0.9c-0.16-0.2-0.41-0.29-0.74-0.29c-0.25,0-0.44,0.03-0.58,0.08c-0.18,0.07-0.32,0.13-0.41,0.19
				l-0.32,0.17c-0.09,0.05-0.19,0.08-0.32,0.08c-0.1,0-0.19-0.02-0.26-0.07c-0.05-0.03-0.1-0.09-0.16-0.19l-0.27-0.46
				c0.7-0.64,1.53-0.96,2.49-0.96c0.35,0,0.67,0.06,0.95,0.17c0.27,0.12,0.5,0.28,0.69,0.48c0.21,0.24,0.36,0.49,0.44,0.74
				c0.09,0.28,0.14,0.59,0.14,0.93v2.65l0.32,0.06l0.13,0.02C117.02,95.59,117.11,95.71,117.11,95.9z M113.92,94.12
				c-0.29,0.06-0.52,0.13-0.69,0.21c-0.17,0.08-0.29,0.17-0.36,0.28c-0.07,0.1-0.1,0.22-0.1,0.36c0,0.26,0.07,0.45,0.22,0.55
				c0.16,0.11,0.35,0.16,0.58,0.16c0.15,0,0.28-0.01,0.41-0.04c0.13-0.02,0.25-0.07,0.36-0.13c0.14-0.08,0.25-0.14,0.32-0.2
				c0.11-0.09,0.21-0.18,0.32-0.28v-1C114.54,94.04,114.19,94.07,113.92,94.12z"/>
			<path class="st2" d="M72.59,110.6c-0.09,0-0.16-0.02-0.23-0.07c-0.06-0.04-0.11-0.1-0.13-0.2l-0.12-0.55
				c-0.23,0.27-0.51,0.49-0.83,0.67c-0.31,0.17-0.68,0.26-1.11,0.26c-0.33,0-0.63-0.07-0.89-0.2c-0.27-0.14-0.51-0.34-0.7-0.6
				c-0.2-0.25-0.35-0.57-0.46-0.96c-0.11-0.4-0.16-0.83-0.16-1.31c0-0.44,0.06-0.86,0.18-1.24c0.11-0.36,0.28-0.69,0.53-0.99
				c0.21-0.26,0.48-0.48,0.81-0.65c0.31-0.16,0.67-0.25,1.06-0.25c0.33,0,0.62,0.05,0.86,0.16c0.26,0.12,0.47,0.26,0.63,0.42v-2
				l-0.34-0.06c-0.04-0.01-0.07-0.02-0.1-0.02C71.56,103,71.54,103,71.51,103l-0.07-0.01c-0.19-0.05-0.29-0.17-0.29-0.36v-0.69h2.33
				v7.51l0.3,0.05l0.15,0.04l0.07,0.01c0.19,0.05,0.29,0.17,0.29,0.36v0.69L72.59,110.6L72.59,110.6z M71.51,105.74
				c-0.21-0.08-0.42-0.13-0.63-0.13c-0.2,0-0.4,0.04-0.58,0.13c-0.17,0.08-0.32,0.2-0.46,0.37c-0.12,0.16-0.21,0.37-0.28,0.63
				c-0.06,0.23-0.09,0.53-0.09,0.9s0.03,0.67,0.08,0.9s0.14,0.43,0.25,0.58c0.11,0.16,0.23,0.28,0.37,0.34
				c0.15,0.07,0.32,0.11,0.51,0.11c0.31,0,0.57-0.06,0.77-0.19c0.22-0.13,0.42-0.31,0.6-0.54v-2.69
				C71.89,105.97,71.71,105.83,71.51,105.74z"/>
			<path class="st2" d="M78.86,104.76c0.37,0.15,0.69,0.35,0.93,0.61c0.25,0.26,0.44,0.58,0.58,0.97c0.14,0.38,0.21,0.81,0.21,1.27
				c0,0.47-0.07,0.9-0.21,1.29c-0.15,0.4-0.34,0.72-0.58,0.98c-0.26,0.27-0.57,0.48-0.93,0.62s-0.76,0.21-1.21,0.21
				s-0.86-0.07-1.23-0.21s-0.68-0.35-0.93-0.62c-0.27-0.28-0.48-0.61-0.61-0.98c-0.14-0.39-0.21-0.82-0.21-1.29s0.07-0.89,0.21-1.27
				c0.13-0.36,0.33-0.68,0.61-0.97c0.25-0.26,0.56-0.46,0.93-0.61c0.38-0.15,0.79-0.22,1.23-0.22
				C78.07,104.54,78.48,104.61,78.86,104.76z M78.74,109.09c0.24-0.35,0.36-0.84,0.36-1.47s-0.12-1.12-0.36-1.47
				c-0.23-0.34-0.6-0.51-1.1-0.51s-0.87,0.17-1.12,0.51s-0.37,0.84-0.37,1.48c0,0.63,0.13,1.12,0.37,1.46
				c0.24,0.34,0.62,0.5,1.12,0.5C78.14,109.6,78.51,109.43,78.74,109.09z"/>
			<path class="st2" d="M85.32,108.72c0,0.28-0.05,0.55-0.16,0.81c-0.11,0.24-0.26,0.45-0.46,0.63c-0.21,0.19-0.46,0.32-0.75,0.41
				c-0.28,0.1-0.62,0.15-1.03,0.15c-0.35,0-0.7-0.03-1.03-0.09c-0.34-0.06-0.63-0.14-0.87-0.23v-1.69h0.68
				c0.14,0,0.23,0.07,0.27,0.22c0.02,0.09,0.04,0.32,0.08,0.69c0.21,0.06,0.53,0.09,0.95,0.09c0.16,0,0.31-0.02,0.44-0.06
				c0.13-0.05,0.23-0.1,0.3-0.16c0.09-0.08,0.15-0.15,0.18-0.22c0.03-0.09,0.05-0.18,0.05-0.28c0-0.14-0.04-0.25-0.12-0.34
				c-0.07-0.08-0.18-0.16-0.34-0.23c-0.15-0.07-0.3-0.13-0.47-0.18l-0.55-0.17c-0.13-0.04-0.3-0.11-0.54-0.22
				c-0.19-0.08-0.35-0.19-0.48-0.32c-0.14-0.12-0.25-0.28-0.33-0.47c-0.09-0.2-0.13-0.42-0.13-0.68c0-0.25,0.05-0.48,0.14-0.7
				c0.09-0.22,0.24-0.41,0.43-0.58s0.43-0.3,0.71-0.4c0.3-0.1,0.63-0.15,0.97-0.15c0.3,0,0.56,0.02,0.78,0.06
				c0.23,0.04,0.55,0.13,0.97,0.25H85v1.69h-0.67c-0.14,0-0.23-0.07-0.27-0.22c-0.02-0.1-0.05-0.32-0.08-0.65
				c-0.18-0.05-0.41-0.08-0.7-0.08c-0.28,0-0.5,0.06-0.67,0.17c-0.16,0.12-0.25,0.28-0.25,0.48c0,0.12,0.04,0.23,0.13,0.33
				c0.06,0.07,0.17,0.14,0.33,0.22c0.18,0.09,0.33,0.15,0.47,0.19c0.06,0.02,0.24,0.07,0.54,0.16c0.15,0.05,0.33,0.12,0.55,0.22
				c0.19,0.08,0.34,0.19,0.47,0.3c0.14,0.12,0.25,0.26,0.33,0.43C85.28,108.29,85.32,108.49,85.32,108.72z"/>
			<path class="st2" d="M93.1,104.72l-0.19,1.09c-0.01,0.07-0.03,0.12-0.07,0.14c-0.05,0.03-0.1,0.05-0.16,0.05
				c-0.05,0-0.13-0.01-0.23-0.04c-0.14-0.03-0.28-0.05-0.41-0.05c-0.3,0-0.56,0.08-0.77,0.25c-0.2,0.15-0.37,0.39-0.54,0.74v2.57
				l0.58,0.11c0.19,0.05,0.29,0.17,0.29,0.36v0.69h-3.2v-0.69c0-0.19,0.1-0.32,0.29-0.36l0.58-0.11v-3.68l-0.58-0.1
				c-0.19-0.05-0.29-0.17-0.29-0.36v-0.69h1.73c0.15,0,0.25,0.03,0.3,0.08s0.09,0.15,0.12,0.28l0.09,0.72
				c0.21-0.38,0.46-0.67,0.75-0.88c0.3-0.21,0.62-0.32,0.97-0.32C92.67,104.52,92.92,104.59,93.1,104.72z"/>
			<path class="st2" d="M96.69,109.93v0.69h-3.21v-0.69c0-0.19,0.1-0.32,0.29-0.36l0.07-0.01l0.18-0.04l0.35-0.06v-3.68l-0.35-0.06
				c-0.04-0.01-0.07-0.02-0.1-0.02c-0.03-0.01-0.05-0.01-0.08-0.01l-0.07-0.01c-0.2-0.05-0.29-0.17-0.29-0.36v-0.69h2.33v4.84
				l0.35,0.06c0.04,0.01,0.07,0.02,0.1,0.02s0.05,0.01,0.08,0.01l0.07,0.01C96.59,109.62,96.69,109.74,96.69,109.93z M95.94,103.23
				c-0.05,0.11-0.11,0.21-0.2,0.29c-0.09,0.09-0.19,0.16-0.29,0.2c-0.12,0.05-0.24,0.07-0.36,0.07c-0.13,0-0.25-0.02-0.36-0.07
				c-0.09-0.04-0.19-0.1-0.28-0.2c-0.09-0.09-0.15-0.18-0.2-0.29s-0.07-0.23-0.07-0.35c0-0.13,0.02-0.25,0.07-0.36
				c0.04-0.1,0.11-0.2,0.2-0.29c0.08-0.09,0.18-0.15,0.28-0.19c0.14-0.05,0.26-0.08,0.36-0.08s0.22,0.03,0.36,0.08
				c0.12,0.05,0.21,0.11,0.29,0.19c0.09,0.09,0.16,0.19,0.2,0.29c0.05,0.13,0.08,0.25,0.08,0.36S96,103.1,95.94,103.23z"/>
			<path class="st2" d="M101.43,108.72c0,0.28-0.05,0.55-0.16,0.81c-0.11,0.24-0.26,0.45-0.46,0.63c-0.21,0.19-0.46,0.32-0.75,0.41
				c-0.28,0.1-0.62,0.15-1.03,0.15c-0.35,0-0.7-0.03-1.03-0.09c-0.34-0.06-0.63-0.14-0.87-0.23v-1.69h0.68
				c0.14,0,0.23,0.07,0.27,0.22c0.02,0.09,0.04,0.32,0.08,0.69c0.21,0.06,0.53,0.09,0.95,0.09c0.16,0,0.31-0.02,0.44-0.06
				c0.13-0.05,0.23-0.1,0.3-0.16c0.09-0.08,0.15-0.15,0.18-0.22c0.03-0.09,0.05-0.18,0.05-0.28c0-0.14-0.04-0.25-0.12-0.34
				c-0.07-0.08-0.18-0.16-0.34-0.23c-0.15-0.07-0.3-0.13-0.47-0.18l-0.55-0.17c-0.13-0.04-0.3-0.11-0.54-0.22
				c-0.19-0.08-0.35-0.19-0.48-0.32c-0.14-0.12-0.25-0.28-0.33-0.47c-0.09-0.2-0.13-0.42-0.13-0.68c0-0.25,0.05-0.48,0.14-0.7
				c0.09-0.22,0.24-0.41,0.43-0.58s0.43-0.3,0.71-0.4c0.3-0.1,0.63-0.15,0.97-0.15c0.3,0,0.56,0.02,0.78,0.06
				c0.23,0.04,0.55,0.13,0.97,0.25h-0.01v1.69h-0.67c-0.14,0-0.23-0.07-0.27-0.22c-0.02-0.1-0.05-0.32-0.08-0.65
				c-0.18-0.05-0.41-0.08-0.7-0.08c-0.28,0-0.5,0.06-0.67,0.17c-0.16,0.12-0.25,0.28-0.25,0.48c0,0.12,0.04,0.23,0.13,0.33
				c0.06,0.07,0.17,0.14,0.33,0.22c0.18,0.09,0.33,0.15,0.47,0.19c0.06,0.02,0.24,0.07,0.54,0.16c0.15,0.05,0.33,0.12,0.55,0.22
				c0.19,0.08,0.34,0.19,0.47,0.3c0.14,0.12,0.25,0.26,0.33,0.43C101.39,108.29,101.43,108.49,101.43,108.72z"/>
			<path class="st2" d="M106.29,110.2c-0.16,0.1-0.35,0.2-0.58,0.3c-0.17,0.06-0.38,0.11-0.62,0.15c-0.19,0.03-0.4,0.05-0.64,0.05
				c-0.38,0-0.73-0.07-1.04-0.2c-0.33-0.14-0.61-0.34-0.85-0.61c-0.26-0.28-0.45-0.6-0.58-0.97c-0.14-0.39-0.21-0.83-0.21-1.32
				c0-0.44,0.06-0.85,0.19-1.22c0.13-0.37,0.32-0.7,0.56-0.98c0.24-0.27,0.55-0.49,0.91-0.64c0.37-0.16,0.79-0.23,1.25-0.23
				c0.5,0,1.13,0.14,1.89,0.43l-0.01,1.85h-0.67c-0.14,0-0.23-0.07-0.27-0.22l-0.09-0.84c-0.29-0.08-0.54-0.12-0.77-0.12
				c-0.26,0-0.48,0.05-0.67,0.14c-0.2,0.09-0.35,0.22-0.47,0.39c-0.14,0.2-0.24,0.41-0.29,0.63c-0.06,0.27-0.09,0.54-0.09,0.82
				c0,0.32,0.04,0.6,0.11,0.85c0.07,0.26,0.17,0.47,0.29,0.63c0.13,0.16,0.29,0.29,0.47,0.39c0.19,0.09,0.4,0.13,0.62,0.13
				c0.24,0,0.43-0.03,0.56-0.08c0.17-0.07,0.29-0.13,0.36-0.19c0.04-0.03,0.08-0.06,0.12-0.09s0.09-0.06,0.13-0.1
				c0.06-0.05,0.14-0.08,0.23-0.08c0.12,0,0.21,0.04,0.27,0.13l0.41,0.53C106.62,109.93,106.45,110.09,106.29,110.2z"/>
			<path class="st2" d="M111.32,104.76c0.37,0.15,0.69,0.35,0.93,0.61c0.25,0.26,0.44,0.58,0.58,0.97c0.14,0.38,0.21,0.81,0.21,1.27
				c0,0.47-0.07,0.9-0.21,1.29c-0.15,0.4-0.34,0.72-0.58,0.98c-0.26,0.27-0.57,0.48-0.93,0.62s-0.76,0.21-1.21,0.21
				s-0.86-0.07-1.23-0.21s-0.68-0.35-0.93-0.62c-0.27-0.28-0.48-0.61-0.61-0.98c-0.14-0.39-0.21-0.82-0.21-1.29s0.07-0.89,0.21-1.27
				c0.13-0.36,0.33-0.68,0.61-0.97c0.25-0.26,0.56-0.46,0.93-0.61c0.38-0.15,0.79-0.22,1.23-0.22
				C110.53,104.54,110.94,104.61,111.32,104.76z M111.2,109.09c0.24-0.35,0.36-0.84,0.36-1.47s-0.12-1.12-0.36-1.47
				c-0.23-0.34-0.6-0.51-1.1-0.51s-0.87,0.17-1.12,0.51s-0.37,0.84-0.37,1.48c0,0.63,0.13,1.12,0.37,1.46
				c0.24,0.34,0.62,0.5,1.12,0.5C110.6,109.6,110.97,109.43,111.2,109.09z"/>
			<path class="st2" d="M117.78,108.72c0,0.28-0.05,0.55-0.16,0.81c-0.11,0.24-0.26,0.45-0.46,0.63c-0.21,0.19-0.46,0.32-0.75,0.41
				c-0.28,0.1-0.62,0.15-1.03,0.15c-0.35,0-0.7-0.03-1.03-0.09c-0.34-0.06-0.63-0.14-0.87-0.23v-1.69h0.68
				c0.14,0,0.23,0.07,0.27,0.22c0.02,0.09,0.04,0.32,0.08,0.69c0.21,0.06,0.53,0.09,0.95,0.09c0.16,0,0.31-0.02,0.44-0.06
				c0.13-0.05,0.23-0.1,0.3-0.16c0.09-0.08,0.15-0.15,0.18-0.22c0.03-0.09,0.05-0.18,0.05-0.28c0-0.14-0.04-0.25-0.12-0.34
				c-0.07-0.08-0.18-0.16-0.34-0.23c-0.15-0.07-0.3-0.13-0.47-0.18l-0.55-0.17c-0.13-0.04-0.3-0.11-0.54-0.22
				c-0.19-0.08-0.35-0.19-0.48-0.32c-0.14-0.12-0.25-0.28-0.33-0.47c-0.09-0.2-0.13-0.42-0.13-0.68c0-0.25,0.05-0.48,0.14-0.7
				c0.09-0.22,0.24-0.41,0.43-0.58s0.43-0.3,0.71-0.4c0.3-0.1,0.63-0.15,0.97-0.15c0.3,0,0.56,0.02,0.78,0.06
				c0.23,0.04,0.55,0.13,0.97,0.25h-0.01v1.69h-0.67c-0.14,0-0.23-0.07-0.27-0.22c-0.02-0.1-0.05-0.32-0.08-0.65
				c-0.18-0.05-0.41-0.08-0.7-0.08c-0.28,0-0.5,0.06-0.67,0.17c-0.16,0.12-0.25,0.28-0.25,0.48c0,0.12,0.04,0.23,0.13,0.33
				c0.06,0.07,0.17,0.14,0.33,0.22c0.18,0.09,0.33,0.15,0.47,0.19c0.06,0.02,0.24,0.07,0.54,0.16c0.15,0.05,0.33,0.12,0.55,0.22
				c0.19,0.08,0.34,0.19,0.47,0.3c0.14,0.12,0.25,0.26,0.33,0.43C117.74,108.29,117.78,108.49,117.78,108.72z"/>
		</g>
	</g>
	<g>
		<g>
			<path class="st2" d="M62.16,128.13c-0.1-0.02-0.2-0.03-0.32-0.03c-0.29,0-0.54,0.08-0.74,0.24s-0.35,0.4-0.43,0.71v2.9h-0.46
				v-4.23h0.46l0.01,0.67c0.25-0.5,0.64-0.75,1.19-0.75c0.13,0,0.23,0.02,0.31,0.05L62.16,128.13z"/>
			<path class="st2" d="M64.46,132.04c-0.36,0-0.68-0.09-0.97-0.27s-0.52-0.42-0.68-0.74s-0.24-0.67-0.24-1.06v-0.17
				c0-0.41,0.08-0.77,0.24-1.1s0.38-0.58,0.66-0.77c0.28-0.19,0.59-0.28,0.91-0.28c0.51,0,0.92,0.17,1.22,0.53
				c0.3,0.35,0.45,0.83,0.45,1.44v0.26h-3.02v0.09c0,0.48,0.14,0.88,0.41,1.2s0.62,0.48,1.04,0.48c0.25,0,0.47-0.05,0.66-0.14
				s0.37-0.24,0.52-0.44l0.29,0.22C65.61,131.79,65.11,132.04,64.46,132.04z M64.37,128.06c-0.35,0-0.65,0.13-0.89,0.39
				s-0.39,0.6-0.44,1.04h2.54v-0.05c-0.01-0.41-0.13-0.74-0.35-0.99S64.73,128.06,64.37,128.06z"/>
			<path class="st2" d="M66.77,129.81c0-0.66,0.15-1.18,0.44-1.57c0.29-0.39,0.69-0.58,1.19-0.58c0.57,0,1.01,0.23,1.3,0.68v-2.37
				h0.46v6h-0.44l-0.02-0.56c-0.3,0.43-0.74,0.64-1.32,0.64c-0.49,0-0.88-0.2-1.18-0.59s-0.45-0.92-0.45-1.59v-0.06H66.77z
				 M67.24,129.89c0,0.54,0.11,0.96,0.32,1.28s0.52,0.47,0.91,0.47c0.58,0,0.98-0.25,1.23-0.76v-1.98
				c-0.24-0.55-0.65-0.82-1.22-0.82c-0.39,0-0.7,0.15-0.92,0.46S67.24,129.29,67.24,129.89z"/>
			<path class="st2" d="M74.12,131.43c-0.28,0.41-0.73,0.61-1.35,0.61c-0.45,0-0.79-0.13-1.03-0.39s-0.35-0.65-0.36-1.16v-2.75h0.46
				v2.69c0,0.8,0.33,1.21,0.98,1.21c0.68,0,1.11-0.28,1.29-0.84v-3.06h0.47v4.23h-0.45L74.12,131.43z"/>
			<path class="st2" d="M77.36,131.65c0.33,0,0.6-0.09,0.82-0.28s0.34-0.42,0.36-0.71h0.45c-0.01,0.26-0.09,0.49-0.24,0.71
				s-0.35,0.38-0.59,0.5s-0.51,0.18-0.79,0.18c-0.55,0-0.99-0.19-1.32-0.58s-0.49-0.9-0.49-1.55v-0.14c0-0.42,0.07-0.79,0.22-1.11
				s0.35-0.57,0.63-0.74c0.27-0.17,0.59-0.26,0.96-0.26c0.46,0,0.85,0.14,1.15,0.41c0.3,0.28,0.46,0.64,0.48,1.09h-0.45
				c-0.02-0.33-0.14-0.6-0.36-0.8s-0.49-0.3-0.82-0.3c-0.42,0-0.75,0.15-0.98,0.46s-0.35,0.73-0.35,1.28v0.14
				c0,0.54,0.12,0.96,0.35,1.26S76.93,131.65,77.36,131.65z M77.49,132l-0.05,0.25c0.43,0.05,0.64,0.28,0.64,0.67
				c0,0.24-0.1,0.43-0.31,0.57s-0.49,0.21-0.84,0.21l-0.03-0.3c0.23,0,0.42-0.04,0.57-0.13s0.22-0.2,0.22-0.34
				c0-0.15-0.06-0.25-0.17-0.31s-0.29-0.1-0.52-0.12l0.11-0.5L77.49,132L77.49,132z"/>
			<path class="st2" d="M82.58,131.96c-0.05-0.13-0.08-0.33-0.09-0.59c-0.16,0.21-0.37,0.38-0.63,0.49s-0.52,0.17-0.81,0.17
				c-0.41,0-0.73-0.11-0.99-0.34s-0.38-0.51-0.38-0.86c0-0.41,0.17-0.74,0.51-0.98s0.82-0.36,1.43-0.36h0.85v-0.48
				c0-0.3-0.09-0.54-0.28-0.71s-0.46-0.26-0.81-0.26c-0.33,0-0.6,0.08-0.81,0.25s-0.32,0.37-0.32,0.6h-0.47
				c0-0.34,0.16-0.63,0.47-0.87c0.31-0.25,0.7-0.37,1.15-0.37c0.47,0,0.84,0.12,1.12,0.35c0.27,0.24,0.41,0.56,0.42,0.99v2
				c0,0.41,0.04,0.71,0.13,0.92v0.05L82.58,131.96L82.58,131.96z M81.12,131.63c0.31,0,0.59-0.08,0.84-0.23s0.43-0.35,0.54-0.61
				v-0.93h-0.84c-0.47,0-0.83,0.09-1.09,0.26s-0.39,0.39-0.39,0.68c0,0.24,0.09,0.43,0.26,0.59S80.83,131.63,81.12,131.63z
				 M82.9,126.13c0,0.25-0.07,0.45-0.22,0.6s-0.33,0.23-0.54,0.23c-0.2,0-0.39-0.07-0.58-0.21s-0.36-0.21-0.51-0.21
				c-0.12,0-0.22,0.04-0.31,0.12s-0.12,0.19-0.12,0.34l-0.35-0.01c0-0.24,0.07-0.44,0.21-0.59s0.32-0.23,0.55-0.23
				c0.13,0,0.23,0.02,0.32,0.07s0.17,0.09,0.25,0.15s0.16,0.1,0.24,0.15s0.17,0.07,0.28,0.07c0.12,0,0.22-0.04,0.31-0.13
				s0.13-0.2,0.13-0.35L82.9,126.13z"/>
			<path class="st2" d="M83.94,129.79c0-0.41,0.08-0.77,0.24-1.1s0.38-0.58,0.67-0.76s0.61-0.27,0.98-0.27
				c0.56,0,1.02,0.2,1.37,0.59c0.35,0.39,0.52,0.92,0.52,1.57v0.1c0,0.41-0.08,0.78-0.24,1.1s-0.38,0.58-0.67,0.76
				s-0.61,0.27-0.98,0.27c-0.56,0-1.02-0.2-1.37-0.59s-0.53-0.92-0.53-1.57v-0.1H83.94z M84.41,129.91c0,0.5,0.13,0.92,0.39,1.24
				s0.6,0.49,1.03,0.49c0.42,0,0.76-0.16,1.03-0.49s0.39-0.75,0.39-1.28v-0.09c0-0.32-0.06-0.62-0.18-0.89s-0.29-0.48-0.5-0.62
				s-0.46-0.22-0.74-0.22c-0.42,0-0.76,0.16-1.02,0.49s-0.39,0.75-0.39,1.28v0.09H84.41z"/>
			<path class="st2" d="M90.44,129.81c0-0.66,0.15-1.18,0.44-1.57c0.29-0.39,0.69-0.58,1.19-0.58c0.57,0,1.01,0.23,1.3,0.68v-2.37
				h0.46v6H93.4l-0.02-0.56c-0.3,0.43-0.74,0.64-1.32,0.64c-0.49,0-0.88-0.2-1.18-0.59s-0.45-0.92-0.45-1.59L90.44,129.81
				L90.44,129.81z M90.91,129.89c0,0.54,0.11,0.96,0.32,1.28s0.52,0.47,0.91,0.47c0.58,0,0.98-0.25,1.23-0.76v-1.98
				c-0.24-0.55-0.65-0.82-1.22-0.82c-0.39,0-0.7,0.15-0.92,0.46S90.91,129.29,90.91,129.89z"/>
			<path class="st2" d="M94.82,129.79c0-0.41,0.08-0.77,0.24-1.1s0.38-0.58,0.67-0.76s0.61-0.27,0.98-0.27
				c0.56,0,1.02,0.2,1.37,0.59c0.35,0.39,0.52,0.92,0.52,1.57v0.1c0,0.41-0.08,0.78-0.24,1.1s-0.38,0.58-0.67,0.76
				s-0.61,0.27-0.98,0.27c-0.56,0-1.02-0.2-1.37-0.59s-0.53-0.92-0.53-1.57v-0.1H94.82z M95.28,129.91c0,0.5,0.13,0.92,0.39,1.24
				s0.6,0.49,1.03,0.49c0.42,0,0.76-0.16,1.03-0.49s0.39-0.75,0.39-1.28v-0.09c0-0.32-0.06-0.62-0.18-0.89s-0.29-0.48-0.5-0.62
				s-0.46-0.22-0.74-0.22c-0.42,0-0.76,0.16-1.02,0.49s-0.39,0.75-0.39,1.28v0.09H95.28z"/>
			<path class="st2" d="M102.08,130.89c0-0.23-0.09-0.42-0.28-0.56s-0.47-0.25-0.84-0.33s-0.67-0.17-0.87-0.27s-0.36-0.23-0.46-0.38
				s-0.15-0.33-0.15-0.54c0-0.33,0.14-0.61,0.42-0.83s0.64-0.33,1.07-0.33c0.47,0,0.85,0.12,1.13,0.35
				c0.29,0.23,0.43,0.54,0.43,0.91h-0.47c0-0.25-0.1-0.45-0.31-0.62s-0.47-0.25-0.78-0.25s-0.55,0.07-0.74,0.21
				s-0.28,0.31-0.28,0.53c0,0.21,0.08,0.37,0.23,0.49s0.44,0.22,0.85,0.32s0.72,0.2,0.92,0.31s0.36,0.24,0.46,0.39
				s0.15,0.34,0.15,0.56c0,0.36-0.14,0.64-0.43,0.86s-0.66,0.32-1.13,0.32c-0.49,0-0.89-0.12-1.2-0.36s-0.46-0.54-0.46-0.9h0.47
				c0.02,0.27,0.13,0.49,0.35,0.64s0.49,0.23,0.84,0.23c0.33,0,0.59-0.07,0.79-0.21S102.08,131.11,102.08,130.89z"/>
			<path class="st2" d="M107.5,128.13c-0.1-0.02-0.2-0.03-0.32-0.03c-0.29,0-0.54,0.08-0.74,0.24s-0.35,0.4-0.43,0.71v2.9h-0.46
				v-4.23h0.46l0.01,0.67c0.25-0.5,0.64-0.75,1.19-0.75c0.13,0,0.23,0.02,0.31,0.05L107.5,128.13z"/>
			<path class="st2" d="M108.21,126.51c0-0.09,0.03-0.16,0.09-0.22s0.14-0.09,0.23-0.09s0.18,0.03,0.24,0.09s0.09,0.14,0.09,0.22
				s-0.03,0.16-0.09,0.22s-0.14,0.09-0.24,0.09s-0.18-0.03-0.23-0.09S108.21,126.6,108.21,126.51z M108.76,131.96h-0.47v-4.23h0.47
				V131.96z"/>
			<path class="st2" d="M112.57,130.89c0-0.23-0.09-0.42-0.28-0.56s-0.47-0.25-0.84-0.33s-0.67-0.17-0.87-0.27s-0.36-0.23-0.46-0.38
				s-0.15-0.33-0.15-0.54c0-0.33,0.14-0.61,0.42-0.83s0.64-0.33,1.07-0.33c0.47,0,0.85,0.12,1.13,0.35
				c0.29,0.23,0.43,0.54,0.43,0.91h-0.47c0-0.25-0.1-0.45-0.31-0.62s-0.47-0.25-0.78-0.25s-0.55,0.07-0.74,0.21
				s-0.28,0.31-0.28,0.53c0,0.21,0.08,0.37,0.23,0.49s0.44,0.22,0.85,0.32s0.72,0.2,0.92,0.31s0.36,0.24,0.46,0.39
				s0.15,0.34,0.15,0.56c0,0.36-0.14,0.64-0.43,0.86s-0.66,0.32-1.13,0.32c-0.49,0-0.89-0.12-1.2-0.36s-0.46-0.54-0.46-0.9h0.47
				c0.02,0.27,0.13,0.49,0.35,0.64s0.49,0.23,0.84,0.23c0.33,0,0.59-0.07,0.79-0.21S112.57,131.11,112.57,130.89z"/>
			<path class="st2" d="M115.65,131.65c0.33,0,0.6-0.09,0.82-0.28s0.34-0.42,0.36-0.71h0.45c-0.01,0.26-0.09,0.49-0.24,0.71
				s-0.35,0.38-0.59,0.5s-0.51,0.18-0.79,0.18c-0.55,0-0.99-0.19-1.32-0.58s-0.49-0.9-0.49-1.55v-0.14c0-0.42,0.07-0.79,0.22-1.11
				s0.35-0.57,0.63-0.74c0.27-0.17,0.59-0.26,0.96-0.26c0.46,0,0.85,0.14,1.15,0.41c0.3,0.28,0.46,0.64,0.48,1.09h-0.45
				c-0.02-0.33-0.14-0.6-0.36-0.8s-0.49-0.3-0.82-0.3c-0.42,0-0.75,0.15-0.98,0.46s-0.35,0.73-0.35,1.28v0.14
				c0,0.54,0.12,0.96,0.35,1.26S115.22,131.65,115.65,131.65z"/>
			<path class="st2" d="M117.95,129.79c0-0.41,0.08-0.77,0.24-1.1s0.38-0.58,0.67-0.76s0.61-0.27,0.98-0.27
				c0.56,0,1.02,0.2,1.37,0.59c0.35,0.39,0.52,0.92,0.52,1.57v0.1c0,0.41-0.08,0.78-0.24,1.1s-0.38,0.58-0.67,0.76
				s-0.61,0.27-0.98,0.27c-0.56,0-1.02-0.2-1.37-0.59s-0.53-0.92-0.53-1.57v-0.1H117.95z M118.42,129.91c0,0.5,0.13,0.92,0.39,1.24
				s0.6,0.49,1.03,0.49c0.42,0,0.76-0.16,1.03-0.49s0.39-0.75,0.39-1.28v-0.09c0-0.32-0.06-0.62-0.18-0.89s-0.29-0.48-0.5-0.62
				s-0.46-0.22-0.74-0.22c-0.42,0-0.76,0.16-1.02,0.49s-0.39,0.75-0.39,1.28v0.09H118.42z"/>
			<path class="st2" d="M125.22,130.89c0-0.23-0.09-0.42-0.28-0.56s-0.47-0.25-0.84-0.33s-0.67-0.17-0.87-0.27s-0.36-0.23-0.46-0.38
				s-0.15-0.33-0.15-0.54c0-0.33,0.14-0.61,0.42-0.83s0.64-0.33,1.07-0.33c0.47,0,0.85,0.12,1.13,0.35
				c0.29,0.23,0.43,0.54,0.43,0.91h-0.47c0-0.25-0.1-0.45-0.31-0.62s-0.47-0.25-0.78-0.25s-0.55,0.07-0.74,0.21
				s-0.28,0.31-0.28,0.53c0,0.21,0.08,0.37,0.23,0.49s0.44,0.22,0.85,0.32s0.72,0.2,0.92,0.31s0.36,0.24,0.46,0.39
				s0.15,0.34,0.15,0.56c0,0.36-0.14,0.64-0.43,0.86s-0.66,0.32-1.13,0.32c-0.49,0-0.89-0.12-1.2-0.36s-0.46-0.54-0.46-0.9h0.47
				c0.02,0.27,0.13,0.49,0.35,0.64s0.49,0.23,0.84,0.23c0.33,0,0.59-0.07,0.79-0.21S125.22,131.11,125.22,130.89z"/>
			<path class="st4" d="M75.52,138.21c0.23,0.08,0.44,0.22,0.63,0.41c0.17,0.17,0.31,0.39,0.41,0.66c0.1,0.27,0.15,0.56,0.15,0.88
				c0,0.07-0.01,0.14-0.02,0.22c-0.01,0.07-0.02,0.11-0.04,0.13c-0.01,0.03-0.04,0.05-0.08,0.07c-0.02,0.01-0.07,0.02-0.13,0.02
				H73.6c0.04,0.47,0.16,0.82,0.39,1.04s0.52,0.33,0.88,0.33c0.19,0,0.34-0.02,0.46-0.06c0.13-0.04,0.25-0.09,0.34-0.14
				c0.04-0.02,0.09-0.05,0.13-0.07s0.09-0.04,0.13-0.07c0.07-0.04,0.13-0.06,0.21-0.06c0.05,0,0.09,0.01,0.13,0.03
				c0.03,0.01,0.06,0.04,0.08,0.07l0.32,0.4c-0.14,0.16-0.28,0.28-0.41,0.37c-0.16,0.1-0.32,0.18-0.48,0.23
				c-0.15,0.05-0.32,0.09-0.51,0.12c-0.15,0.02-0.32,0.04-0.5,0.04c-0.33,0-0.63-0.05-0.89-0.15c-0.26-0.1-0.5-0.26-0.72-0.48
				c-0.2-0.2-0.37-0.46-0.49-0.77c-0.11-0.3-0.17-0.66-0.17-1.07c0-0.3,0.05-0.59,0.15-0.88c0.1-0.27,0.24-0.51,0.44-0.73
				c0.19-0.2,0.42-0.37,0.69-0.49s0.59-0.18,0.94-0.18C75.01,138.07,75.28,138.12,75.52,138.21z M73.98,139.14
				c-0.18,0.18-0.3,0.44-0.35,0.77h2.09c0-0.13-0.02-0.26-0.06-0.41c-0.04-0.11-0.1-0.22-0.18-0.33c-0.08-0.1-0.18-0.17-0.31-0.22
				c-0.14-0.06-0.28-0.09-0.43-0.09C74.42,138.86,74.17,138.96,73.98,139.14z"/>
			<path class="st4" d="M81.73,142.23v0.53h-2.01v-0.53c0-0.15,0.07-0.24,0.22-0.28l-0.61-1c-0.02,0.09-0.06,0.18-0.12,0.27
				l-0.47,0.72l0.05,0.01c0.15,0.04,0.23,0.13,0.23,0.28v0.53h-2.01v-0.53c0-0.15,0.08-0.24,0.23-0.28l0.38-0.06l1.01-1.5
				l-0.93-1.37l-0.37-0.06c-0.15-0.04-0.22-0.13-0.22-0.28v-0.53h2v0.53c0,0.15-0.07,0.24-0.22,0.28l0.55,0.88l0.05-0.15
				c0.01-0.02,0.04-0.08,0.09-0.15l0.35-0.56l-0.07-0.02c-0.15-0.04-0.23-0.13-0.23-0.28v-0.53h2.01v0.53
				c0,0.15-0.08,0.24-0.23,0.28l-0.39,0.06l-0.92,1.31l1.02,1.56l0.38,0.06C81.65,141.99,81.73,142.08,81.73,142.23z"/>
			<path class="st4" d="M84.54,142.23v0.53h-2.48v-0.53c0-0.15,0.07-0.24,0.23-0.28l0.05-0.01l0.14-0.03l0.27-0.04v-2.83l-0.27-0.05
				c-0.03-0.01-0.06-0.01-0.08-0.02s-0.04-0.01-0.06-0.01l-0.05-0.01c-0.15-0.04-0.23-0.13-0.23-0.28v-0.53h1.79v3.73l0.27,0.04
				c0.03,0.01,0.06,0.01,0.08,0.02s0.04,0.01,0.06,0.01l0.05,0.01C84.46,141.99,84.54,142.08,84.54,142.23z M83.96,137.06
				c-0.04,0.08-0.09,0.16-0.15,0.23c-0.07,0.07-0.15,0.12-0.23,0.15c-0.09,0.04-0.18,0.05-0.28,0.05s-0.19-0.02-0.28-0.05
				c-0.07-0.03-0.14-0.08-0.22-0.15c-0.07-0.07-0.12-0.14-0.15-0.23c-0.04-0.08-0.05-0.17-0.05-0.27s0.02-0.19,0.05-0.28
				c0.03-0.08,0.08-0.15,0.15-0.22s0.14-0.11,0.22-0.14c0.11-0.04,0.2-0.06,0.28-0.06s0.17,0.02,0.28,0.06
				c0.09,0.04,0.17,0.08,0.23,0.14c0.07,0.07,0.12,0.15,0.15,0.22c0.04,0.1,0.06,0.2,0.06,0.28S84,136.97,83.96,137.06z"/>
			<path class="st4" d="M88.19,141.29c0,0.22-0.04,0.42-0.13,0.62c-0.08,0.19-0.2,0.35-0.35,0.49c-0.16,0.14-0.35,0.25-0.58,0.32
				c-0.22,0.08-0.48,0.12-0.79,0.12c-0.27,0-0.54-0.02-0.8-0.07s-0.48-0.11-0.67-0.18v-1.31h0.52c0.11,0,0.18,0.06,0.21,0.17
				c0.01,0.07,0.03,0.24,0.06,0.53c0.16,0.05,0.41,0.07,0.73,0.07c0.13,0,0.24-0.01,0.34-0.04c0.1-0.04,0.18-0.08,0.23-0.13
				c0.07-0.06,0.12-0.12,0.13-0.17c0.02-0.07,0.04-0.14,0.04-0.22c0-0.11-0.03-0.2-0.09-0.26c-0.05-0.06-0.14-0.12-0.26-0.18
				c-0.11-0.05-0.23-0.1-0.36-0.13L86,140.78c-0.1-0.03-0.23-0.09-0.41-0.17c-0.14-0.07-0.27-0.15-0.37-0.24
				c-0.11-0.1-0.19-0.22-0.25-0.36c-0.07-0.15-0.1-0.32-0.1-0.52c0-0.19,0.04-0.37,0.11-0.54s0.18-0.32,0.33-0.45
				s0.33-0.23,0.55-0.31c0.23-0.08,0.48-0.12,0.75-0.12c0.23,0,0.43,0.02,0.6,0.05s0.42,0.1,0.75,0.19h-0.01v1.31h-0.51
				c-0.11,0-0.18-0.06-0.21-0.17c-0.02-0.08-0.04-0.25-0.06-0.5c-0.14-0.04-0.32-0.06-0.54-0.06s-0.39,0.04-0.51,0.13
				s-0.19,0.21-0.19,0.37c0,0.09,0.03,0.17,0.1,0.25c0.05,0.05,0.13,0.11,0.25,0.17c0.14,0.07,0.26,0.11,0.36,0.14
				c0.05,0.01,0.19,0.05,0.41,0.13c0.11,0.04,0.25,0.09,0.42,0.17c0.14,0.07,0.26,0.14,0.36,0.23c0.11,0.09,0.19,0.2,0.25,0.33
				C88.16,140.96,88.19,141.12,88.19,141.29z"/>
			<path class="st4" d="M89.43,142.49c-0.22-0.23-0.32-0.54-0.32-0.94v-2.57h-0.47c-0.05,0-0.1-0.02-0.15-0.06s-0.07-0.09-0.07-0.17
				v-0.45l0.75-0.12l0.23-1.26c0.01-0.05,0.03-0.1,0.08-0.13c0.05-0.04,0.1-0.05,0.17-0.05h0.58v1.46h1.21v0.79h-1.21v2.5
				c0,0.14,0.04,0.25,0.11,0.33s0.17,0.12,0.29,0.12c0.08,0,0.14-0.01,0.17-0.02l0.12-0.05l0.1-0.05c0.02-0.01,0.04-0.02,0.07-0.02
				c0.05,0,0.08,0.01,0.09,0.02l0.06,0.07l0.33,0.54c-0.16,0.13-0.34,0.23-0.56,0.31c-0.2,0.07-0.42,0.11-0.65,0.11
				C89.96,142.83,89.65,142.72,89.43,142.49z"/>
			<path class="st4" d="M94.83,138.21c0.23,0.08,0.44,0.22,0.63,0.41c0.17,0.17,0.31,0.39,0.41,0.66c0.1,0.27,0.15,0.56,0.15,0.88
				c0,0.07-0.01,0.14-0.02,0.22c-0.01,0.07-0.02,0.11-0.04,0.13c-0.01,0.03-0.04,0.05-0.08,0.07c-0.02,0.01-0.07,0.02-0.13,0.02
				H92.9c0.04,0.47,0.16,0.82,0.39,1.04s0.52,0.33,0.88,0.33c0.19,0,0.34-0.02,0.46-0.06c0.13-0.04,0.25-0.09,0.34-0.14
				c0.04-0.02,0.09-0.05,0.13-0.07s0.09-0.04,0.13-0.07c0.07-0.04,0.13-0.06,0.21-0.06c0.05,0,0.09,0.01,0.13,0.03
				c0.03,0.01,0.06,0.04,0.08,0.07l0.32,0.4c-0.14,0.16-0.28,0.28-0.41,0.37c-0.16,0.1-0.32,0.18-0.48,0.23
				c-0.15,0.05-0.32,0.09-0.51,0.12c-0.15,0.02-0.32,0.04-0.5,0.04c-0.33,0-0.63-0.05-0.89-0.15c-0.26-0.1-0.5-0.26-0.72-0.48
				c-0.2-0.2-0.37-0.46-0.49-0.77c-0.11-0.3-0.17-0.66-0.17-1.07c0-0.3,0.05-0.59,0.15-0.88c0.1-0.27,0.24-0.51,0.44-0.73
				c0.19-0.2,0.42-0.37,0.69-0.49s0.59-0.18,0.94-0.18C94.33,138.07,94.59,138.12,94.83,138.21z M93.29,139.14
				c-0.18,0.18-0.3,0.44-0.35,0.77h2.09c0-0.13-0.02-0.26-0.06-0.41c-0.04-0.11-0.1-0.22-0.18-0.33c-0.08-0.1-0.18-0.17-0.31-0.22
				c-0.14-0.06-0.28-0.09-0.43-0.09C93.73,138.86,93.48,138.96,93.29,139.14z"/>
			<path class="st4" d="M101.73,142.23v0.53h-1.79v-2.93c0-0.28-0.07-0.5-0.2-0.66s-0.32-0.23-0.59-0.23
				c-0.19,0-0.37,0.04-0.54,0.13c-0.18,0.1-0.34,0.21-0.48,0.35v2.45l0.26,0.04l0.14,0.03l0.05,0.01c0.15,0.04,0.23,0.13,0.23,0.28
				v0.53h-2.47v-0.53c0-0.15,0.07-0.24,0.22-0.28l0.05-0.01l0.14-0.03l0.26-0.04v-2.83l-0.26-0.05c-0.03-0.01-0.06-0.01-0.08-0.02
				s-0.04-0.01-0.06-0.01l-0.05-0.01c-0.15-0.04-0.22-0.13-0.22-0.28v-0.53h1.36c0.14,0,0.23,0.07,0.28,0.21l0.08,0.36
				c0.08-0.1,0.18-0.18,0.29-0.26c0.08-0.07,0.19-0.13,0.33-0.2c0.16-0.07,0.28-0.12,0.37-0.13c0.15-0.03,0.29-0.05,0.43-0.05
				c0.26,0,0.49,0.04,0.68,0.13c0.17,0.07,0.34,0.19,0.49,0.36c0.13,0.15,0.23,0.34,0.3,0.56c0.07,0.2,0.1,0.43,0.1,0.71v2.04
				l0.27,0.04c0.03,0.01,0.06,0.01,0.08,0.02s0.04,0.01,0.06,0.01l0.05,0.01C101.65,141.99,101.73,142.08,101.73,142.23z"/>
			<path class="st4" d="M103.01,142.49c-0.22-0.23-0.32-0.54-0.32-0.94v-2.57h-0.47c-0.05,0-0.1-0.02-0.15-0.06
				s-0.07-0.09-0.07-0.17v-0.45l0.75-0.12l0.23-1.26c0.01-0.05,0.03-0.1,0.08-0.13c0.05-0.04,0.1-0.05,0.17-0.05h0.58v1.46h1.21
				v0.79h-1.21v2.5c0,0.14,0.04,0.25,0.11,0.33s0.17,0.12,0.29,0.12c0.08,0,0.14-0.01,0.17-0.02l0.12-0.05l0.1-0.05
				c0.02-0.01,0.04-0.02,0.07-0.02c0.05,0,0.08,0.01,0.09,0.02l0.06,0.07l0.33,0.54c-0.16,0.13-0.34,0.23-0.56,0.31
				c-0.2,0.07-0.42,0.11-0.65,0.11C103.54,142.83,103.23,142.72,103.01,142.49z"/>
			<path class="st4" d="M108.41,138.21c0.23,0.08,0.44,0.22,0.63,0.41c0.17,0.17,0.31,0.39,0.41,0.66c0.1,0.27,0.15,0.56,0.15,0.88
				c0,0.07-0.01,0.14-0.02,0.22c-0.01,0.07-0.02,0.11-0.04,0.13c-0.01,0.03-0.04,0.05-0.08,0.07c-0.02,0.01-0.07,0.02-0.13,0.02
				h-2.85c0.04,0.47,0.16,0.82,0.39,1.04s0.52,0.33,0.88,0.33c0.19,0,0.34-0.02,0.46-0.06c0.13-0.04,0.25-0.09,0.34-0.14
				c0.04-0.02,0.09-0.05,0.13-0.07s0.09-0.04,0.13-0.07c0.07-0.04,0.13-0.06,0.21-0.06c0.05,0,0.09,0.01,0.13,0.03
				c0.03,0.01,0.06,0.04,0.08,0.07l0.32,0.4c-0.14,0.16-0.28,0.28-0.41,0.37c-0.16,0.1-0.32,0.18-0.48,0.23
				c-0.15,0.05-0.32,0.09-0.51,0.12c-0.15,0.02-0.32,0.04-0.5,0.04c-0.33,0-0.63-0.05-0.89-0.15c-0.26-0.1-0.5-0.26-0.72-0.48
				c-0.2-0.2-0.37-0.46-0.49-0.77c-0.11-0.3-0.17-0.66-0.17-1.07c0-0.3,0.05-0.59,0.15-0.88c0.1-0.27,0.24-0.51,0.44-0.73
				c0.19-0.2,0.42-0.37,0.69-0.49s0.59-0.18,0.94-0.18C107.91,138.07,108.17,138.12,108.41,138.21z M106.87,139.14
				c-0.18,0.18-0.3,0.44-0.35,0.77h2.09c0-0.13-0.02-0.26-0.06-0.41c-0.04-0.11-0.1-0.22-0.18-0.33c-0.08-0.1-0.18-0.17-0.31-0.22
				c-0.14-0.06-0.28-0.09-0.43-0.09C107.31,138.86,107.06,138.96,106.87,139.14z"/>
			<path class="st4" d="M113.25,141.29c0,0.22-0.04,0.42-0.13,0.62c-0.08,0.19-0.2,0.35-0.35,0.49c-0.16,0.14-0.35,0.25-0.58,0.32
				c-0.22,0.08-0.48,0.12-0.79,0.12c-0.27,0-0.54-0.02-0.8-0.07s-0.48-0.11-0.67-0.18v-1.31h0.52c0.11,0,0.18,0.06,0.21,0.17
				c0.01,0.07,0.03,0.24,0.06,0.53c0.16,0.05,0.41,0.07,0.73,0.07c0.13,0,0.24-0.01,0.34-0.04c0.1-0.04,0.18-0.08,0.23-0.13
				c0.07-0.06,0.12-0.12,0.13-0.17c0.02-0.07,0.04-0.14,0.04-0.22c0-0.11-0.03-0.2-0.09-0.26c-0.05-0.06-0.14-0.12-0.26-0.18
				c-0.11-0.05-0.23-0.1-0.36-0.13l-0.42-0.14c-0.1-0.03-0.23-0.09-0.41-0.17c-0.14-0.07-0.27-0.15-0.37-0.24
				c-0.11-0.1-0.19-0.22-0.25-0.36c-0.07-0.15-0.1-0.32-0.1-0.52c0-0.19,0.04-0.37,0.11-0.54s0.18-0.32,0.33-0.45
				s0.33-0.23,0.55-0.31c0.23-0.08,0.48-0.12,0.75-0.12c0.23,0,0.43,0.02,0.6,0.05s0.42,0.1,0.75,0.19h-0.01v1.31h-0.51
				c-0.11,0-0.18-0.06-0.21-0.17c-0.02-0.08-0.04-0.25-0.06-0.5c-0.14-0.04-0.32-0.06-0.54-0.06s-0.39,0.04-0.51,0.13
				s-0.19,0.21-0.19,0.37c0,0.09,0.03,0.17,0.1,0.25c0.05,0.05,0.13,0.11,0.25,0.17c0.14,0.07,0.26,0.11,0.36,0.14
				c0.05,0.01,0.19,0.05,0.41,0.13c0.11,0.04,0.25,0.09,0.42,0.17c0.14,0.07,0.26,0.14,0.36,0.23c0.11,0.09,0.19,0.2,0.25,0.33
				C113.21,140.96,113.25,141.12,113.25,141.29z"/>
		</g>
	</g>
	<ellipse class="st0" cx="36.46" cy="116.29" rx="20.42" ry="19.14"/>
	<circle class="st0" cx="304.36" cy="113.01" r="20.42"/>
	<g>
		<path class="st2" d="M300.44,116.81c0.56,0.56,1.12,0.37,1.3,0.19l3.01-2.68c0.12,0.02,0.22,0.07,0.34,0.07
			c1.23,0,2.23-1,2.23-2.23c0-0.69-0.33-1.28-0.81-1.69l-0.49-6.88c0-0.37-0.37-0.74-0.93-0.74c-0.74,0-0.93,0.37-0.93,0.74
			l-0.32,6.76c-0.58,0.4-0.98,1.04-0.98,1.8c0,0.08,0.04,0.15,0.05,0.24l-2.66,3.11C300.07,115.69,299.88,116.25,300.44,116.81z"/>
		<path class="st2" d="M337.87,140.09l-15.45-25.51c-1.86-3.17-5.03-3.17-6.89,0l-15.27,25.51c-1.86,3.17-0.37,5.59,3.35,5.59h30.72
			C338.24,145.67,339.73,143.06,337.87,140.09z M317.01,121.65c0.56-0.56,1.3-0.93,2.05-0.93c0.93,0,1.49,0.37,2.05,0.93
			s0.74,1.3,0.74,2.05c0,0.74-1.12,6.14-1.49,10.05h-2.79c-0.37-3.91-1.49-9.31-1.49-10.05
			C316.08,122.96,316.46,122.21,317.01,121.65z M321.11,140.27c-0.56,0.56-1.3,0.74-2.05,0.74c-0.74,0-1.49-0.19-2.05-0.74
			c-0.56-0.56-0.93-1.12-0.93-2.05c0-0.74,0.37-1.49,0.93-2.05s1.3-0.74,2.05-0.74c0.74,0,1.49,0.19,2.05,0.74s0.93,1.3,0.93,2.05
			C322.04,139.15,321.67,139.71,321.11,140.27z"/>
		<path class="st2" d="M306.03,127.05l2.61-4.28c-1.3,0.37-2.42,0.56-3.54,0.56c-6.14,0-11.17-5.03-11.17-11.17
			s5.03-11.17,11.17-11.17c5.77,0,10.61,4.47,11.17,10.24c0.74-0.56,1.86-0.93,2.79-0.93c0.19,0,0.56,0,0.74,0
			c-0.93-7.45-7.26-13.03-14.71-13.03c-8.19,0-14.9,6.7-14.9,14.9s6.7,14.9,14.9,14.9C305.47,127.05,305.66,127.05,306.03,127.05z"
			/>
	</g>
	<g>
		<path class="st2" d="M54.57,130.08c-1.11-1.28-3.01-1.42-4.19-0.3l-0.86,0.74l-2.78-3.21c2.28-2.44,3.72-5.65,3.98-9.24
			c0.61-8.48-5.78-15.76-14.16-16.36c-8.48-0.61-15.75,5.68-16.36,14.16s5.78,15.76,14.16,16.36c3.59,0.26,6.97-0.7,9.71-2.61
			l2.78,3.21l-0.86,0.74c-1.28,1.11-1.42,3.01-0.3,4.19l1.48,1.71l8.88-7.68L54.57,130.08z M34.65,128.24
			c-6.18-0.45-10.9-5.9-10.46-12.08s5.9-10.9,12.08-10.46c6.18,0.45,10.9,5.9,10.46,12.08C46.29,123.96,40.83,128.68,34.65,128.24z"
			/>
		<path class="st2" d="M65.29,142.58l-8.05-9.3l-8.88,7.68l8.05,9.3c1.11,1.28,3.01,1.42,4.19,0.3l4.28-3.7
			C66.28,145.66,66.41,143.76,65.29,142.58z"/>
		<path class="st2" d="M35.17,120.95c-0.5-0.04-0.91,0.13-1.33,0.41c-0.32,0.28-0.56,0.76-0.59,1.26c-0.04,0.5,0.13,0.91,0.41,1.33
			c0.28,0.32,0.76,0.56,1.26,0.59c0.5,0.04,0.91-0.13,1.33-0.41c0.32-0.28,0.56-0.76,0.59-1.26c0.04-0.5-0.13-0.91-0.41-1.33
			C36.06,121.12,35.67,120.99,35.17,120.95z"/>
		<path class="st2" d="M36.01,109.39c-1-0.07-1.85,0.67-1.92,1.67l-0.05,0.7l0.07,7.32l2.39,0.17l1.12-7.24l0.05-0.7
			C37.75,110.31,37.01,109.46,36.01,109.39z"/>
	</g>
	<g>
		<path class="st2" d="M119.55,44.27l-2.24-3.31c12.96-8.77,30.52-13.42,49.45-13.08c14.22,0.25,29.29,3.14,46.09,8.85l-1.29,3.79
			c-16.4-5.58-31.07-8.4-44.87-8.64C148.56,31.56,131.83,35.96,119.55,44.27z"/>
		<g>
			<polygon class="st2" points="202.48,42.64 211.05,38.33 206.73,29.76 212.2,31.57 216.51,40.13 207.94,44.45 			"/>
		</g>
	</g>
	<g>
		<path class="st2" d="M165.22,190c-5.89,0-11.78-0.37-17.63-1.13c-7.91-1.03-13.89-2.61-18.8-4.97l1.73-3.6
			c4.52,2.17,10.11,3.64,17.58,4.61c24.55,3.19,50.08-0.6,71.87-10.66l1.68,3.63C204.37,185.85,184.82,190,165.22,190z"/>
		<g>
			<polygon class="st2" points="139.94,180.02 130.71,182.64 133.33,191.86 128.3,189.06 125.68,179.83 134.91,177.22 			"/>
		</g>
	</g>
</g>
</svg>
