<?xml version="1.0" encoding="utf-8"?>
<!-- Generator: Adobe Illustrator 25.2.3, SVG Export Plug-In . SVG Version: 6.00 Build 0)  -->
<svg version="1.1" id="Layer_1" xmlns="http://www.w3.org/2000/svg" xmlns:xlink="http://www.w3.org/1999/xlink" x="0px" y="0px"
	 viewBox="0 0 150 150" style="enable-background:new 0 0 150 150;" xml:space="preserve">
<style type="text/css">
	.st0{fill:#FFFFFF;}
</style>
<path class="st0" d="M107,41.7v-3.9l13.8-4.1l-1.5-5.3L82,39.4c-1.5-2.2-4.1-3.6-7-3.6c-4.6,0-8.4,3.7-8.5,8.2L29.2,54.9l1.5,5.3
	L43,56.6v3.6L31.5,86.6h-9.1v0.9c0,6,9.4,10.7,21.5,10.7s21.5-4.7,21.5-10.7v-0.9h-9.1L44.8,60.2V56L68,49.2
	c0.5,0.7,1.1,1.3,1.8,1.9v48.8h-3.9v5.3h-8.2v7.1h34.8v-7.1h-8.2v-5.3h-3.9V51.1c1.9-1.5,3.2-3.8,3.3-6.4l21.6-6.4v3.4L93.7,68.1
	h-9.1V69c0,6,9.4,10.7,21.5,10.7S127.5,75,127.5,69v-0.9h-9.1L107,41.7z M54.3,86.6H33.5l10.4-24L54.3,86.6z M95.7,68.1l10.4-24
	l10.4,24H95.7z"/>
</svg>
