<?xml version="1.0" encoding="utf-8"?>
<!-- Generator: Adobe Illustrator 25.2.3, SVG Export Plug-In . SVG Version: 6.00 Build 0)  -->
<svg version="1.1" id="Layer_1" xmlns="http://www.w3.org/2000/svg" xmlns:xlink="http://www.w3.org/1999/xlink" x="0px" y="0px"
	 viewBox="0 0 150 150" style="enable-background:new 0 0 150 150;" xml:space="preserve">
<style type="text/css">
	.st0{fill:#FFFFFF;}
</style>
<path class="st0" d="M75,2.1c-37.1,0-67.2,30-67.2,67.2s30,67.2,67.2,67.2s67.2-30,67.2-67.2S112.1,2.1,75,2.1z M135.7,69.3
	c0,15.7-6,29.9-15.8,40.7L33.8,24.7C44.7,14.6,59.2,8.5,75,8.5C108.4,8.5,135.7,35.8,135.7,69.3z M14.3,69.3c0-15.3,5.7-29.3,15-40
	l86.1,85.2C104.7,124.1,90.6,130,75,130C41.6,130,14.3,102.7,14.3,69.3z"/>
<path class="st0" d="M118.3,75l-11.5-26.4v-1.4h11v-5.7H82.9c-0.6-1.5-1.5-2.9-2.8-3.9l0,0c-1.4-1.1-3.2-1.8-5.2-1.8
	c-3.5,0-6.4,2.1-7.8,5c0,0,0,0,0.1,0c-0.1,0.2-0.2,0.4-0.3,0.6H32.1v5.7H43v1.4L31.5,75h-9.1v0.9c0,6,9.4,10.7,21.5,10.7
	s21.5-4.7,21.5-10.7V75h-9.1L44.8,48.5v-1.4H67c0.5,1.4,1.3,2.5,2.3,3.5h-0.1c0.2,0.2,0.3,0.3,0.5,0.5v48.8h-3.9v5.3h-8.2v7.1h34.8
	v-7.1h-8.2v-5.3h-3.9V51.1c1.3-1,2.3-2.4,2.8-4h22v1.4L93.5,75h-9.1v0.9c0,6,9.4,10.7,21.5,10.7s21.5-4.7,21.5-10.7V75H118.3z
	 M54.3,75H33.5l10.4-24L54.3,75z M95.5,75l10.4-24l10.4,24H95.5z"/>
</svg>
