<?xml version="1.0" encoding="utf-8"?>
<!-- Generator: Adobe Illustrator 25.0.1, SVG Export Plug-In . SVG Version: 6.00 Build 0)  -->
<svg version="1.1" id="Camada_1" xmlns="http://www.w3.org/2000/svg" xmlns:xlink="http://www.w3.org/1999/xlink" x="0px" y="0px"
	 viewBox="0 0 208.64 167.28" style="enable-background:new 0 0 208.64 167.28;" xml:space="preserve">
<style type="text/css">
	.st0{fill:#375E98;}
	.st1{fill:#56A46B;}
</style>
<g>
	<path class="st0" d="M113.81,104.83c5.13-3.41,8.53-9.24,8.53-15.85c0-10.49-8.53-19.02-19.02-19.02
		c-10.49,0-19.02,8.53-19.02,19.02c0,6.61,3.4,12.44,8.53,15.85c-11.62,4.29-19.94,15.44-19.94,28.53h5.07
		c0-13.98,11.38-25.36,25.36-25.36c13.98,0,25.36,11.38,25.36,25.36h5.07C133.75,120.27,125.43,109.11,113.81,104.83z
		 M103.32,102.92c-7.69,0-13.95-6.26-13.95-13.95c0-7.69,6.26-13.95,13.95-13.95c7.69,0,13.95,6.26,13.95,13.95
		C117.27,96.67,111.01,102.92,103.32,102.92z"/>
	<path class="st0" d="M139.17,92.15c5.13-3.41,8.53-9.24,8.53-15.85c0-10.49-8.53-19.02-19.02-19.02c-5.08,0-9.69,2.01-13.11,5.27
		c-1.26,1.21-2.36,2.58-3.25,4.1c1.58,0.64,3.09,1.43,4.48,2.38c0.9-1.46,2.05-2.74,3.4-3.78c2.35-1.81,5.28-2.89,8.47-2.89
		c7.69,0,13.95,6.26,13.95,13.95c0,6.38-4.32,11.77-10.18,13.42c-1.2,0.34-2.46,0.53-3.77,0.53c-0.45,0-0.89-0.03-1.33-0.07
		c-0.09,1.83-0.38,3.6-0.85,5.29c0.72-0.06,1.44-0.16,2.18-0.16c1.03,0,2.04,0.08,3.04,0.2c12.55,1.51,22.32,12.21,22.32,25.16h5.07
		C159.11,107.59,150.79,96.43,139.17,92.15z"/>
	<path class="st0" d="M77.96,95.32c0.74,0,1.46,0.09,2.18,0.16c-0.48-1.7-0.76-3.47-0.85-5.29c-0.44,0.04-0.88,0.07-1.33,0.07
		c-1.31,0-2.57-0.19-3.77-0.53c-5.86-1.65-10.18-7.03-10.18-13.42c0-7.69,6.26-13.95,13.95-13.95c3.19,0,6.12,1.09,8.47,2.89
		c1.35,1.04,2.51,2.32,3.4,3.78c1.4-0.95,2.9-1.74,4.48-2.38c-0.9-1.51-1.99-2.89-3.25-4.1c-3.42-3.26-8.03-5.27-13.11-5.27
		c-10.49,0-19.02,8.53-19.02,19.02c0,6.61,3.4,12.44,8.53,15.85c-11.62,4.29-19.94,15.44-19.94,28.53h5.07
		c0-12.95,9.77-23.65,22.32-25.16C75.92,95.4,76.93,95.32,77.96,95.32z"/>
	<path class="st1" d="M156.92,74.4c5.13-3.41,8.53-9.24,8.53-15.85c0-10.49-8.53-19.02-19.02-19.02c-5.08,0-9.69,2.01-13.11,5.27
		c-1.26,1.21-2.36,2.58-3.25,4.1c1.58,0.64,3.09,1.43,4.48,2.38c0.9-1.46,2.05-2.74,3.4-3.78c2.35-1.81,5.28-2.89,8.47-2.89
		c7.69,0,13.95,6.26,13.95,13.95c0,5.62-3.35,10.46-8.15,12.66c0.21,1.2,0.35,2.43,0.35,3.7c0,1.15-0.12,2.27-0.3,3.38
		c11.17,2.65,19.52,12.67,19.52,24.64h5.07C176.86,89.84,168.54,78.68,156.92,74.4z"/>
	<path class="st1" d="M54.07,74.9c0-1.26,0.13-2.49,0.35-3.7c-4.8-2.2-8.15-7.04-8.15-12.66c0-7.69,6.26-13.95,13.95-13.95
		c3.19,0,6.12,1.09,8.47,2.89c1.35,1.04,2.51,2.32,3.4,3.78c1.4-0.95,2.9-1.74,4.48-2.38c-0.9-1.51-1.99-2.89-3.25-4.1
		c-3.42-3.26-8.03-5.27-13.11-5.27c-10.49,0-19.02,8.53-19.02,19.02c0,6.61,3.4,12.44,8.53,15.85
		c-11.62,4.29-19.94,15.44-19.94,28.53h5.07c0-11.97,8.35-22,19.52-24.64C54.19,77.18,54.07,76.06,54.07,74.9z"/>
	<path class="st1" d="M103.32,44.6c6.78,0,12.39,4.89,13.63,11.31c2.78-1.67,4.78-2.05,4.78-2.05c-2.1-8.22-9.54-14.33-18.41-14.33
		c-8.87,0-16.32,6.11-18.41,14.33c0,0,2,0.37,4.78,2.05C90.93,49.49,96.54,44.6,103.32,44.6z"/>
</g>
</svg>
