<?xml version="1.0" encoding="utf-8"?>
<!-- Generator: Adobe Illustrator 25.0.1, SVG Export Plug-In . SVG Version: 6.00 Build 0)  -->
<svg version="1.1" id="Camada_1" xmlns="http://www.w3.org/2000/svg" xmlns:xlink="http://www.w3.org/1999/xlink" x="0px" y="0px"
	 viewBox="0 0 700 500" style="enable-background:new 0 0 700 500;" xml:space="preserve">
<style type="text/css">
	.st0{fill:#375E98;}
</style>
<path class="st0" d="M161.57,467.61l-23.09-5.5l44.18-185.58c6.22-26.64,25.85-47.22,50.62-55.45
	c-17.09-19.8-25.53-46.31-22.21-72.98c3.09-24.87,15.68-47.04,35.44-62.44c19.77-15.4,44.34-22.17,69.21-19.08
	c24.86,3.09,47.03,15.68,62.42,35.45c15.4,19.77,22.17,44.35,19.08,69.22c-4.97,39.99-34.34,71.08-71.6,79.79
	c6.07,8.19,10.53,17.56,12.96,27.55l29.48,87.24l14.57-2.3c-0.21-2.77-0.32-5.53-0.32-8.26c0-33.96,15.27-65.65,41.34-86.84
	l-20.06-32.4c-5.97-9.63-5.87-21.37-0.75-30.69c-1.56-2.77-2.08-6.08-1.41-9.2c0.72-3.41,2.83-6.45,5.76-8.33l8.99-5.8
	c2.9-1.89,6.43-2.55,9.88-1.81c3.4,0.72,6.31,2.7,8.22,5.59c10.65-0.46,21.28,4.67,27.28,14.36l57.18,92.37
	c4.91,7.93,5.85,17.41,2.92,25.89c1.31,2.41,1.86,5.17,1.57,7.95c1.86,5.55-0.19,11.89-5.32,15.23l-9.04,5.83
	c-2.91,1.89-6.43,2.55-9.88,1.81c-2.02-0.43-3.88-1.31-5.45-2.56c-2.62-0.61-4.95-1.94-6.78-3.84c-0.06,0-0.13,0-0.19,0
	c-10.29,0-20.12-5.25-25.8-14.4l-9.74-15.74c-11.08,11.26-17.44,26.48-17.44,42.61c0,0.08,0,0.15,0,0.23l15.61-2.46
	c10.23-2.71,20.92-1.37,30.21,3.8c9.55,5.32,16.45,14.04,19.43,24.55c3.44,12.35,0.82,24.98-6.08,34.69
	c0.56,0.02,1.12,0.02,1.68,0.02h45.93c0.01,0,0.01,0,0.02,0c5.63,0,10.93,2.2,14.93,6.18c4,3.99,6.2,9.3,6.2,14.96v8.98
	c0,11.66-9.49,21.14-21.14,21.14H397.37c-10.62,0-19.44-7.87-20.92-18.09c-30.7,5.67-31.57,5.73-32.14,5.77
	c-18.52,1.3-35.59-10.07-41.49-27.64l-7.96-23.57l22.49-7.59l7.96,23.59c2.42,7.21,9.36,11.9,16.98,11.56
	c6.64-1.1,76.02-14.01,122.39-22.68c8.74-2.74,13.8-12,11.32-20.89c-1.24-4.36-4.13-8.01-8.13-10.24c-3.97-2.21-8.55-2.74-12.9-1.5
	l-0.69,0.2l-0.71,0.11l-101.57,16.01l-36.24-107.25l-0.13-0.55c-3.22-13.68-11.95-25.75-23.96-33.11l-15.97-9.79l-15.63-0.74
	c-25.63-1.21-48.46,16.04-54.3,41.03L161.57,467.61z M416.71,443.63h121.07v-3.8h-43.34c-10.03,0-19.83-1.75-29.19-5.22
	L416.71,443.63z M540.39,439.84L540.39,439.84C540.39,439.84,540.39,439.84,540.39,439.84L540.39,439.84z M342.68,431.37
	c-0.03,0-0.07,0-0.13,0.01C342.59,431.37,342.64,431.37,342.68,431.37z M423.48,217.06c-0.98,2-0.95,4.44,0.3,6.46l31.92,51.57
	l-9.67,6.34c-25.03,16.42-39.98,44.02-39.98,73.84c0,1.11,0.02,2.24,0.07,3.36l3.79-0.6c-0.03-0.92-0.05-1.85-0.05-2.76
	c0-28.25,14.03-54.51,37.53-70.25l10.22-6.84l23.34,37.73c1.63,2.63,4.83,3.79,7.77,2.81l6.54-2.16l2.99-4.08
	c1.62-2.21,1.74-5.15,0.3-7.48l-57.17-92.36c-1.87-3.02-5.78-4.03-8.87-2.36L423.48,217.06z M501.86,336.25
	C501.86,336.26,501.86,336.26,501.86,336.25L501.86,336.25z M510.6,330.58l0.01,0.02C510.61,330.59,510.6,330.59,510.6,330.58z
	 M501.13,330.28c0.03,0.04,0.05,0.09,0.08,0.13L501.13,330.28z M505.03,327.79l0.03,0.05C505.05,327.83,505.04,327.81,505.03,327.79
	z M281.5,228.2l17.28,1.34c37.37,2.9,70.26-23.99,74.88-61.21c2.31-18.58-2.75-36.94-14.25-51.71
	c-11.5-14.77-28.06-24.17-46.62-26.48c-18.57-2.31-36.93,2.75-51.69,14.25c-14.76,11.5-24.16,28.07-26.47,46.65
	c-3.35,26.9,9.33,53.6,32.31,68.02L281.5,228.2z M410.24,192.56c-0.01,0.01-0.02,0.02-0.04,0.02L410.24,192.56z"/>
</svg>
