<?xml version="1.0" encoding="utf-8"?>
<!-- Generator: Adobe Illustrator 25.0.1, SVG Export Plug-In . SVG Version: 6.00 Build 0)  -->
<svg version="1.1" id="Camada_1" xmlns="http://www.w3.org/2000/svg" xmlns:xlink="http://www.w3.org/1999/xlink" x="0px" y="0px"
	 viewBox="0 0 700 500" style="enable-background:new 0 0 700 500;" xml:space="preserve">
<style type="text/css">
	.st0{fill:#375E98;}
	.st1{fill:#56A46B;}
</style>
<g>
	<g>
		<path class="st0" d="M355.87,376.38h-11.74c-6.77,0-12.26-5.49-12.26-12.26v-10.49c0-6.77,5.49-12.26,12.26-12.26h11.74
			c6.77,0,12.26,5.49,12.26,12.26v10.49C368.13,370.89,362.64,376.38,355.87,376.38z"/>
		<path class="st0" d="M343.73,448.28l-12.37-19.89c-0.92-1.48-1.29-3.24-1.03-4.97l6.34-43.21c0.53-3.62,3.64-6.31,7.3-6.31h12.05
			c3.66,0,6.77,2.68,7.3,6.31l6.34,43.21c0.25,1.73-0.11,3.49-1.03,4.97l-12.37,19.89C353.38,452.93,346.62,452.93,343.73,448.28z"
			/>
	</g>
	<g>
	</g>
</g>
<g>
	<path class="st0" d="M395.13,329.11c22.09-14.67,36.7-39.75,36.7-68.19c0-45.12-36.71-81.83-81.83-81.83s-81.83,36.71-81.83,81.83
		c0,28.45,14.61,53.52,36.7,68.19c-49.99,18.44-85.8,66.43-85.8,122.74h21.82c0-60.16,48.94-109.11,109.11-109.11
		S459.1,391.68,459.1,451.85h21.82C480.93,395.54,445.12,347.56,395.13,329.11z M350,320.93c-33.09,0-60.01-26.92-60.01-60.01
		s26.92-60.01,60.01-60.01S410,227.83,410,260.92S383.08,320.93,350,320.93z"/>
	<path class="st1" d="M504.23,274.56c22.09-14.67,36.7-39.75,36.7-68.19c0-45.12-36.71-81.83-81.83-81.83
		c-21.86,0-41.7,8.67-56.39,22.68c-5.44,5.19-10.15,11.12-14,17.63c6.81,2.75,13.29,6.15,19.28,10.22
		c3.86-6.27,8.82-11.78,14.65-16.26c10.12-7.78,22.73-12.45,36.45-12.45c33.09,0,60.01,26.92,60.01,60.01
		c0,27.47-18.58,50.63-43.8,57.72c-5.16,1.46-10.59,2.29-16.21,2.29c-1.93,0-3.83-0.11-5.72-0.29c-0.39,7.86-1.62,15.48-3.67,22.78
		c3.12-0.27,6.2-0.67,9.39-0.67c4.44,0,8.78,0.34,13.07,0.86c54.01,6.49,96.04,52.52,96.04,108.25h21.82
		C590.03,340.99,554.22,293,504.23,274.56z"/>
	<path class="st1" d="M240.89,288.19c3.19,0,6.27,0.4,9.39,0.67c-2.05-7.3-3.29-14.93-3.67-22.78c-1.89,0.18-3.78,0.29-5.72,0.29
		c-5.62,0-11.05-0.83-16.21-2.29c-25.23-7.1-43.8-30.25-43.8-57.72c0-33.09,26.92-60.01,60.01-60.01c13.72,0,26.34,4.68,36.45,12.45
		c5.82,4.47,10.79,9.98,14.65,16.26c6.01-4.07,12.48-7.47,19.28-10.22c-3.85-6.5-8.56-12.43-14-17.63
		c-14.7-14.02-34.53-22.68-56.39-22.68c-45.12,0-81.83,36.71-81.83,81.83c0,28.45,14.61,53.52,36.7,68.19
		c-49.99,18.44-85.8,66.43-85.8,122.74h21.82c0-55.74,42.03-101.76,96.04-108.25C232.11,288.54,236.45,288.19,240.89,288.19z"/>
</g>
</svg>
