<?xml version="1.0" encoding="utf-8"?>
<!-- Generator: Adobe Illustrator 25.0.1, SVG Export Plug-In . SVG Version: 6.00 Build 0)  -->
<svg version="1.1" id="Camada_1" xmlns="http://www.w3.org/2000/svg" xmlns:xlink="http://www.w3.org/1999/xlink" x="0px" y="0px"
	 viewBox="0 0 473.87 449.36" style="enable-background:new 0 0 473.87 449.36;" xml:space="preserve">
<style type="text/css">
	.st0{fill:#56A46B;}
</style>
<g>
	<g>
		<path class="st0" d="M211.13,301.04c22.09-14.67,36.7-39.75,36.7-68.19c0-45.12-36.71-81.83-81.83-81.83s-81.83,36.71-81.83,81.83
			c0,28.45,14.61,53.52,36.7,68.19c-49.99,18.44-85.8,66.43-85.8,122.74h21.82c0-60.16,48.94-109.11,109.11-109.11
			s109.11,48.94,109.11,109.11h21.82C296.93,367.47,261.12,319.49,211.13,301.04z M166,292.86c-33.09,0-60.01-26.92-60.01-60.01
			s26.92-60.01,60.01-60.01s60.01,26.92,60.01,60.01S199.09,292.86,166,292.86z"/>
	</g>
	<path class="st0" d="M272.78,221.94c9.65,0,17.47-7.82,17.47-17.47S282.43,187,272.78,187s-17.47,7.82-17.47,17.47
		S263.13,221.94,272.78,221.94z M272.78,198.64c3.22,0,5.82,2.61,5.82,5.82s-2.61,5.82-5.82,5.82c-3.22,0-5.82-2.61-5.82-5.82
		S269.57,198.64,272.78,198.64z"/>
	<path class="st0" d="M336.84,157.88c0-12.86-10.43-23.29-23.29-23.29s-23.29,10.43-23.29,23.29c0,12.86,10.43,23.29,23.29,23.29
		S336.84,170.75,336.84,157.88z M301.9,157.88c0-6.43,5.21-11.65,11.65-11.65s11.65,5.21,11.65,11.65s-5.21,11.65-11.65,11.65
		S301.9,164.31,301.9,157.88z"/>
	<path class="st0" d="M406.71,35.6c-3.26,0-6.51,0.31-9.71,0.92c-8.34-12.03-22.25-18.96-36.88-18.39
		c-14.63-0.57-28.53,6.36-36.88,18.39c-3.2-0.61-6.45-0.92-9.71-0.92c-22.47,0-40.76,14.37-40.76,32.03
		c0.01,2.98,0.53,5.94,1.55,8.73c-1.02,2.8-1.55,5.75-1.55,8.73c0,17.66,18.29,32.03,40.76,32.03c3.26,0,6.51-0.31,9.71-0.92
		c8.34,12.03,22.25,18.96,36.88,18.39c14.63,0.57,28.53-6.36,36.88-18.39c3.2,0.61,6.45,0.92,9.71,0.92
		c22.47,0,40.76-14.37,40.76-32.03c-0.01-2.98-0.53-5.94-1.55-8.73c1.02-2.8,1.55-5.75,1.55-8.73
		C447.47,49.96,429.18,35.6,406.71,35.6z M434.35,78.85c0.95,1.95,1.45,4.08,1.47,6.25c0,11.06-13.33,20.38-29.12,20.38
		c-3.8,0.01-7.59-0.54-11.23-1.62c-2.96-0.88-6.09,0.7-7.14,3.6c-3.31,9.12-14.91,15.5-28.21,15.5s-24.91-6.37-28.21-15.5
		c-0.83-2.31-3.02-3.84-5.47-3.84c-0.56,0-1.13,0.08-1.67,0.24c-3.65,1.08-7.43,1.63-11.23,1.62c-15.78,0-29.12-9.32-29.12-20.38
		c0.02-2.17,0.52-4.3,1.47-6.25c0.74-1.57,0.74-3.4,0-4.97c-0.95-1.95-1.45-4.08-1.47-6.25c0-11.06,13.33-20.38,29.12-20.38
		c3.8-0.01,7.59,0.54,11.23,1.62c2.96,0.88,6.09-0.7,7.14-3.6c3.31-9.12,14.91-15.5,28.21-15.5s24.91,6.37,28.21,15.5
		c1.05,2.9,4.18,4.48,7.14,3.6c3.65-1.08,7.43-1.63,11.23-1.62c15.78,0,29.12,9.32,29.12,20.38c-0.02,2.17-0.52,4.3-1.47,6.25
		C433.61,75.45,433.61,77.27,434.35,78.85z"/>
	<rect x="331.01" y="70.54" class="st0" width="11.65" height="11.65"/>
	<rect x="354.31" y="70.54" class="st0" width="11.65" height="11.65"/>
	<rect x="377.6" y="70.54" class="st0" width="11.65" height="11.65"/>
</g>
</svg>
