<?xml version="1.0" encoding="utf-8"?>
<!-- Generator: Adobe Illustrator 25.2.1, SVG Export Plug-In . SVG Version: 6.00 Build 0)  -->
<svg version="1.1" id="Layer_1" xmlns="http://www.w3.org/2000/svg" xmlns:xlink="http://www.w3.org/1999/xlink" x="0px" y="0px"
	 viewBox="0 0 389 252" style="enable-background:new 0 0 389 252;" xml:space="preserve">
<style type="text/css">
	.st0{fill-rule:evenodd;clip-rule:evenodd;fill:#FFFFFF;}
	.st1{fill:#FFFFFF;}
</style>
<g>
	<path class="st0" d="M239.3,48.1l1.2,0.3l1.1,0.5l1,0.6l0.9,0.8l0.7,0.8l0.5,0.9l0.3,1l0,1.1l-0.2,0.8l-0.5,0.8l-0.7,0.7l-0.9,0.6
		l-1,0.5l-1.1,0.4l-1.2,0.2l-1.3,0l-1.2-0.2l-1.1-0.4l-1-0.6l-0.9-0.8l-0.7-0.8l-0.5-0.9l-0.2-1l0-1l0.3-0.9l0.5-0.8l0.7-0.7
		l0.8-0.6l1-0.5l1.1-0.4l1.2-0.2L239.3,48.1z M183.2,20.1l0.9,0.1l0.9,0.3l0.8,0.3l0.8,0.4l0.8,0.4L188,22l0.7,0.5l0.6,0.5l0.5,0.6
		l0.5,0.6l0.4,0.7l0.3,0.7l0.2,0.7l0.1,0.7l0,0.8l0,0.8l-0.1,0.7l-0.2,0.7l-0.3,0.6l-0.4,0.6l-0.5,0.6l-0.5,0.5l-0.6,0.5l-0.7,0.4
		l-0.7,0.4l-0.8,0.4l-0.8,0.3l-0.9,0.2l-0.9,0.2l-0.9,0.1H182l-0.9,0l-0.9-0.1l-0.9-0.2l-0.8-0.3l-0.8-0.4l-0.7-0.4l-0.7-0.4
		l-0.7-0.5l-0.6-0.5l-0.5-0.6l-0.5-0.6l-0.4-0.7l-0.3-0.7l-0.2-0.7l-0.1-0.7l0-0.7l0.1-0.8l0.1-0.7l0.2-0.7l0.3-0.7l0.4-0.6l0.5-0.6
		l0.5-0.5l0.6-0.5l0.7-0.4l0.7-0.4l0.8-0.4l0.9-0.3l0.9-0.3l0.9-0.2l0.9-0.1l1-0.1H183.2z M131.2,48.1l1.2,0.3l1.1,0.5l1,0.6
		l0.8,0.8l0.6,0.8l0.5,0.9l0.2,1V54l-0.2,0.8l-0.5,0.8l-0.6,0.7l-0.9,0.6l-1,0.5l-1.1,0.4l-1.2,0.2l-1.3,0l-1.2-0.2l-1.1-0.4l-1-0.6
		l-0.9-0.8l-0.7-0.8l-0.5-0.9l-0.3-1v-1l0.3-0.9l0.5-0.8l0.7-0.7l0.8-0.6l1-0.5l1.1-0.4l1.2-0.2L131.2,48.1z M237.5,94l0.2-1.5
		l0.4-1.5l0.5-1.6l0.6-1.6l0.7-1.6l0.8-1.6l0.9-1.5l0.9-1.3l0.9-1.2l1-1l0.9-0.8l0.9-0.5l0.9-0.3L248,78l0.8,0.4l0.7,0.8l-0.2,1.5
		l-0.2,1.5l-0.3,1.5l-0.3,1.5l-0.4,1.5l-0.4,1.5l-0.5,1.4l-0.5,1.4l-0.5,1.4l-0.5,1.3l-0.6,1.3l-0.6,1.3l-0.7,1.2l-0.7,1.2l-0.8,1.1
		l-0.8,1.1l-0.5-0.6l-0.6-0.8l-0.6-0.9l-0.6-1l-0.6-1l-0.5-1l-0.4-0.8L237.5,94z M226.1,127.9l0-1l0.1-1l0.1-1l0.1-1l0.1-0.9l0.1-1
		l0.1-0.9l0.1-0.9l0.2-0.9l0.2-0.9l0.2-0.9l0.2-0.9l0.2-0.9l0.2-0.9l0.2-0.9l0.3-0.9l0.2-0.9l0.3-0.9l0.2-0.9l0.3-0.8l0.3-0.9
		l0.3-0.9l0.3-0.8l0.3-0.8l0.3-0.9l0.3-0.8l0.3-0.9l0.3-0.8l0.4-0.8l0.3-0.8l0.4-0.9l0.4-0.8l0.5,0.8l0.5,0.8l0.5,0.8l0.5,0.9
		l0.6,0.8l0.7,0.8l0.7,0.8l0.9,0.8l0.5-0.1l0.5-0.1l0.5-0.1l0.5-0.1l0.5-0.1l0.4-0.1l0.5-0.1l0.5-0.1l0.4-0.1l0.5-0.1l0.5-0.1
		l0.5-0.1l0.4-0.1l0.5-0.1l0.5-0.1l0.5-0.1l0.2-1.3l0.3-1.2l0.3-1.2l0.4-1.1l0.4-1.1l0.5-1.1l0.5-1.1l0.5-1.2l0.5-1.2l0.6-1.3
		l0.5-1.4l0.5-1.5l0.5-1.6l0.5-1.7l0.5-1.9l0.5-2l0.6,1.2l0.6,1.2l0.5,1.3l0.5,1.3l0.5,1.3l0.5,1.3l0.5,1.3l0.5,1.4l0.4,1.4l0.4,1.4
		l0.4,1.4l0.4,1.4l0.4,1.4l0.3,1.5l0.3,1.5l0.3,1.5l0.3,1.5l0.3,1.5l0.3,1.5l0.2,1.5l0.2,1.5l0.2,1.5l0.2,1.5l0.2,1.5l0.2,1.5
		l0.2,1.5l0.2,1.5l0.2,1.4l0.2,1.5l0.2,1.4l0.1,1.4l0.2,1.4l0.3,1.6l0.7,1.1l1,0.7l1.2,0.3l1.1-0.2l1-0.5l0.7-0.8l0.3-1.1l-0.2-1.6
		l-0.2-1.7l-0.2-1.6l-0.2-1.6l-0.2-1.7l-0.3-1.6l-0.3-1.6l-0.3-1.7l-0.3-1.6l-0.3-1.6l-0.4-1.6l-0.3-1.6l-0.4-1.6l-0.4-1.6l-0.4-1.6
		l-0.5-1.6l-0.5-1.6l-0.5-1.6l-0.5-1.6l-0.5-1.6l-0.5-1.6l-0.5-1.5l-0.5-1.6l-0.6-1.5l-0.6-1.5l-0.6-1.5l-0.6-1.5l-0.6-1.5l-0.6-1.5
		l-0.7-1.5l-0.7-1.5l-0.7-1.5v-1.6l0.1-1.7l0.1-1.8l0.1-1.8l0.1-1.9l0.2-1.8l0.2-1.9l0.2-1.8l0.3-1.8l0.3-1.8l0.3-1.7l0.3-1.7
		l0.3-1.5l0.3-1.5l0.4-1.4l0.3-1.2l0.1-0.4l0-0.4l0-0.4v-0.4V48l0-0.4l0-0.4l0-0.3L255.8,57l-0.9-0.9l0.9-2.6l1.5-9.4l-0.3,1l-0.3,1
		l-0.3,0.9l-0.3,1l-0.3,1l-0.3,1l-0.3,1l-0.3,1l-0.3,1l-0.2,1l-0.2,1l-0.3,1l-0.2,1l-0.2,1l-0.2,1l-0.2,1l-0.2,1l-0.2,1l-0.2,1
		l-0.2,1l-0.2,1l-0.2,1l-0.2,1l-0.2,1l-0.2,1l-0.2,1l-0.2,1l-0.2,1l-0.2,1l-0.2,1l-0.2,1l-0.2,1l-0.9-0.5l-0.9-0.4l-0.9-0.2l-0.9,0
		l-0.9,0.1l-0.9,0.2l-1,0.4l-1,0.5l-1,0.6l-1,0.7l-1.1,0.8l-1,0.8l-1.1,1l-1.1,1l-1.2,1.1l-1.2,1.1l-0.4-1l-0.4-1l-0.4-1l-0.3-0.9
		l-0.3-0.9l-0.3-0.9l-0.3-0.9l-0.3-0.9l-0.3-0.9l-0.3-1l-0.3-1l-0.4-1.1l-0.3-1.1l-0.4-1.2l-0.4-1.2l-0.4-1.4l-0.7-0.7l-0.7-0.4
		l-0.8-0.1l-0.7,0.1l-0.6,0.3l-0.6,0.4l-0.5,0.6l-0.3,0.7l0.2,1.5l0.3,1.6l0.3,1.7l0.4,1.7l0.4,1.7l0.4,1.8l0.5,1.7l0.5,1.7l0.5,1.7
		l0.5,1.6l0.5,1.5l0.5,1.5l0.5,1.4l0.5,1.3l0.5,1.1l0.5,1.1l-0.5,1.1l-0.5,1.2l-0.5,1.1l-0.5,1.1l-0.5,1.1l-0.5,1.1l-0.5,1.1
		l-0.5,1.1l-0.5,1.1l-0.5,1.1l-0.5,1.1l-0.5,1.1l-0.5,1.1l-0.5,1.1L223,109l-0.4,1.1l-0.3-1.5l-0.4-1.5l-0.3-1.5l-0.4-1.5l-0.4-1.5
		l-0.4-1.5l-0.4-1.5l-0.4-1.5l-0.4-1.5l-0.5-1.5l-0.4-1.5L218,92l-0.5-1.5l-0.5-1.5l-0.5-1.5l-0.5-1.5l-0.5-1.5l-0.5-1.5l-0.5-1.5
		l-0.5-1.5l-0.5-1.5l-0.5-1.5l-0.6-1.4l-0.5-1.5l-0.6-1.4l-0.6-1.5l-0.6-1.4l-0.6-1.4l-0.6-1.4l-0.7-1.4l-0.6-1.4l-0.7-1.4V62v-1.2
		v-1.2l0-1.3l0-1.3l0.1-1.3l0-1.3l0.1-1.3l0.1-1.4l0.1-1.4l0.1-1.4l0.2-1.4l0.1-1.4l0.2-1.4l0.1-1.4l0.2-1.4l0.2-1.4l0.2-1.4L209,38
		l0.2-1.3l0.2-1.3l0.2-1.3l0.2-1.2l0.2-1.2l0.2-1.2l0.2-1.1l0.2-1.1l0.2-1.1l0.2-1l0.2-0.9l0.2-0.9l0.2-0.8l0.2-0.9l0.1-0.8l0-0.7
		l0-0.6l0-0.5v-0.5v-0.4l0.1-0.4l-4.7,14.4l-0.9-1.5l0.5-4l2.8-13.7l-0.5,1.5L209,17l-0.5,1.4l-0.5,1.5l-0.4,1.5l-0.4,1.5l-0.4,1.5
		l-0.4,1.5l-0.4,1.5l-0.4,1.5l-0.4,1.5l-0.3,1.5l-0.4,1.5l-0.3,1.5l-0.3,1.5l-0.3,1.5l-0.3,1.5l-0.3,1.5l-0.3,1.5l-0.3,1.5l-0.3,1.5
		l-0.3,1.5l-0.3,1.5l-0.3,1.5l-0.3,1.5l-0.3,1.5l-0.3,1.5l-0.3,1.5l-0.3,1.5l-0.3,1.5l-0.3,1.5l-0.3,1.5l-1.5-0.8l-1.4-0.5l-1.4-0.2
		l-1.4,0l-1.4,0.2l-1.4,0.4L189,61l-1.4,0.8l-1.5,0.9l-1.5,1.1l-1.5,1.2l-1.6,1.3l-1.6,1.4l-1.7,1.5l-1.8,1.6l-1.8,1.7l-0.5-1.5
		l-0.5-1.5L173,68l-0.5-1.4l-0.4-1.4l-0.5-1.4l-0.5-1.4l-0.4-1.4l-0.5-1.4l-0.5-1.5l-0.5-1.5l-0.5-1.6l-0.5-1.7l-0.6-1.8l-0.6-1.9
		l-0.7-2.1l-0.9-1l-1-0.5l-1-0.2l-1,0.2l-1,0.4l-0.9,0.8l-0.7,0.9l-0.5,1.1l0.1,1.1l0.2,1.2l0.2,1.2l0.2,1.2l0.2,1.2l0.2,1.2
		l0.3,1.3l0.2,1.3l0.3,1.2l0.3,1.3l0.3,1.3l0.3,1.3l0.3,1.3l0.3,1.3l0.4,1.3l0.3,1.2l0.4,1.2l0.3,1.2l0.4,1.2l0.4,1.2l0.4,1.2
		l0.4,1.1l0.4,1.1l0.4,1.1l0.4,1.1l0.4,1l0.4,1l0.4,0.9l0.4,0.9l0.4,0.8l0.4,0.8l0.4,0.8l-0.8,1.7l-0.8,1.8l-0.7,1.7l-0.8,1.7
		l-0.7,1.7L165,96l-0.7,1.7l-0.7,1.7l-0.7,1.7l-0.7,1.7l-0.7,1.7l-0.6,1.7l-0.6,1.7l-0.6,1.7l-0.6,1.7l-0.6,1.7l-0.2-1.2l-0.2-1.1
		l-0.2-1.2l-0.2-1.2l-0.2-1.1l-0.3-1.2l-0.3-1.1l-0.3-1.1l-0.3-1.1l-0.3-1.1l-0.3-1.1l-0.3-1.1l-0.4-1.1l-0.3-1.1l-0.3-1.1l-0.4-1.1
		l-0.4-1.1l-0.4-1.1l-0.4-1.1l-0.4-1.1l-0.4-1.1l-0.4-1.1l-0.5-1.1l-0.4-1.1l-0.5-1.1l-0.5-1.1l-0.5-1.1l-0.5-1.1l-0.5-1.1l-0.5-1.1
		l-0.5-1.1l-0.5-1.1v-1.6l0.1-1.7l0.1-1.7l0.1-1.8l0.1-1.9l0.2-1.9l0.2-1.9l0.2-1.9l0.3-1.8l0.3-1.8l0.3-1.7l0.3-1.7l0.3-1.5
		l0.3-1.5l0.3-1.3l0.3-1.2l0.1-0.4l0.1-0.4l0-0.4l0-0.4l0-0.4v-0.4l0-0.4v-0.3L147.6,57l-0.8-0.9l0.5-2.6l2.1-9.4l-0.4,1l-0.3,1
		l-0.4,0.9l-0.3,1l-0.3,1l-0.3,1l-0.3,1l-0.3,1l-0.3,1l-0.3,1l-0.3,1l-0.2,1l-0.2,1l-0.2,1l-0.2,1l-0.2,1l-0.2,1l-0.2,1l-0.2,1
		l-0.2,1l-0.2,1l-0.2,1l-0.2,1l-0.2,1l-0.2,1l-0.2,1l-0.2,1l-0.2,1l-0.2,1l-0.2,1l-0.2,1l-0.2,1l-1-0.5l-0.9-0.4l-0.9-0.2l-0.9,0
		l-0.9,0.1l-0.9,0.2l-0.9,0.4l-0.9,0.5l-1,0.6l-1,0.7l-1,0.8l-1,0.8l-1,1l-1.1,1l-1.1,1.1l-1.2,1.1l-0.4-1l-0.4-1l-0.4-1l-0.4-0.9
		l-0.3-0.9l-0.4-0.9l-0.3-0.9l-0.3-0.9l-0.3-0.9l-0.3-1l-0.4-1l-0.3-1.1l-0.4-1.1l-0.4-1.2l-0.4-1.2l-0.4-1.4l-0.6-0.7l-0.7-0.4
		l-0.7-0.1l-0.7,0.1l-0.6,0.3l-0.6,0.4l-0.5,0.6l-0.4,0.7l0.2,1.5l0.3,1.6l0.3,1.7l0.3,1.7l0.4,1.7l0.4,1.8l0.5,1.7l0.5,1.7l0.5,1.7
		l0.5,1.6l0.5,1.5l0.5,1.5l0.5,1.4l0.5,1.3l0.5,1.1l0.5,1.1l-0.5,1.1l-0.5,1.1l-0.5,1.1l-0.5,1.1l-0.5,1.1l-0.5,1l-0.5,1.1l-0.5,1.1
		l-0.5,1.1l-0.4,1l-0.5,1.1l-0.4,1.1l-0.4,1l-0.4,1.1l-0.4,1.1l-0.4,1.1l-0.4,1.1l-0.4,1.1l-0.3,1.1l-0.4,1.1l-0.3,1.1l-0.3,1.1
		l-0.2,1.1l-0.3,1.1l-0.2,1.1l-0.2,1.1l-0.2,1.2l-0.2,1.1l-0.1,1.2l-0.1,1.2l-0.1,1.2l-0.1,1.2l0.2,1.5l0.4,1.2l0.6,0.8l0.8,0.5
		l0.9,0.1l1-0.3l1.2-0.8l1.2-1.2l0-1l0.1-1l0-1l0.1-1l0.1-1l0.1-1l0.1-1l0.1-1l0.1-1l0.2-1l0.2-1l0.2-0.9l0.2-1l0.2-0.9l0.2-1
		l0.3-0.9l0.2-0.9l0.3-0.9l0.3-0.9l0.3-0.9l0.3-0.9l0.3-0.9l0.3-0.9l0.3-0.9l0.3-0.9l0.3-0.9l0.3-0.9l0.3-0.9l0.3-0.9l0.4-0.9
		l0.3-0.9l0.4-0.9l0.4,0.8l0.5,0.8l0.5,0.8l0.5,0.9l0.5,0.8l0.6,0.8l0.6,0.8l0.7,0.8l0.6-0.1l0.5-0.1l0.5-0.1l0.5-0.1l0.5-0.1
		l0.5-0.1l0.5-0.1l0.5-0.1l0.5-0.1l0.5-0.1l0.5-0.1l0.5-0.1l0.5-0.1l0.5-0.1l0.5-0.1l0.5-0.1l0.1-1.3l0.2-1.2l0.2-1.2l0.3-1.1
		l0.4-1.1l0.4-1.1l0.5-1.1l0.5-1.2l0.5-1.2l0.5-1.3l0.5-1.4l0.5-1.5l0.5-1.6l0.5-1.7l0.5-1.9l0.5-2l0.6,1.2l0.6,1.2l0.6,1.3l0.5,1.3
		l0.5,1.3l0.5,1.3l0.5,1.3l0.5,1.4l0.5,1.4l0.4,1.4l0.4,1.4l0.4,1.4l0.3,1.4l0.3,1.5l0.3,1.5l0.3,1.5l0.3,1.5l0.2,1.5l0.3,1.5
		l0.2,1.5l0.2,1.5l0.2,1.5l0.2,1.5l0.2,1.5l0.2,1.5l0.1,1.5l0.2,1.5l0.1,1.4l0.2,1.5l0.1,1.4l0.1,1.4l0.1,1.4v0.2v0.2v0.2l0,0.2
		l0,0.2l0.1,0.2l0.1,0.2l0.1,0.1l-0.1,0.6l-0.1,0.7l-0.1,0.6l-0.1,0.6l-0.1,0.6l-0.1,0.6l-0.1,0.6l0,0.6l-0.1,0.6l0,0.6l0,0.6l0,0.6
		l0,0.7l0,0.7v0.7v0.7l0.1,1.1l0.2,1.1l0.3,0.9l0.4,0.8l0.5,0.7l0.5,0.6l0.6,0.4l0.7,0.3l0.7,0.2l0.7,0l0.8-0.1l0.8-0.3l0.8-0.4
		l0.8-0.6l0.8-0.8l0.8-1l0.1-1.6l0.1-1.5l0.1-1.5l0.1-1.5l0.2-1.5l0.2-1.5l0.2-1.5l0.2-1.5l0.2-1.5l0.2-1.5l0.3-1.5l0.3-1.4l0.3-1.4
		l0.3-1.4l0.3-1.4l0.4-1.4l0.4-1.4l0.4-1.4l0.4-1.4l0.4-1.4l0.5-1.3l0.4-1.4l0.5-1.3l0.5-1.3l0.5-1.3l0.5-1.3l0.5-1.3l0.5-1.3
		l0.5-1.3l0.5-1.3l0.5-1.3l0.5-1.3l0.3,0.6l0.4,0.6l0.3,0.6l0.4,0.6l0.4,0.6l0.4,0.6l0.4,0.7l0.4,0.6l0.4,0.6l0.5,0.7l0.5,0.6
		l0.5,0.6l0.5,0.6l0.6,0.6l0.6,0.6l0.6,0.6l0.8-0.2l0.8-0.2l0.7-0.2l0.8-0.2l0.7-0.1l0.7-0.2l0.7-0.2l0.7-0.1l0.7-0.1l0.7-0.2
		l0.7-0.2l0.7-0.1l0.7-0.2l0.7-0.2l0.7-0.2l0.7-0.2l0.1-1l0.1-1l0.1-0.9l0.2-0.9l0.2-0.9l0.2-0.9l0.2-0.8l0.3-0.9l0.3-0.8l0.3-0.9
		l0.3-0.8l0.3-0.9l0.3-0.8l0.4-0.9l0.4-0.9l0.4-0.9l0.4-0.9l0.4-1l0.4-1l0.4-1l0.4-1.1l0.4-1.1l0.4-1.1l0.4-1.1l0.4-1.2l0.4-1.2
		l0.4-1.3l0.4-1.4l0.4-1.4l0.4-1.5l0.4-1.5l0.4-1.6l0.9,1.9l0.9,1.9l0.9,1.9l0.8,1.9l0.8,1.9l0.7,2l0.7,2l0.7,2l0.6,2.1l0.6,2.1
		l0.5,2.1l0.5,2.1l0.5,2.2l0.5,2.2l0.5,2.2l0.5,2.2l0.4,2.2l0.4,2.2l0.4,2.2l0.4,2.2l0.3,2.2l0.3,2.2l0.3,2.2l0.3,2.2l0.3,2.2
		l0.2,2.2l0.3,2.2l0.2,2.2l0.3,2.1l0.2,2.2l0.2,2.1l0.2,2.1l0,1.3l0.3,1.1l0.5,0.9l0.6,0.7l0.7,0.6l0.9,0.4l0.9,0.3l0.9,0.1h0.9
		l0.9-0.2l0.9-0.4l0.8-0.4l0.6-0.6l0.5-0.7l0.3-0.8l0.1-0.9l-0.1-0.7l-0.1-0.7l-0.1-0.7l-0.1-0.7l-0.1-0.7l-0.1-0.7l-0.1-0.7
		l-0.1-0.7l-0.1-0.7l-0.1-0.7l-0.1-0.7l-0.1-0.7l-0.1-0.7l-0.1-0.7l-0.1-0.7L226.1,127.9z M129.3,94l0.2-1.5l0.4-1.5l0.5-1.6
		l0.6-1.6l0.7-1.6l0.8-1.6l0.9-1.5l0.9-1.3l0.9-1.2l1-1l1-0.8l1-0.5l0.9-0.3l0.9,0.1l0.9,0.4l0.8,0.8l-0.2,1.5l-0.3,1.5l-0.3,1.5
		l-0.4,1.5l-0.4,1.5l-0.5,1.5l-0.5,1.4l-0.5,1.4l-0.5,1.4l-0.6,1.3L137,95l-0.6,1.3l-0.7,1.2l-0.7,1.2l-0.7,1.1l-0.8,1.1l-0.5-0.6
		l-0.6-0.8l-0.7-0.9l-0.6-1l-0.6-1l-0.5-1l-0.4-0.8L129.3,94z M180.2,88.1l0.1-1.1l0.2-1.1l0.2-1.1l0.3-1.1l0.4-1.2l0.4-1.2l0.5-1.2
		l0.5-1.2l0.5-1.2l0.6-1.2l0.5-1.1l0.6-1.1l0.6-1.1l0.6-1.1l0.7-1.1l0.7-1l0.7-0.9l0.7-0.9l0.7-0.8l0.7-0.7l0.7-0.6l0.7-0.5l0.7-0.4
		l0.7-0.3l0.7-0.2l0.7-0.1h0.7l0.7,0.2l0.6,0.3l0.6,0.4l0.6,0.6l0.5,0.7l-0.2,1.1l-0.1,1.1l-0.2,1.1l-0.2,1.1l-0.2,1.1l-0.2,1.1
		l-0.2,1.1l-0.3,1.1l-0.3,1.1l-0.3,1.1l-0.3,1.1l-0.3,1.1l-0.3,1.1l-0.3,1.1l-0.4,1l-0.4,1.1l-0.4,1l-0.4,1l-0.4,1l-0.4,1l-0.5,1
		l-0.5,1l-0.5,0.9l-0.5,0.9l-0.5,0.9l-0.5,0.8l-0.5,0.9l-0.5,0.8l-0.6,0.8l-0.5,0.8l-0.6,0.8l-0.6,0.8l-0.4-0.3l-0.4-0.4l-0.5-0.5
		l-0.5-0.6l-0.5-0.6l-0.5-0.7l-0.5-0.8l-0.5-0.8l-0.5-0.8l-0.5-0.8l-0.4-0.8l-0.4-0.8l-0.3-0.7l-0.3-0.7l-0.2-0.6L180.2,88.1z"/>
	<polygon class="st1" points="14.6,173.7 14.6,154.6 25.5,154.6 25.5,157.9 18.9,157.9 18.9,162.3 25,162.3 25,165.6 18.9,165.6 
		18.9,170.3 25.6,170.3 25.6,173.7 	"/>
	<path class="st1" d="M27.9,172.9v-3.1c0.8,0.5,1.5,0.8,2.1,1c0.6,0.2,1.2,0.3,1.8,0.3c0.4,0,0.8-0.1,1-0.3c0.2-0.2,0.4-0.4,0.4-0.7
		c0-0.3-0.1-0.5-0.2-0.6c-0.2-0.2-0.5-0.4-1-0.6c-1.9-0.9-3-1.6-3.5-2.1c-0.5-0.6-0.7-1.3-0.7-2.3c0-1.2,0.4-2.1,1.2-2.9
		c0.8-0.7,1.9-1.1,3.1-1.1c0.7,0,1.4,0.1,2.1,0.3c0.7,0.2,1.4,0.5,2.1,0.9v2.8c-0.7-0.4-1.4-0.8-2.1-1c-0.7-0.2-1.3-0.4-1.9-0.4
		c-0.4,0-0.8,0.1-1,0.2c-0.2,0.1-0.3,0.4-0.3,0.6c0,0.5,0.5,0.9,1.6,1.4c0.4,0.2,0.6,0.3,0.8,0.4c1.3,0.6,2.2,1.2,2.7,1.8
		c0.5,0.6,0.7,1.4,0.7,2.3c0,1.4-0.4,2.4-1.3,3.2c-0.9,0.7-2.1,1.1-3.7,1.1c-0.6,0-1.3-0.1-1.9-0.3
		C29.2,173.5,28.6,173.3,27.9,172.9"/>
	<path class="st1" d="M48.1,173.1c-0.6,0.3-1.2,0.5-1.7,0.6c-0.6,0.1-1.2,0.2-1.8,0.2c-1.9,0-3.4-0.6-4.5-1.8
		c-1.1-1.2-1.7-2.8-1.7-4.9c0-2.1,0.6-3.7,1.7-4.9c1.1-1.2,2.6-1.8,4.5-1.8c0.5,0,1.1,0.1,1.6,0.2c0.5,0.1,1.1,0.4,1.7,0.6v3.1
		c-0.5-0.3-1-0.5-1.5-0.6c-0.4-0.1-0.8-0.2-1.2-0.2c-0.9,0-1.6,0.3-2.1,1c-0.5,0.7-0.8,1.6-0.8,2.7c0,1.1,0.3,2,0.8,2.7
		c0.5,0.6,1.3,1,2.2,1c0.4,0,0.8-0.1,1.2-0.2c0.4-0.1,0.9-0.4,1.5-0.7V173.1z"/>
	<path class="st1" d="M53.5,167.2c0,1.3,0.2,2.2,0.5,2.9c0.4,0.7,0.9,1,1.6,1c0.7,0,1.3-0.3,1.6-1c0.4-0.7,0.6-1.6,0.6-2.9
		c0-1.3-0.2-2.2-0.6-2.9c-0.4-0.7-0.9-1-1.6-1c-0.7,0-1.3,0.3-1.6,1C53.7,165,53.5,166,53.5,167.2 M49.6,167.3c0-2.1,0.5-3.7,1.6-5
		c1.1-1.2,2.6-1.8,4.4-1.8c1.9,0,3.3,0.6,4.4,1.8c1.1,1.2,1.6,2.9,1.6,5c0,2.1-0.5,3.7-1.6,4.9c-1.1,1.2-2.6,1.8-4.4,1.8
		c-1.9,0-3.4-0.6-4.4-1.8C50.1,171,49.6,169.3,49.6,167.3z"/>
	<rect x="63.9" y="154.6" class="st1" width="3.8" height="19.1"/>
	<path class="st1" d="M76.6,172.3c-0.7,0.6-1.3,1-1.8,1.3c-0.5,0.3-1.1,0.4-1.7,0.4c-1,0-1.7-0.3-2.3-0.9c-0.6-0.6-0.9-1.4-0.9-2.4
		c0-1.2,0.5-2.2,1.5-3c1-0.8,2.7-1.6,5.1-2.4v-1.1c0-0.3-0.1-0.6-0.3-0.8c-0.2-0.2-0.6-0.2-1-0.2c-0.7,0-1.5,0.2-2.2,0.5
		c-0.7,0.3-1.4,0.8-2.1,1.4v-2.9c0.8-0.6,1.6-1.1,2.4-1.4c0.8-0.3,1.7-0.4,2.6-0.4c1.5,0,2.6,0.3,3.3,1c0.7,0.7,1,1.7,1,3.2v5.7
		c0,0.2,0,0.3,0.1,0.3c0.1,0.1,0.1,0.1,0.3,0.1c0.1,0,0.2,0,0.4-0.1c0.2-0.1,0.4-0.2,0.6-0.3v2.4c-0.6,0.4-1.2,0.8-1.7,1
		c-0.5,0.2-0.9,0.3-1.3,0.3c-0.5,0-0.9-0.1-1.3-0.4C77,173.3,76.7,172.9,76.6,172.3 M76.4,170.4v-3.1c-1,0.3-1.8,0.7-2.2,1.1
		c-0.5,0.4-0.7,0.9-0.7,1.4c0,0.4,0.1,0.8,0.3,1c0.2,0.2,0.5,0.3,0.9,0.3c0.3,0,0.6-0.1,0.9-0.2C75.8,170.8,76.1,170.7,76.4,170.4z"
		/>
	<polygon class="st1" points="90.7,173.7 90.7,154.6 94.7,154.6 99.8,165 99.8,154.6 103.9,154.6 103.9,173.7 100.2,173.7 
		94.7,162.8 94.7,173.7 	"/>
	<path class="st1" d="M112.7,172.3c-0.7,0.6-1.3,1-1.8,1.3c-0.5,0.3-1.1,0.4-1.7,0.4c-1,0-1.7-0.3-2.3-0.9c-0.6-0.6-0.9-1.4-0.9-2.4
		c0-1.2,0.5-2.2,1.5-3c1-0.8,2.7-1.6,5.1-2.4v-1.1c0-0.3-0.1-0.6-0.3-0.8c-0.2-0.2-0.6-0.2-1-0.2c-0.7,0-1.5,0.2-2.2,0.5
		c-0.7,0.3-1.4,0.8-2.1,1.4v-2.9c0.8-0.6,1.6-1.1,2.4-1.4c0.8-0.3,1.7-0.4,2.6-0.4c1.5,0,2.6,0.3,3.3,1c0.7,0.7,1,1.7,1,3.2v5.7
		c0,0.2,0,0.3,0.1,0.3c0.1,0.1,0.1,0.1,0.3,0.1c0.1,0,0.2,0,0.4-0.1c0.2-0.1,0.4-0.2,0.6-0.3v2.4c-0.6,0.4-1.2,0.8-1.7,1
		c-0.5,0.2-0.9,0.3-1.3,0.3c-0.5,0-0.9-0.1-1.3-0.4C113.1,173.3,112.8,172.9,112.7,172.3 M112.5,170.4v-3.1c-1,0.3-1.8,0.7-2.2,1.1
		c-0.5,0.4-0.7,0.9-0.7,1.4c0,0.4,0.1,0.8,0.3,1c0.2,0.2,0.5,0.3,0.9,0.3c0.3,0,0.6-0.1,0.9-0.2
		C111.9,170.8,112.2,170.7,112.5,170.4z"/>
	<path class="st1" d="M128.3,173.1c-0.6,0.3-1.2,0.5-1.7,0.6c-0.6,0.1-1.2,0.2-1.8,0.2c-1.9,0-3.4-0.6-4.5-1.8
		c-1.1-1.2-1.7-2.8-1.7-4.9c0-2.1,0.6-3.7,1.7-4.9c1.1-1.2,2.6-1.8,4.5-1.8c0.5,0,1.1,0.1,1.6,0.2c0.5,0.1,1.1,0.4,1.7,0.6v3.1
		c-0.5-0.3-1-0.5-1.5-0.6c-0.4-0.1-0.8-0.2-1.2-0.2c-0.9,0-1.6,0.3-2.1,1c-0.5,0.7-0.8,1.6-0.8,2.7c0,1.1,0.3,2,0.8,2.7
		c0.5,0.6,1.3,1,2.2,1c0.4,0,0.8-0.1,1.2-0.2c0.4-0.1,0.9-0.4,1.5-0.7V173.1z"/>
	<path class="st1" d="M130.5,173.7v-13h3.8v13H130.5z M130.2,156.5c0-0.6,0.2-1.1,0.6-1.6c0.4-0.4,0.9-0.6,1.6-0.6
		c0.6,0,1.1,0.2,1.6,0.6c0.4,0.4,0.6,1,0.6,1.6c0,0.6-0.2,1.1-0.6,1.5c-0.4,0.4-0.9,0.6-1.6,0.6c-0.6,0-1.1-0.2-1.6-0.6
		C130.5,157.7,130.2,157.1,130.2,156.5z"/>
	<path class="st1" d="M140.4,167.2c0,1.3,0.2,2.2,0.5,2.9c0.4,0.7,0.9,1,1.6,1c0.7,0,1.3-0.3,1.6-1c0.4-0.7,0.6-1.6,0.6-2.9
		c0-1.3-0.2-2.2-0.6-2.9c-0.4-0.7-0.9-1-1.6-1c-0.7,0-1.3,0.3-1.6,1C140.5,165,140.4,166,140.4,167.2 M136.5,167.3
		c0-2.1,0.5-3.7,1.6-5c1.1-1.2,2.6-1.8,4.4-1.8c1.9,0,3.3,0.6,4.4,1.8c1.1,1.2,1.6,2.9,1.6,5c0,2.1-0.5,3.7-1.6,4.9
		c-1.1,1.2-2.6,1.8-4.4,1.8c-1.9,0-3.4-0.6-4.4-1.8C137,171,136.5,169.3,136.5,167.3z"/>
	<path class="st1" d="M150.7,173.7v-13h3.7l0.1,1.6c0.5-0.7,1.1-1.1,1.7-1.4c0.6-0.3,1.3-0.4,2-0.4c1.2,0,2.1,0.4,2.8,1.3
		c0.6,0.9,1,2.1,1,3.7v8.2h-3.8v-7.6c0-1-0.1-1.6-0.3-2c-0.2-0.4-0.6-0.6-1.1-0.6c-0.4,0-0.8,0.2-1.2,0.5c-0.4,0.3-0.7,0.8-1,1.5
		v8.3H150.7z"/>
	<path class="st1" d="M170.7,172.3c-0.7,0.6-1.3,1-1.8,1.3c-0.5,0.3-1.1,0.4-1.7,0.4c-1,0-1.7-0.3-2.3-0.9c-0.6-0.6-0.9-1.4-0.9-2.4
		c0-1.2,0.5-2.2,1.5-3c1-0.8,2.7-1.6,5.1-2.4v-1.1c0-0.3-0.1-0.6-0.3-0.8c-0.2-0.2-0.6-0.2-1-0.2c-0.7,0-1.5,0.2-2.2,0.5
		c-0.7,0.3-1.4,0.8-2.1,1.4v-2.9c0.8-0.6,1.6-1.1,2.4-1.4c0.8-0.3,1.7-0.4,2.6-0.4c1.5,0,2.6,0.3,3.3,1c0.7,0.7,1,1.7,1,3.2v5.7
		c0,0.2,0,0.3,0.1,0.3c0.1,0.1,0.1,0.1,0.3,0.1c0.1,0,0.2,0,0.4-0.1c0.2-0.1,0.4-0.2,0.6-0.3v2.4c-0.6,0.4-1.2,0.8-1.7,1
		c-0.5,0.2-0.9,0.3-1.3,0.3c-0.5,0-0.9-0.1-1.3-0.4C171,173.3,170.8,172.9,170.7,172.3 M170.5,170.4v-3.1c-1,0.3-1.8,0.7-2.2,1.1
		c-0.5,0.4-0.7,0.9-0.7,1.4c0,0.4,0.1,0.8,0.3,1c0.2,0.2,0.5,0.3,0.9,0.3c0.3,0,0.6-0.1,0.9-0.2
		C169.9,170.8,170.2,170.7,170.5,170.4z"/>
	<rect x="177.3" y="154.6" class="st1" width="3.8" height="19.1"/>
	<path class="st1" d="M198.7,172.5c-0.4,0.5-0.9,0.9-1.4,1.1c-0.5,0.2-1.1,0.4-1.7,0.4c-1.5,0-2.7-0.6-3.6-1.9
		c-0.9-1.3-1.4-2.9-1.4-4.9c0-2,0.5-3.6,1.4-4.9c0.9-1.3,2.1-1.9,3.4-1.9c0.6,0,1.2,0.1,1.8,0.3c0.5,0.2,1.1,0.6,1.6,1v-7.2h3.8
		v19.1h-3.6L198.7,172.5z M198.6,170.1v-5.6c-0.3-0.3-0.6-0.5-0.9-0.7c-0.3-0.1-0.6-0.2-1-0.2c-0.7,0-1.3,0.3-1.7,1
		c-0.4,0.7-0.6,1.6-0.6,2.7c0,1.2,0.2,2.1,0.6,2.7c0.4,0.6,1,1,1.8,1c0.3,0,0.7-0.1,1-0.2C198.1,170.6,198.4,170.4,198.6,170.1z"/>
	<path class="st1" d="M214.9,170.3v2.5c-0.8,0.4-1.5,0.7-2.2,0.9c-0.7,0.2-1.4,0.3-2.1,0.3c-1.9,0-3.4-0.6-4.5-1.7
		c-1.1-1.1-1.6-2.7-1.6-4.8c0-2.1,0.5-3.8,1.5-5.1c1-1.2,2.4-1.9,4.2-1.9c1.6,0,2.8,0.6,3.7,1.7c0.9,1.2,1.4,2.8,1.4,4.8
		c0,0.1,0,0.2,0,0.3c0,0.2,0,0.3,0,0.4h-6.8v0.2c0,1.1,0.3,1.9,0.8,2.5c0.5,0.6,1.3,0.9,2.3,0.9c0.5,0,1-0.1,1.5-0.2
		C213.6,170.8,214.2,170.6,214.9,170.3 M208.5,165.9h3.2v-0.1c0-0.9-0.1-1.6-0.4-2.1c-0.3-0.5-0.7-0.7-1.2-0.7
		c-0.5,0-0.9,0.2-1.2,0.7c-0.3,0.4-0.4,1.1-0.4,2V165.9z"/>
	<path class="st1" d="M224.6,172.4v-4.2c0.8,0.7,1.5,1.2,2.2,1.6c0.7,0.4,1.3,0.6,1.8,0.6c0.5,0,0.9-0.1,1.2-0.4
		c0.3-0.3,0.4-0.7,0.4-1.2c0-0.8-0.6-1.9-1.9-3.1l-0.2-0.2c-1.5-1.6-2.5-2.8-3-3.7c-0.4-0.8-0.7-1.7-0.7-2.7c0-1.5,0.5-2.6,1.5-3.5
		c1-0.9,2.3-1.3,3.9-1.3c0.7,0,1.4,0.1,2,0.3c0.7,0.2,1.3,0.5,2,0.9v3.6c-0.8-0.4-1.5-0.8-2.2-1c-0.7-0.2-1.2-0.3-1.7-0.3
		c-0.5,0-0.8,0.1-1.1,0.4c-0.3,0.2-0.4,0.6-0.4,1c0,0.5,0.6,1.4,1.8,2.7c0.2,0.2,0.4,0.4,0.4,0.5c1.6,1.6,2.6,2.9,3,3.7
		c0.4,0.9,0.7,1.8,0.7,2.8c0,1.6-0.5,2.9-1.5,3.9c-1,1-2.3,1.5-4,1.5c-0.8,0-1.5-0.1-2.3-0.4C226.1,173.4,225.3,173,224.6,172.4"/>
	<path class="st1" d="M243.1,172.3c-0.7,0.6-1.3,1-1.8,1.3c-0.5,0.3-1.1,0.4-1.7,0.4c-1,0-1.7-0.3-2.3-0.9c-0.6-0.6-0.9-1.4-0.9-2.4
		c0-1.2,0.5-2.2,1.5-3c1-0.8,2.7-1.6,5.1-2.4v-1.1c0-0.3-0.1-0.6-0.3-0.8c-0.2-0.2-0.6-0.2-1-0.2c-0.7,0-1.5,0.2-2.2,0.5
		c-0.7,0.3-1.4,0.8-2.1,1.4v-2.9c0.8-0.6,1.6-1.1,2.4-1.4c0.8-0.3,1.7-0.4,2.6-0.4c1.5,0,2.6,0.3,3.3,1c0.7,0.7,1,1.7,1,3.2v5.7
		c0,0.2,0,0.3,0.1,0.3c0.1,0.1,0.1,0.1,0.3,0.1c0.1,0,0.2,0,0.4-0.1c0.2-0.1,0.4-0.2,0.6-0.3v2.4c-0.6,0.4-1.2,0.8-1.7,1
		c-0.5,0.2-0.9,0.3-1.3,0.3c-0.5,0-0.9-0.1-1.3-0.4C243.5,173.3,243.2,172.9,243.1,172.3 M242.9,170.4v-3.1c-1,0.3-1.8,0.7-2.2,1.1
		c-0.5,0.4-0.7,0.9-0.7,1.4c0,0.4,0.1,0.8,0.3,1c0.2,0.2,0.5,0.3,0.9,0.3c0.3,0,0.6-0.1,0.9-0.2
		C242.3,170.8,242.6,170.7,242.9,170.4z"/>
	<path class="st1" d="M253.3,159l2.8-4.8h2.8L255,159H253.3z M257.1,172.1c-0.5,0.7-1.1,1.1-1.7,1.4c-0.6,0.3-1.3,0.4-2,0.4
		c-1.2,0-2.1-0.4-2.8-1.3c-0.6-0.9-1-2.1-1-3.7v-8.2h3.8v7.7c0,0.9,0.1,1.6,0.4,2c0.2,0.4,0.6,0.6,1.2,0.6c0.4,0,0.8-0.2,1.2-0.5
		c0.3-0.3,0.7-0.8,1-1.5v-8.3h3.8v13h-3.7L257.1,172.1z"/>
	<path class="st1" d="M271.2,172.5c-0.4,0.5-0.9,0.9-1.4,1.1c-0.5,0.2-1.1,0.4-1.7,0.4c-1.5,0-2.7-0.6-3.6-1.9
		c-0.9-1.3-1.4-2.9-1.4-4.9c0-2,0.5-3.6,1.4-4.9c0.9-1.3,2.1-1.9,3.4-1.9c0.6,0,1.2,0.1,1.8,0.3c0.5,0.2,1.1,0.6,1.6,1v-7.2h3.8
		v19.1h-3.6L271.2,172.5z M271.1,170.1v-5.6c-0.3-0.3-0.6-0.5-0.9-0.7c-0.3-0.1-0.6-0.2-1-0.2c-0.7,0-1.3,0.3-1.7,1
		c-0.4,0.7-0.6,1.6-0.6,2.7c0,1.2,0.2,2.1,0.6,2.7c0.4,0.6,1,1,1.8,1c0.3,0,0.7-0.1,1-0.2C270.5,170.6,270.8,170.4,271.1,170.1z"/>
	<path class="st1" d="M287.4,170.3v2.5c-0.8,0.4-1.5,0.7-2.2,0.9c-0.7,0.2-1.4,0.3-2.1,0.3c-1.9,0-3.4-0.6-4.5-1.7
		c-1.1-1.1-1.6-2.7-1.6-4.8c0-2.1,0.5-3.8,1.5-5.1c1-1.2,2.4-1.9,4.2-1.9c1.6,0,2.8,0.6,3.7,1.7c0.9,1.2,1.4,2.8,1.4,4.8
		c0,0.1,0,0.2,0,0.3c0,0.2,0,0.3,0,0.4H281v0.2c0,1.1,0.3,1.9,0.8,2.5c0.5,0.6,1.3,0.9,2.3,0.9c0.5,0,1-0.1,1.5-0.2
		C286.1,170.8,286.7,170.6,287.4,170.3 M281,165.9h3.2v-0.1c0-0.9-0.1-1.6-0.4-2.1c-0.3-0.5-0.7-0.7-1.2-0.7c-0.5,0-0.9,0.2-1.2,0.7
		c-0.3,0.4-0.4,1.1-0.4,2V165.9z"/>
	<path class="st1" d="M297.5,173.7v-19.1h5.5c2.2,0,3.8,0.5,4.9,1.5c1.1,1,1.7,2.4,1.7,4.3c0,1.8-0.5,3.2-1.6,4.1
		c-1.1,0.9-2.6,1.4-4.8,1.4h-1.4v7.9H297.5z M301.8,162.6h0.8c1,0,1.7-0.2,2.1-0.5c0.4-0.3,0.6-0.9,0.6-1.8c0-0.8-0.2-1.4-0.6-1.8
		c-0.4-0.4-1.1-0.6-2-0.6h-0.9V162.6z"/>
	<path class="st1" d="M315.2,159l2.8-4.8h2.8l-3.9,4.8H315.2z M319,172.1c-0.5,0.7-1.1,1.1-1.7,1.4c-0.6,0.3-1.3,0.4-2,0.4
		c-1.2,0-2.1-0.4-2.8-1.3c-0.6-0.9-1-2.1-1-3.7v-8.2h3.8v7.7c0,0.9,0.1,1.6,0.4,2c0.2,0.4,0.6,0.6,1.2,0.6c0.4,0,0.8-0.2,1.2-0.5
		c0.3-0.3,0.7-0.8,1-1.5v-8.3h3.8v13h-3.7L319,172.1z"/>
	<path class="st1" d="M325.6,173.7v-19.1h3.8v7.1c0.5-0.4,1-0.7,1.5-0.9c0.5-0.2,1-0.3,1.5-0.3c1.5,0,2.7,0.6,3.6,1.9
		c1,1.3,1.4,2.9,1.4,4.9c0,2-0.5,3.6-1.5,4.8c-1,1.2-2.2,1.8-3.8,1.8c-0.5,0-1.1-0.1-1.5-0.3c-0.5-0.2-1-0.6-1.5-1l-0.2,1.2H325.6z
		 M329.4,164.5v5.4c0.3,0.3,0.6,0.6,0.9,0.8c0.3,0.2,0.6,0.3,1,0.3c0.7,0,1.3-0.3,1.7-1c0.4-0.6,0.6-1.5,0.6-2.6
		c0-1.2-0.2-2.1-0.6-2.7c-0.4-0.7-1-1-1.7-1c-0.3,0-0.7,0.1-1,0.2C330,164,329.7,164.2,329.4,164.5z"/>
	<rect x="339.7" y="154.6" class="st1" width="3.8" height="19.1"/>
	<path class="st1" d="M346.4,173.7v-13h3.8v13H346.4z M346.1,156.5c0-0.6,0.2-1.1,0.6-1.6c0.4-0.4,0.9-0.6,1.6-0.6
		c0.6,0,1.1,0.2,1.6,0.6c0.4,0.4,0.6,1,0.6,1.6c0,0.6-0.2,1.1-0.6,1.5c-0.4,0.4-0.9,0.6-1.6,0.6c-0.6,0-1.1-0.2-1.6-0.6
		C346.3,157.7,346.1,157.1,346.1,156.5z"/>
	<path class="st1" d="M362,173.1c-0.6,0.3-1.2,0.5-1.7,0.6c-0.6,0.1-1.2,0.2-1.8,0.2c-1.9,0-3.4-0.6-4.5-1.8
		c-1.1-1.2-1.7-2.8-1.7-4.9c0-2.1,0.6-3.7,1.7-4.9c1.1-1.2,2.6-1.8,4.5-1.8c0.5,0,1.1,0.1,1.6,0.2c0.5,0.1,1.1,0.4,1.7,0.6v3.1
		c-0.5-0.3-1-0.5-1.5-0.6c-0.4-0.1-0.8-0.2-1.2-0.2c-0.9,0-1.6,0.3-2.1,1c-0.5,0.7-0.8,1.6-0.8,2.7c0,1.1,0.3,2,0.8,2.7
		c0.5,0.6,1.3,1,2.2,1c0.4,0,0.8-0.1,1.2-0.2c0.4-0.1,0.9-0.4,1.5-0.7V173.1z"/>
	<path class="st1" d="M370.2,172.3c-0.7,0.6-1.3,1-1.8,1.3c-0.5,0.3-1.1,0.4-1.7,0.4c-1,0-1.7-0.3-2.3-0.9c-0.6-0.6-0.9-1.4-0.9-2.4
		c0-1.2,0.5-2.2,1.5-3c1-0.8,2.7-1.6,5.1-2.4v-1.1c0-0.3-0.1-0.6-0.3-0.8c-0.2-0.2-0.6-0.2-1-0.2c-0.7,0-1.5,0.2-2.2,0.5
		c-0.7,0.3-1.4,0.8-2.1,1.4v-2.9c0.8-0.6,1.6-1.1,2.4-1.4c0.8-0.3,1.7-0.4,2.6-0.4c1.5,0,2.6,0.3,3.3,1c0.7,0.7,1,1.7,1,3.2v5.7
		c0,0.2,0,0.3,0.1,0.3c0.1,0.1,0.1,0.1,0.3,0.1c0.1,0,0.2,0,0.4-0.1c0.2-0.1,0.4-0.2,0.6-0.3v2.4c-0.6,0.4-1.2,0.8-1.7,1
		c-0.5,0.2-0.9,0.3-1.3,0.3c-0.5,0-0.9-0.1-1.3-0.4C370.6,173.3,370.4,172.9,370.2,172.3 M370,170.4v-3.1c-1,0.3-1.8,0.7-2.2,1.1
		c-0.5,0.4-0.7,0.9-0.7,1.4c0,0.4,0.1,0.8,0.3,1c0.2,0.2,0.5,0.3,0.9,0.3c0.3,0,0.6-0.1,0.9-0.2C369.4,170.8,369.7,170.7,370,170.4z
		"/>
	<path class="st1" d="M117.5,201.2V197c0.8,0.7,1.5,1.2,2.2,1.6c0.7,0.4,1.3,0.6,1.8,0.6c0.5,0,0.9-0.1,1.2-0.4
		c0.3-0.3,0.4-0.7,0.4-1.2c0-0.8-0.6-1.9-1.9-3.1l-0.2-0.2c-1.5-1.6-2.5-2.8-3-3.7c-0.4-0.8-0.7-1.7-0.7-2.7c0-1.5,0.5-2.6,1.5-3.5
		c1-0.9,2.3-1.3,3.9-1.3c0.7,0,1.4,0.1,2,0.3c0.7,0.2,1.3,0.5,2,0.9v3.6c-0.8-0.4-1.5-0.8-2.2-1c-0.7-0.2-1.2-0.3-1.7-0.3
		c-0.5,0-0.8,0.1-1.1,0.4c-0.3,0.2-0.4,0.6-0.4,1c0,0.5,0.6,1.4,1.8,2.7c0.2,0.2,0.4,0.4,0.4,0.5c1.6,1.6,2.6,2.9,3,3.7
		c0.4,0.9,0.7,1.8,0.7,2.8c0,1.6-0.5,2.9-1.5,3.9c-1,1-2.3,1.5-4,1.5c-0.8,0-1.5-0.1-2.3-0.4C119,202.2,118.2,201.8,117.5,201.2"/>
	<path class="st1" d="M139.7,199.1v2.5c-0.8,0.4-1.5,0.7-2.2,0.9c-0.7,0.2-1.4,0.3-2.1,0.3c-1.9,0-3.4-0.6-4.5-1.7
		c-1.1-1.1-1.6-2.7-1.6-4.8c0-2.1,0.5-3.8,1.5-5.1c1-1.2,2.4-1.9,4.2-1.9c1.6,0,2.8,0.6,3.7,1.7c0.9,1.2,1.4,2.8,1.4,4.8
		c0,0.1,0,0.2,0,0.3c0,0.2,0,0.3,0,0.4h-6.8v0.2c0,1.1,0.3,1.9,0.8,2.5c0.5,0.6,1.3,0.9,2.3,0.9c0.5,0,1-0.1,1.5-0.2
		S139,199.4,139.7,199.1 M133.3,194.7h3.2v-0.1c0-0.9-0.1-1.6-0.4-2.1c-0.3-0.5-0.7-0.7-1.2-0.7c-0.5,0-0.9,0.2-1.2,0.7
		c-0.3,0.4-0.4,1.1-0.4,2V194.7z"/>
	<path class="st1" d="M142.3,202.5v-13h3.6v4.3c0.5-1.5,1-2.6,1.6-3.4c0.6-0.8,1.2-1.1,1.8-1.1c0.4,0,0.8,0.1,1.1,0.2
		c0.4,0.1,0.8,0.3,1.1,0.6l-0.9,3.5c-0.2-0.2-0.5-0.4-0.7-0.4c-0.3-0.1-0.5-0.1-0.8-0.1c-0.9,0-1.7,0.7-2.2,2
		c-0.6,1.3-0.9,3.1-0.9,5.4v2.1H142.3z"/>
	<path class="st1" d="M154.5,198.4c-0.7-0.4-1.3-0.9-1.6-1.6c-0.4-0.7-0.5-1.5-0.5-2.4c0-1.5,0.5-2.7,1.5-3.5c1-0.8,2.4-1.3,4.3-1.3
		h5.6v2.4h-2.4c0.4,0.4,0.7,0.9,0.9,1.4c0.2,0.5,0.3,1,0.3,1.6c0,1.2-0.3,2.1-1,2.8c-0.7,0.7-1.6,1.2-3,1.5
		c-0.4,0.1-0.9,0.2-1.5,0.2c-1,0.1-1.5,0.3-1.5,0.7c0,0.4,0.8,0.7,2.3,0.7c0.4,0,0.7,0,0.9,0c1.5,0.1,2.8,0.5,3.7,1.2
		c0.9,0.7,1.4,1.6,1.4,2.7c0,1.3-0.6,2.3-1.7,3.1c-1.1,0.7-2.7,1.1-4.7,1.1c-1.8,0-3.2-0.3-4.2-0.9c-1-0.6-1.5-1.5-1.5-2.6
		c0-0.6,0.2-1.2,0.7-1.7c0.4-0.5,1.1-0.9,2-1.1c-0.6-0.2-1-0.5-1.3-0.8c-0.3-0.3-0.4-0.7-0.4-1.2c0-0.5,0.2-1,0.5-1.4
		C153.4,198.9,153.9,198.6,154.5,198.4 M155.8,194.6c0,0.9,0.1,1.5,0.4,1.9c0.3,0.4,0.7,0.6,1.3,0.6c0.6,0,1-0.2,1.2-0.6
		c0.3-0.4,0.4-1.1,0.4-2c0-0.9-0.1-1.6-0.4-1.9c-0.3-0.4-0.7-0.6-1.2-0.6c-0.6,0-1,0.2-1.3,0.6C156,193.1,155.8,193.8,155.8,194.6z
		 M157.8,203.6c-0.9,0-1.6,0.1-2.1,0.4c-0.5,0.3-0.7,0.7-0.7,1.2c0,0.5,0.2,0.9,0.7,1.1c0.4,0.2,1.1,0.4,2.1,0.4
		c0.9,0,1.6-0.1,2-0.4c0.5-0.3,0.7-0.6,0.7-1.1c0-0.5-0.2-0.9-0.7-1.2C159.4,203.8,158.7,203.6,157.8,203.6z"/>
	<path class="st1" d="M165.7,202.5v-13h3.8v13H165.7z M165.4,185.4c0-0.6,0.2-1.1,0.6-1.6c0.4-0.4,0.9-0.6,1.6-0.6
		c0.6,0,1.1,0.2,1.6,0.6c0.4,0.4,0.6,1,0.6,1.6c0,0.6-0.2,1.1-0.6,1.5c-0.4,0.4-0.9,0.6-1.6,0.6c-0.6,0-1.1-0.2-1.6-0.6
		C165.6,186.5,165.4,186,165.4,185.4z"/>
	<path class="st1" d="M175.5,196.1c0,1.3,0.2,2.2,0.5,2.9c0.4,0.7,0.9,1,1.6,1c0.7,0,1.3-0.3,1.6-1c0.4-0.7,0.6-1.6,0.6-2.9
		c0-1.3-0.2-2.2-0.6-2.9c-0.4-0.7-0.9-1-1.6-1c-0.7,0-1.3,0.3-1.6,1C175.7,193.8,175.5,194.8,175.5,196.1 M171.6,196.1
		c0-2.1,0.5-3.7,1.6-5c1.1-1.2,2.6-1.8,4.4-1.8c1.9,0,3.3,0.6,4.4,1.8c1.1,1.2,1.6,2.9,1.6,5c0,2.1-0.5,3.7-1.6,4.9
		c-1.1,1.2-2.6,1.8-4.4,1.8c-1.9,0-3.4-0.6-4.4-1.8C172.1,199.8,171.6,198.2,171.6,196.1z"/>
	<path class="st1" d="M191.5,202.5l4.7-19.1h4.5l4.9,19.1h-4.3l-0.8-4h-4.1l-0.8,4H191.5z M197.1,195.4h2.8l-1.4-6.6L197.1,195.4z"
		/>
	<path class="st1" d="M206.9,202.5v-13h3.6v4.3c0.5-1.5,1-2.6,1.6-3.4c0.6-0.8,1.2-1.1,1.8-1.1c0.4,0,0.8,0.1,1.1,0.2
		c0.4,0.1,0.8,0.3,1.1,0.6l-0.9,3.5c-0.2-0.2-0.5-0.4-0.7-0.4c-0.3-0.1-0.5-0.1-0.8-0.1c-0.9,0-1.7,0.7-2.2,2
		c-0.6,1.3-0.9,3.1-0.9,5.4v2.1H206.9z"/>
	<path class="st1" d="M220.6,196.1c0,1.3,0.2,2.2,0.5,2.9c0.4,0.7,0.9,1,1.6,1c0.7,0,1.3-0.3,1.6-1c0.4-0.7,0.6-1.6,0.6-2.9
		c0-1.3-0.2-2.2-0.6-2.9c-0.4-0.7-0.9-1-1.6-1c-0.7,0-1.3,0.3-1.6,1C220.8,193.8,220.6,194.8,220.6,196.1 M216.7,196.1
		c0-2.1,0.5-3.7,1.6-5c1.1-1.2,2.6-1.8,4.4-1.8c1.9,0,3.3,0.6,4.4,1.8c1.1,1.2,1.6,2.9,1.6,5c0,2.1-0.5,3.7-1.6,4.9
		c-1.1,1.2-2.6,1.8-4.4,1.8c-1.9,0-3.4-0.6-4.4-1.8C217.2,199.8,216.7,198.2,216.7,196.1z"/>
	<path class="st1" d="M238.3,200.9c-0.5,0.7-1.1,1.1-1.7,1.4c-0.6,0.3-1.3,0.4-2,0.4c-1.2,0-2.1-0.4-2.8-1.3c-0.6-0.9-1-2.1-1-3.7
		v-8.2h3.8v7.7c0,0.9,0.1,1.6,0.4,2c0.2,0.4,0.6,0.6,1.2,0.6c0.4,0,0.8-0.2,1.2-0.5c0.3-0.3,0.7-0.8,1-1.5v-8.3h3.8v13h-3.7
		L238.3,200.9z"/>
	<path class="st1" d="M253.9,202c-0.6,0.3-1.2,0.5-1.7,0.6c-0.6,0.1-1.2,0.2-1.8,0.2c-1.9,0-3.4-0.6-4.5-1.8
		c-1.1-1.2-1.7-2.8-1.7-4.9c0-2.1,0.6-3.7,1.7-4.9c1.1-1.2,2.6-1.8,4.5-1.8c0.5,0,1.1,0.1,1.6,0.2c0.5,0.1,1.1,0.4,1.7,0.6v3.1
		c-0.5-0.3-1-0.5-1.5-0.6c-0.4-0.1-0.8-0.2-1.2-0.2c-0.9,0-1.6,0.3-2.1,1c-0.5,0.7-0.8,1.6-0.8,2.7c0,1.1,0.3,2,0.8,2.7
		c0.5,0.6,1.3,1,2.2,1c0.4,0,0.8-0.1,1.2-0.2c0.4-0.1,0.9-0.4,1.5-0.7V202z"/>
	<path class="st1" d="M262.1,201.1c-0.7,0.6-1.3,1-1.8,1.3c-0.5,0.3-1.1,0.4-1.7,0.4c-1,0-1.7-0.3-2.3-0.9c-0.6-0.6-0.9-1.4-0.9-2.4
		c0-1.2,0.5-2.2,1.5-3c1-0.8,2.7-1.6,5.1-2.4v-1.1c0-0.3-0.1-0.6-0.3-0.8c-0.2-0.2-0.6-0.2-1-0.2c-0.7,0-1.5,0.2-2.2,0.5
		c-0.7,0.3-1.4,0.8-2.1,1.4v-2.9c0.8-0.6,1.6-1.1,2.4-1.4c0.8-0.3,1.7-0.4,2.6-0.4c1.5,0,2.6,0.3,3.3,1c0.7,0.7,1,1.7,1,3.2v5.7
		c0,0.2,0,0.3,0.1,0.3c0.1,0.1,0.1,0.1,0.3,0.1c0.1,0,0.2,0,0.4-0.1c0.2-0.1,0.4-0.2,0.6-0.3v2.4c-0.6,0.4-1.2,0.8-1.7,1
		c-0.5,0.2-0.9,0.3-1.3,0.3c-0.5,0-0.9-0.1-1.3-0.4C262.5,202.1,262.3,201.7,262.1,201.1 M261.9,199.3v-3.1c-1,0.3-1.8,0.7-2.2,1.1
		c-0.5,0.4-0.7,0.9-0.7,1.4c0,0.4,0.1,0.8,0.3,1c0.2,0.2,0.5,0.3,0.9,0.3c0.3,0,0.6-0.1,0.9-0.2
		C261.3,199.7,261.6,199.5,261.9,199.3z"/>
	<polygon class="st1" points="165,237.6 165,218.4 175.8,218.4 175.8,221.8 169.2,221.8 169.2,226.1 175.3,226.1 175.3,229.4 
		169.2,229.4 169.2,234.2 175.9,234.2 175.9,237.6 	"/>
	<polygon class="st1" points="178.8,237.6 178.8,218.4 182.8,218.4 188,228.9 188,218.4 192,218.4 192,237.6 188.3,237.6 
		182.8,226.6 182.8,237.6 	"/>
	<path class="st1" d="M194.6,236.3v-4.2c0.8,0.7,1.5,1.2,2.2,1.6c0.7,0.4,1.3,0.6,1.8,0.6c0.5,0,0.9-0.1,1.2-0.4
		c0.3-0.3,0.4-0.7,0.4-1.2c0-0.8-0.6-1.9-1.9-3.1l-0.2-0.2c-1.5-1.6-2.5-2.8-3-3.7c-0.4-0.8-0.7-1.7-0.7-2.7c0-1.5,0.5-2.6,1.5-3.5
		c1-0.9,2.3-1.3,3.9-1.3c0.7,0,1.4,0.1,2,0.3c0.7,0.2,1.3,0.5,2,0.9v3.6c-0.8-0.4-1.5-0.8-2.2-1c-0.7-0.2-1.2-0.3-1.7-0.3
		c-0.5,0-0.8,0.1-1.1,0.4c-0.3,0.2-0.4,0.6-0.4,1c0,0.5,0.6,1.4,1.8,2.7c0.2,0.2,0.4,0.4,0.4,0.5c1.6,1.6,2.6,2.9,3,3.7
		c0.4,0.9,0.7,1.8,0.7,2.8c0,1.6-0.5,2.9-1.5,3.9c-1,1-2.3,1.5-4,1.5c-0.8,0-1.5-0.1-2.3-0.4C196.2,237.2,195.4,236.8,194.6,236.3"
		/>
	<path class="st1" d="M207.4,237.6v-19.1h5.5c2.2,0,3.8,0.5,4.9,1.5c1.1,1,1.7,2.4,1.7,4.3c0,1.8-0.5,3.2-1.6,4.1
		c-1.1,0.9-2.6,1.4-4.8,1.4h-1.4v7.9H207.4z M211.7,226.4h0.8c1,0,1.7-0.2,2.1-0.5c0.4-0.3,0.6-0.9,0.6-1.8c0-0.8-0.2-1.4-0.6-1.8
		c-0.4-0.4-1.1-0.6-2-0.6h-0.9V226.4z"/>
</g>
<g>
</g>
<g>
</g>
<g>
</g>
<g>
</g>
<g>
</g>
<g>
</g>
<g>
</g>
<g>
</g>
<g>
</g>
<g>
</g>
<g>
</g>
<g>
</g>
<g>
</g>
<g>
</g>
<g>
</g>
</svg>
